<svg xmlns="http://www.w3.org/2000/svg" xmlns:xlink="http://www.w3.org/1999/xlink" xmlns:lucid="lucid" width="1760" height="1360"><g transform="translate(0 0)" lucid:page-tab-id="0_0"><path d="M0 0h1760v1360H0z" fill="#fff"/><path d="M120 1121.15c0-1.1.9-2 2-2h1576c1.1 0 2 .9 2 2V1266c0 1.1-.9 2-2 2H122c-1.1 0-2-.9-2-2z" fill="#ffebee"/><path d="M120 603.5c0-1.1.9-2 2-2h1576c1.1 0 2 .9 2 2V1078c0 1.1-.9 2-2 2H122c-1.1 0-2-.9-2-2z" fill="#e1f5fe"/><path d="M528 641.15c50.6 0 92 40.06 92 89.42 0 49.37-41.4 89.43-92 89.43H252c-50.6 0-92-40.06-92-89.43 0-49.36 41.4-89.42 92-89.42z" stroke="#000" stroke-width="2" fill="#83bbe5"/><path d="M120 302c0-1.1.9-2 2-2h776c1.1 0 2 .9 2 2v256c0 1.1-.9 2-2 2H122c-1.1 0-2-.9-2-2z" fill="#f3e5f5"/><use xlink:href="#a" transform="matrix(1,0,0,1,136.00000000000006,316) translate(330.68310546875 16.69921875)"/><use xlink:href="#b" transform="matrix(1,0,0,1,136.00000000000006,316) translate(396.12646484375 16.69921875)"/><path d="M800 340c33 0 60 40.32 60 90s-27 90-60 90H620c-33 0-60-40.32-60-90s27-90 60-90z" stroke="#000" stroke-width="2" fill="#b391b5"/><path d="M600 400h100v80H600z" stroke="#000" stroke-width="2" fill="#fff"/><use xlink:href="#c" transform="matrix(1,0,0,1,605,405) translate(1.5999999999999943 27.525)"/><use xlink:href="#d" transform="matrix(1,0,0,1,605,405) translate(26.075 49.125)"/><path d="M720 400h100v80H720z" stroke="#000" stroke-width="2" fill="#fff"/><use xlink:href="#e" transform="matrix(1,0,0,1,725,405) translate(25.05 27.525)"/><use xlink:href="#f" transform="matrix(1,0,0,1,725,405) translate(7.524999999999999 49.125)"/><path d="M120 62c0-1.1.9-2 2-2h1576c1.1 0 2 .9 2 2v196c0 1.1-.9 2-2 2H122c-1.1 0-2-.9-2-2z" fill="#f1f8e9"/><path d="M400 340c33 0 60 40.32 60 90s-27 90-60 90H220c-33 0-60-40.32-60-90s27-90 60-90z" fill="#d1bcd2"/><path d="M409.8 341.22l1.4.36 2.27.7.14.07m7.23 3.27l2 1.17 1.37.9m6.28 4.83l2.35 2.2.52.53m5.24 5.94l2.02 2.64.36.53m4.28 6.67l.48.8 1.42 2.68m3.42 7.15l1.46 3.7m2.6 7.48l.06.2.98 3.62m1.8 7.72l.37 1.7.34 2.2m1.04 7.85l.4 3.95m.34 7.92L460 430l-.05 1.98m-.36 7.92l-.34 3.95m-1.03 7.86l-.04.3-.72 3.6m-1.8 7.73l-.48 1.92-.6 1.9m-2.57 7.5l-.87 2.3-.6 1.37m-3.4 7.16l-.73 1.45-1.18 2.02m-4.27 6.68l-2.25 3.04-.12.14m-5.24 5.95l-2.4 2.3-.5.42m-6.25 4.84l-.7.5-2.4 1.44-.27.15m-7.22 3.25l-1.78.6-2 .54m-7.84 1.14l-1.36.06H398m-8 0h-4m-8 0h-4m-8 0h-4m-8 0h-4m-8 0h-4m-8 0h-4m-8 0h-4m-8 0h-4m-8 0h-4m-8 0h-4m-8 0h-4m-8 0h-4m-8 0h-4m-8 0h-4m-8 0h-2l-1.98-.06m-7.83-1.16l-1.4-.36-2.27-.7-.14-.07m-7.23-3.27l-2-1.17-1.37-.9m-6.28-4.83l-2.35-2.2-.52-.53m-5.24-5.94l-2.02-2.64-.36-.53m-4.28-6.67l-.48-.8-1.42-2.68m-3.42-7.15l-1.46-3.7m-2.6-7.48l-.06-.2-.98-3.62m-1.8-7.72l-.37-1.7-.34-2.2m-1.04-7.85l-.4-3.95m-.34-7.92L160 430l.05-1.98m.36-7.92l.34-3.95m1.03-7.86l.04-.3.72-3.6m1.8-7.73l.48-1.92.6-1.9m2.57-7.5l.87-2.3.6-1.37m3.4-7.16l.73-1.45 1.18-2.02m4.27-6.68l2.25-3.04.12-.14m5.24-5.95l2.4-2.3.5-.42m6.25-4.84l.7-.5 2.4-1.44.27-.15m7.22-3.25l1.78-.6 2-.54m7.84-1.14l1.36-.06H222m8 0h4m8 0h4m8 0h4m8 0h4m8 0h4m8 0h4m8 0h4m8 0h4m8 0h4m8 0h4m8 0h4m8 0h4m8 0h4m8 0h4m8 0h2l1.98.06" stroke="#000" stroke-width="2" fill="none"/><path d="M230 100h144v102c-24.05-17.03-39.02-17.03-48.1-17.03-14.4 0-33.55 17.03-47.95 17.03-8.93 0-24.05 0-47.95-17.03z" stroke="#000" stroke-width="2" fill="#fff"/><path d="M238 109h144v102c-24.05-17.03-39.02-17.03-48.1-17.03-14.4 0-33.55 17.03-47.95 17.03-8.93 0-24.05 0-47.95-17.03z" stroke="#000" stroke-width="2" fill="#fff"/><path d="M246 118h144v102c-24.05-17.03-39.02-17.03-48.1-17.03-14.4 0-33.55 17.03-47.95 17.03-8.93 0-24.05 0-47.95-17.03z" stroke="#000" stroke-width="2" fill="#fff"/><use xlink:href="#g" transform="matrix(1,0,0,1,251,123) translate(18.074999999999996 30.80625)"/><use xlink:href="#h" transform="matrix(1,0,0,1,251,123) translate(1.5499999999999972 52.40625)"/><use xlink:href="#i" transform="matrix(1,0,0,1,251,123) translate(49.5 52.40625)"/><path d="M312.83 220l1.6 4.17 1.37 4 1.14 3.87.94 3.8.77 3.76.62 3.8.45 3.84.3 4 .15 4.2-.03 4.6-.26 5.17-.6 6.34-1.26 9.4-5.76 36.54-.3 3.14-1.98-.18.3-3.2 5.76-36.6 1.27-9.33.58-6.23.26-5.1.03-4.5-.14-4.13-.3-3.9-.45-3.78-.6-3.7-.75-3.68-.92-3.72-1.1-3.8-1.34-3.9-1.58-4.1-1.5-3.4 1.84-.8zM311.33 216.57l-1.84.8-.4-.92 1.8-.84zM315.55 321.77l-5.38 14-3.88-14.5z"/><path d="M316.98 320.84L310 339l-5.03-18.8zm-6.64 11.7l3.8-9.85-6.52-.35z"/><use xlink:href="#j" transform="matrix(1,0,0,1,318.3793182602972,259.7631126224511) translate(0 14.4)"/><path d="M200 400h100v80H200z" stroke="#000" stroke-width="2" fill="#fff"/><use xlink:href="#c" transform="matrix(1,0,0,1,205,405) translate(1.5999999999999943 27.525)"/><use xlink:href="#d" transform="matrix(1,0,0,1,205,405) translate(26.075 49.125)"/><path d="M908 861.15c50.6 0 92 40.06 92 89.42 0 49.37-41.4 89.43-92 89.43H632c-50.6 0-92-40.06-92-89.43 0-49.36 41.4-89.42 92-89.42z" stroke="#000" stroke-width="2" fill="#83bbe5"/><path d="M200 700h100v80H200z" stroke="#000" stroke-width="2" fill="#fff"/><use xlink:href="#k" transform="matrix(1,0,0,1,205,705) translate(16.549999999999997 27.525)"/><use xlink:href="#d" transform="matrix(1,0,0,1,205,705) translate(26.075 49.125)"/><path d="M250.98 680.53l.3-2.72.85-5.83 1.04-5.45 1.2-5.14 1.37-4.92 1.55-4.77 1.74-4.72 2-4.74 2.3-4.9 2.8-5.34 3.63-6.28 6.4-10 14.06-21.44 3.63-6.28 2.8-5.33 2.3-4.9 2-4.75 1.75-4.7 1.56-4.78 1.37-4.92 1.2-5.14 1.04-5.45.86-5.84.67-6.37.44-7 .14-6.83" stroke="#000" stroke-width="2" fill="none"/><path d="M250.17 695.77l-3.87-14.5 9.26.5z" stroke="#000" stroke-width="2"/><path d="M311 522.03h-2V521h2z"/><path d="M480 700h100v80H480z" stroke="#000" stroke-width="2" fill="#fff"/><use xlink:href="#l" transform="matrix(1,0,0,1,484.9999999999999,705) translate(0.5249999999999986 27.525)"/><use xlink:href="#m" transform="matrix(1,0,0,1,484.9999999999999,705) translate(46.525 27.525)"/><use xlink:href="#n" transform="matrix(1,0,0,1,484.9999999999999,705) translate(66.525 27.525)"/><use xlink:href="#o" transform="matrix(1,0,0,1,484.9999999999999,705) translate(26.5 49.125)"/><path d="M320 400h100v80H320z" fill="#d1bcd2"/><path d="M327 400h6m4 0h6m4 0h6m4 0h6m4 0h6m4 0h6m4 0h6m4 0h6m4 0h6m4 0h3v3m0 4v6m0 4v6m0 4v6m0 4v6m0 4v6m0 4v6m0 4v6m0 4v3h-3m-4 0h-6m-4 0h-6m-4 0h-6m-4 0h-6m-4 0h-6m-4 0h-6m-4 0h-6m-4 0h-6m-4 0h-6m-4 0h-3v-3m0-4v-6m0-4v-6m0-4v-6m0-4v-6m0-4v-6m0-4v-6m0-4v-6m0-4v-3h3M529.98 698l-.2-9.23-.8-12.7-1.8-16.76-3.82-25.56-19-106.23-1.5-14-.65-10.27-.17-8.05.13-6.56.35-5.5.5-4.7.6-4.07.68-3.58.75-3.2.8-2.85.84-2.6.87-2.35.9-2.17.95-2 .96-1.84 1-1.73 1.02-1.6 1.05-1.52 1.08-1.42 1.13-1.35 1.15-1.28 1.2-1.22 1.23-1.17 1.3-1.1 1.34-1.07 1.4-1.03 1.47-.97 1.55-.94 1.63-.9 1.73-.85 1.85-.8 1.96-.78 2.1-.74 2.28-.68 2.46-.63.4-.08" stroke="#000" stroke-width="2" fill="none"/><path d="M531 699h-2l-.02-1 2-.05z"/><path d="M555.78 430.33l-13.72 6.07-.94-9.22z" stroke="#000" stroke-width="2"/><path d="M340 700h100v80H340z" fill="#fff"/><path d="M347 700h6m4 0h6m4 0h6m4 0h6m4 0h6m4 0h6m4 0h6m4 0h6m4 0h6m4 0h3v3m0 4v6m0 4v6m0 4v6m0 4v6m0 4v6m0 4v6m0 4v6m0 4v3h-3m-4 0h-6m-4 0h-6m-4 0h-6m-4 0h-6m-4 0h-6m-4 0h-6m-4 0h-6m-4 0h-6m-4 0h-6m-4 0h-3v-3m0-4v-6m0-4v-6m0-4v-6m0-4v-6m0-4v-6m0-4v-6m0-4v-6m0-4v-3h3" stroke="#000" stroke-width="2" fill="none"/><use xlink:href="#e" transform="matrix(1,0,0,1,345,705) translate(25.05 27.525)"/><use xlink:href="#p" transform="matrix(1,0,0,1,345,705) translate(13.074999999999996 49.125)"/><path d="M302 740h18.5" stroke="#000" stroke-width="2" fill="none"/><path d="M302.03 741H301v-2h1.03z"/><path d="M335.76 740l-14.26 4.64v-9.28z" stroke="#000" stroke-width="2"/><path d="M442 740h18.5" stroke="#000" stroke-width="2" fill="none"/><path d="M442.03 741H441v-2h1.03z"/><path d="M475.76 740l-14.26 4.64v-9.28z" stroke="#000" stroke-width="2"/><path d="M580 920h100v80H580z" stroke="#000" stroke-width="2" fill="#fff"/><use xlink:href="#k" transform="matrix(1,0,0,1,585,925) translate(16.549999999999997 27.525)"/><use xlink:href="#d" transform="matrix(1,0,0,1,585,925) translate(26.075 49.125)"/><path d="M860 920h100v80H860z" stroke="#000" stroke-width="2" fill="#fff"/><use xlink:href="#q" transform="matrix(1,0,0,1,865,925) translate(5.549999999999997 27.525)"/><use xlink:href="#r" transform="matrix(1,0,0,1,865,925) translate(69.45 27.525)"/><use xlink:href="#s" transform="matrix(1,0,0,1,865,925) translate(12.074999999999996 49.125)"/><path d="M720 920h100v80H720z" fill="#fff"/><path d="M727 920h6m4 0h6m4 0h6m4 0h6m4 0h6m4 0h6m4 0h6m4 0h6m4 0h6m4 0h3v3m0 4v6m0 4v6m0 4v6m0 4v6m0 4v6m0 4v6m0 4v6m0 4v3h-3m-4 0h-6m-4 0h-6m-4 0h-6m-4 0h-6m-4 0h-6m-4 0h-6m-4 0h-6m-4 0h-6m-4 0h-6m-4 0h-3v-3m0-4v-6m0-4v-6m0-4v-6m0-4v-6m0-4v-6m0-4v-6m0-4v-6m0-4v-3h3" stroke="#000" stroke-width="2" fill="none"/><use xlink:href="#t" transform="matrix(1,0,0,1,725,925) translate(15.549999999999997 27.525)"/><use xlink:href="#p" transform="matrix(1,0,0,1,725,925) translate(13.074999999999996 49.125)"/><path d="M709.98 522l-.55 27.24-1.48 23.7-2.15 20.5-2.7 18.3-3.2 16.88-3.8 16.15-4.55 16.3-5.87 18.02-10.46 27.85-20.9 53.96-5.87 18.04-4.55 16.3-3.8 16.14-3.2 16.87-2.7 18.3-2.15 20.52-1.48 23.7-.2 9.73" stroke="#000" stroke-width="2" fill="none"/><path d="M710.98 522.05l-2-.04.02-1h2z"/><path d="M630.07 915.76l-4.35-14.35 9.27.2z" stroke="#000" stroke-width="2"/><path d="M920 302c0-1.1.9-2 2-2h776c1.1 0 2 .9 2 2v256c0 1.1-.9 2-2 2H922c-1.1 0-2-.9-2-2z" fill="#f3e5f5"/><use xlink:href="#a" transform="matrix(1,0,0,1,936,316) translate(330.68310546875 16.69921875)"/><use xlink:href="#u" transform="matrix(1,0,0,1,936,316) translate(396.12646484375 16.69921875)"/><path d="M1600 340c33 0 60 40.32 60 90s-27 90-60 90h-180c-33 0-60-40.32-60-90s27-90 60-90z" stroke="#000" stroke-width="2" fill="#b391b5"/><path d="M1400 400h100v90h-100z" stroke="#000" stroke-width="2" fill="#fff"/><use xlink:href="#c" transform="matrix(1,0,0,1,1405,405.00000000000006) translate(1.5999999999999943 31.9)"/><use xlink:href="#d" transform="matrix(1,0,0,1,1405,405.00000000000006) translate(26.075 53.5)"/><path d="M1520 400h100v90h-100z" stroke="#000" stroke-width="2" fill="#fff"/><use xlink:href="#e" transform="matrix(1,0,0,1,1525,405.00000000000006) translate(25.05 31.9)"/><use xlink:href="#f" transform="matrix(1,0,0,1,1525,405.00000000000006) translate(7.524999999999999 53.5)"/><path d="M1200 340c33 0 60 40.32 60 90s-27 90-60 90h-180c-33 0-60-40.32-60-90s27-90 60-90z" fill="#d1bcd2"/><path d="M1209.8 341.22l1.4.36 2.27.7.14.07m7.23 3.27l2 1.17 1.37.9m6.28 4.83l2.35 2.2.52.53m5.24 5.94l2.02 2.64.36.53m4.28 6.67l.48.8 1.42 2.68m3.42 7.15l1.46 3.7m2.6 7.48l.06.2.98 3.62m1.8 7.72l.37 1.7.34 2.2m1.04 7.85l.4 3.95m.34 7.92l.02 1.98-.05 1.98m-.36 7.92l-.34 3.95m-1.03 7.86l-.04.3-.72 3.6m-1.8 7.73l-.48 1.92-.6 1.9m-2.57 7.5l-.87 2.3-.6 1.37m-3.4 7.16l-.73 1.45-1.18 2.02m-4.27 6.68l-2.25 3.04-.12.14m-5.24 5.95l-2.4 2.3-.5.42m-6.25 4.84l-.7.5-2.4 1.44-.27.15m-7.22 3.25l-1.78.6-2 .54m-7.84 1.14l-1.36.06H1198m-8 0h-4m-8 0h-4m-8 0h-4m-8 0h-4m-8 0h-4m-8 0h-4m-8 0h-4m-8 0h-4m-8 0h-4m-8 0h-4m-8 0h-4m-8 0h-4m-8 0h-4m-8 0h-4m-8 0h-2l-1.98-.06m-7.83-1.16l-1.4-.36-2.27-.7-.14-.07m-7.23-3.27l-2-1.17-1.37-.9m-6.28-4.83l-2.35-2.2-.52-.53m-5.24-5.94l-2.02-2.64-.36-.53m-4.28-6.67l-.48-.8-1.42-2.68m-3.42-7.15l-1.46-3.7m-2.6-7.48l-.06-.2-.98-3.62m-1.8-7.72l-.37-1.7-.34-2.2m-1.04-7.85l-.4-3.95m-.34-7.92L960 430l.05-1.98m.36-7.92l.34-3.95m1.03-7.86l.04-.3.72-3.6m1.8-7.73l.48-1.92.6-1.9m2.57-7.5l.87-2.3.6-1.37m3.4-7.16l.73-1.45 1.18-2.02m4.27-6.68l2.25-3.04.12-.14m5.24-5.95l2.4-2.3.5-.42m6.25-4.84l.7-.5 2.4-1.44.27-.15m7.22-3.25l1.78-.6 2-.54m7.84-1.14l1.36-.06h2.62m8 0h4m8 0h4m8 0h4m8 0h4m8 0h4m8 0h4m8 0h4m8 0h4m8 0h4m8 0h4m8 0h4m8 0h4m8 0h4m8 0h4m8 0h2l1.98.06" stroke="#000" stroke-width="2" fill="none"/><path d="M1000 400h100v80h-100z" stroke="#000" stroke-width="2" fill="#fff"/><use xlink:href="#c" transform="matrix(1,0,0,1,1005,405) translate(1.5999999999999943 27.525)"/><use xlink:href="#d" transform="matrix(1,0,0,1,1005,405) translate(26.075 49.125)"/><path d="M1120 400h100v80h-100z" fill="#d1bcd2"/><path d="M1127 400h6m4 0h6m4 0h6m4 0h6m4 0h6m4 0h6m4 0h6m4 0h6m4 0h6m4 0h3v3m0 4v6m0 4v6m0 4v6m0 4v6m0 4v6m0 4v6m0 4v6m0 4v3h-3m-4 0h-6m-4 0h-6m-4 0h-6m-4 0h-6m-4 0h-6m-4 0h-6m-4 0h-6m-4 0h-6m-4 0h-6m-4 0h-3v-3m0-4v-6m0-4v-6m0-4v-6m0-4v-6m0-4v-6m0-4v-6m0-4v-6m0-4v-3h3" stroke="#000" stroke-width="2" fill="none"/><path d="M590 340h240v60H590z" stroke="#000" stroke-opacity="0" stroke-width="2" fill="#fff" fill-opacity="0"/><use xlink:href="#v" transform="matrix(1,0,0,1,595,345.00000000000006) translate(43.125 30.025)"/><use xlink:href="#w" transform="matrix(1,0,0,1,595,345.00000000000006) translate(125.075 30.025)"/><path d="M190 340h240v60H190z" stroke="#000" stroke-opacity="0" stroke-width="2" fill="#fff" fill-opacity="0"/><use xlink:href="#x" transform="matrix(1,0,0,1,195,345.00000000000006) translate(50.69999999999999 30.025)"/><use xlink:href="#w" transform="matrix(1,0,0,1,195,345.00000000000006) translate(117.5 30.025)"/><path d="M1208 641.15c50.6 0 92 40.06 92 89.42 0 49.37-41.4 89.43-92 89.43H932c-50.6 0-92-40.06-92-89.43 0-49.36 41.4-89.42 92-89.42z" stroke="#000" stroke-width="2" fill="#83bbe5"/><path d="M470 100h160v120c-26.72-20.04-43.36-20.04-53.44-20.04-16 0-37.28 20.04-53.28 20.04-9.92 0-26.72 0-53.28-20.04z" fill="#fff"/><path d="M477 100h6m4 0h6m4 0h6m4 0h6m4 0h6m4 0h6m4 0h6m4 0h6m4 0h6m4 0h6m4 0h6m4 0h6m4 0h6m4 0h6m4 0h6m4 0h3v3m0 4v6m0 4v6m0 4v6m0 4v6m0 4v6m0 4v6m0 4v6m0 4v6m0 4v6m0 4v6m0 4v6m0 4v3l-2.4-1.64m-3.2-2.2l-4.82-3.28m-3.36-1.93l-5.1-2.82m-3.5-1.65l-4.8-2.1-.56-.17m-3.7-1.2l-2.12-.7-3.5-.8m-3.8-.72l-4.38-.56-1.4-.05m-3.9-.12l-2.9-.1-1.95.1-.9.13m-3.75.77l-.73.17-4.26 1.47-.44.2m-3.48 1.6l-3.98 1.82-1.22.6m-3.42 1.73l-5.13 2.58m-3.43 1.72l-5.14 2.58m-3.42 1.72l-.42.22-4.26 1.47-.73.17m-3.76.78l-.9.13-1.96.1-2.9-.1m-3.87-.15l-2.1-.07-3.66-.52m-3.8-.7l-4.26-1.02-1.36-.47m-3.66-1.25l-1.46-.5-3.9-1.75m-3.52-1.6l-.05-.02-5-2.85m-3.36-1.92l-.58-.33-4.23-2.93m-3.18-2.2l-2.4-1.66v-3m0-4v-6m0-4v-6m0-4v-6m0-4V157m0-4v-6m0-4v-6m0-4v-6m0-4v-6m0-4V107m0-4v-3h3" stroke="#000" stroke-width="2" fill="none"/><use xlink:href="#y" transform="matrix(1,0,0,1,475,105) translate(30.25 48.15)"/><use xlink:href="#z" transform="matrix(1,0,0,1,475,105) translate(78.2 48.15)"/><path d="M710 100h160v120c-26.72-20.04-43.36-20.04-53.44-20.04-16 0-37.28 20.04-53.28 20.04-9.92 0-26.72 0-53.28-20.04z" fill="#fff"/><path d="M717 100h6m4 0h6m4 0h6m4 0h6m4 0h6m4 0h6m4 0h6m4 0h6m4 0h6m4 0h6m4 0h6m4 0h6m4 0h6m4 0h6m4 0h6m4 0h3v3m0 4v6m0 4v6m0 4v6m0 4v6m0 4v6m0 4v6m0 4v6m0 4v6m0 4v6m0 4v6m0 4v6m0 4v3l-2.4-1.64m-3.2-2.2l-4.82-3.28m-3.36-1.93l-5.1-2.82m-3.5-1.65l-4.8-2.1-.56-.17m-3.7-1.2l-2.12-.7-3.5-.8m-3.8-.72l-4.38-.56-1.4-.05m-3.9-.12l-2.9-.1-1.95.1-.9.13m-3.75.77l-.73.17-4.26 1.47-.44.2m-3.48 1.6l-3.98 1.82-1.22.6m-3.42 1.73l-5.13 2.58m-3.43 1.72l-5.14 2.58m-3.42 1.72l-.42.22-4.26 1.47-.73.17m-3.76.78l-.9.13-1.96.1-2.9-.1m-3.87-.15l-2.1-.07-3.66-.52m-3.8-.7l-4.26-1.02-1.36-.47m-3.66-1.25l-1.46-.5-3.9-1.75m-3.52-1.6l-.05-.02-5-2.85m-3.36-1.92l-.58-.33-4.23-2.93m-3.18-2.2l-2.4-1.66v-3m0-4v-6m0-4v-6m0-4v-6m0-4V157m0-4v-6m0-4v-6m0-4v-6m0-4v-6m0-4V107m0-4v-3h3" stroke="#000" stroke-width="2" fill="none"/><use xlink:href="#y" transform="matrix(1,0,0,1,715,105) translate(30.25 48.15)"/><use xlink:href="#z" transform="matrix(1,0,0,1,715,105) translate(78.2 48.15)"/><path d="M392 160h58.5" stroke="#000" stroke-width="2" fill="none"/><path d="M392.03 161H391v-2h1.03z"/><path d="M465.76 160l-14.26 4.64v-9.28z" stroke="#000" stroke-width="2"/><path d="M632 160h58.5" stroke="#000" stroke-width="2" fill="none"/><path d="M632.03 161H631v-2h1.03z"/><path d="M705.76 160l-14.26 4.64v-9.28z" stroke="#000" stroke-width="2"/><path d="M872 160h58.5" stroke="#000" stroke-width="2" fill="none"/><path d="M872.03 161H871v-2h1.03z"/><path d="M945.76 160l-14.26 4.64v-9.28z" stroke="#000" stroke-width="2"/><path d="M950 100h144v102c-24.05-17.03-39.02-17.03-48.1-17.03-14.4 0-33.55 17.03-47.95 17.03-8.93 0-24.05 0-47.95-17.03z" stroke="#000" stroke-width="2" fill="#fff"/><path d="M958 109h144v102c-24.05-17.03-39.02-17.03-48.1-17.03-14.4 0-33.55 17.03-47.95 17.03-8.93 0-24.05 0-47.95-17.03z" stroke="#000" stroke-width="2" fill="#fff"/><path d="M966 118h144v102c-24.05-17.03-39.02-17.03-48.1-17.03-14.4 0-33.55 17.03-47.95 17.03-8.93 0-24.05 0-47.95-17.03z" stroke="#000" stroke-width="2" fill="#fff"/><use xlink:href="#g" transform="matrix(1,0,0,1,971,123) translate(18.074999999999996 30.80625)"/><use xlink:href="#h" transform="matrix(1,0,0,1,971,123) translate(1.5499999999999972 52.40625)"/><use xlink:href="#i" transform="matrix(1,0,0,1,971,123) translate(49.5 52.40625)"/><path d="M1030.44 216.93l1.65 3.38 2.27 4.24 2.52 4.22 2.78 4.28 3.17 4.42 3.65 4.68 4.4 5.17 5.8 6.27L1088.3 285l3.48 4.08 2.76 3.54 2.3 3.22 1.97 3 1.7 2.88 1.52 2.8 1.34 2.74 1.2 2.73 1.05 2.72.95 2.77.82 2.8.6 2.35" stroke="#000" stroke-width="2" fill="none"/><path d="M1031.35 216.52l-1.8.87-.46-.95 1.8-.84z"/><path d="M1109.64 335.78l-6.18-13.66 9.2-1.03z" stroke="#000" stroke-width="2"/><path d="M880 700h100v80H880z" stroke="#000" stroke-width="2" fill="#fff"/><use xlink:href="#k" transform="matrix(1,0,0,1,884.9999999999999,705) translate(16.549999999999997 27.525)"/><use xlink:href="#d" transform="matrix(1,0,0,1,884.9999999999999,705) translate(26.075 49.125)"/><path d="M1160 700h100v80h-100z" stroke="#000" stroke-width="2" fill="#fff"/><use xlink:href="#l" transform="matrix(1,0,0,1,1165,705) translate(0.5249999999999986 27.525)"/><use xlink:href="#m" transform="matrix(1,0,0,1,1165,705) translate(46.525 27.525)"/><use xlink:href="#n" transform="matrix(1,0,0,1,1165,705) translate(66.525 27.525)"/><use xlink:href="#o" transform="matrix(1,0,0,1,1165,705) translate(26.5 49.125)"/><path d="M1020 700h100v80h-100z" fill="#fff"/><path d="M1027 700h6m4 0h6m4 0h6m4 0h6m4 0h6m4 0h6m4 0h6m4 0h6m4 0h6m4 0h3v3m0 4v6m0 4v6m0 4v6m0 4v6m0 4v6m0 4v6m0 4v6m0 4v3h-3m-4 0h-6m-4 0h-6m-4 0h-6m-4 0h-6m-4 0h-6m-4 0h-6m-4 0h-6m-4 0h-6m-4 0h-6m-4 0h-3v-3m0-4v-6m0-4v-6m0-4v-6m0-4v-6m0-4v-6m0-4v-6m0-4v-6m0-4v-3h3" stroke="#000" stroke-width="2" fill="none"/><use xlink:href="#e" transform="matrix(1,0,0,1,1025,705) translate(25.05 27.525)"/><use xlink:href="#p" transform="matrix(1,0,0,1,1025,705) translate(13.074999999999996 49.125)"/><path d="M1109.98 522l-.04 1.7-.16 2.63-.27 2.53-.35 2.46-.46 2.4-.56 2.36-.65 2.32-.76 2.3-.85 2.3-.97 2.27-1.07 2.28-1.2 2.3-1.35 2.33-1.5 2.37-1.68 2.42-1.88 2.5-2.13 2.56-2.4 2.68-2.76 2.82-3.18 2.98-3.7 3.2-4.4 3.48-5.35 3.87-6.7 4.46-9.03 5.46-14.26 7.8-58.87 30.28-9.02 5.45-6.7 4.45-5.36 3.87-4.4 3.48-3.7 3.2-3.18 2.98-2.75 2.8-2.4 2.7-2.14 2.56-1.88 2.5-1.7 2.4-1.5 2.38-1.33 2.32-1.2 2.3-1.08 2.3-.96 2.27-.84 2.3-.48 1.48" stroke="#000" stroke-width="2" fill="none"/><path d="M1110.98 522.05l-2-.04.02-1h2z"/><path d="M930.5 695.8l-2.45-14.8 9.17 1.4z" stroke="#000" stroke-width="2"/><path d="M1210.7 698.28l7.23-7.4 7.28-8.1 6.7-8.1 6.2-8.17 5.73-8.25 5.33-8.4 4.95-8.6 4.64-8.88 4.32-9.2 4.04-9.66 3.8-10.25 3.6-11.1 3.42-12.33 3.36-14.4 3.6-19.14 9.5-59.8 1.74-7.47 1.53-5.52 1.43-4.42 1.36-3.68 1.32-3.15 1.3-2.75 1.27-2.45 1.27-2.2 1.26-2 1.27-1.82 1.27-1.68 1.3-1.56 1.3-1.47 1.36-1.38 1.37-1.3 1.42-1.22 1.47-1.17 1.52-1.1 1.6-1.06 1.65-1 1.74-.98 1.85-.93 1.97-.88 2.1-.84 2.28-.8 2.46-.74 2.7-.7 2.94-.62.15-.03" stroke="#000" stroke-width="2" fill="none"/><path d="M1211.44 698.96l-.04.04h-2.8l1.4-1.44z"/><path d="M1355.78 430.28l-13.82 5.83-.8-9.23z" stroke="#000" stroke-width="2"/><path d="M710.97 338.72l38.1-10.82 28.8-9.5 21.85-8.24 17.02-7.24 13.52-6.45 10.94-5.78 8.98-5.26 7.48-4.8 6.3-4.42 5.36-4.1 4.6-3.86 3.97-3.6 3.45-3.44 3.04-3.26 2.66-3.13 2.37-3.02 2.1-2.9 1.87-2.86 1.67-2.8 1.5-2.74 1.32-2.73 1.2-2.72 1.05-2.73.94-2.76.83-2.8.72-2.9.63-3.03.52-3.2.42-3.47.3-3.92.17-4.8-.12-21.14.16-2.07.2-1.62.22-1.35.24-1.16.26-1.04.27-.93.3-.84.3-.8.3-.7.34-.7.35-.63.36-.6.4-.6.4-.56.42-.54.46-.53.48-.52.52-.5.55-.5.6-.5.65-.5.7-.5.77-.5.85-.48.94-.5 1.07-.5 1.2-.5 1.35-.53 1.57-.53 1.83-.52 2.18-.52 2.65-.52 3.1-.46" stroke="#000" stroke-width="2" fill="none"/><path d="M711.08 339h-4.2l-.03-.14 3.87-1.1z"/><path d="M945.77 160.18l-13.98 5.43-.54-9.24z" stroke="#000" stroke-width="2"/><path d="M990 340h240v60H990z" stroke="#000" stroke-opacity="0" stroke-width="2" fill="#fff" fill-opacity="0"/><use xlink:href="#x" transform="matrix(1,0,0,1,995,345.00000000000006) translate(50.69999999999999 30.025)"/><use xlink:href="#w" transform="matrix(1,0,0,1,995,345.00000000000006) translate(117.5 30.025)"/><path d="M1390 340h240v60h-240z" stroke="#000" stroke-opacity="0" stroke-width="2" fill="#fff" fill-opacity="0"/><use xlink:href="#v" transform="matrix(1,0,0,1,1395,345.00000000000006) translate(43.125 30.025)"/><use xlink:href="#w" transform="matrix(1,0,0,1,1395,345.00000000000006) translate(125.075 30.025)"/><path d="M1190 100h160v120c-26.72-20.04-43.36-20.04-53.44-20.04-16 0-37.28 20.04-53.28 20.04-9.92 0-26.72 0-53.28-20.04z" fill="#fff"/><path d="M1197 100h6m4 0h6m4 0h6m4 0h6m4 0h6m4 0h6m4 0h6m4 0h6m4 0h6m4 0h6m4 0h6m4 0h6m4 0h6m4 0h6m4 0h6m4 0h3v3m0 4v6m0 4v6m0 4v6m0 4v6m0 4v6m0 4v6m0 4v6m0 4v6m0 4v6m0 4v6m0 4v6m0 4v3l-2.4-1.64m-3.2-2.2l-4.82-3.28m-3.36-1.93l-5.1-2.82m-3.5-1.65l-4.8-2.1-.56-.17m-3.7-1.2l-2.12-.7-3.5-.8m-3.8-.72l-4.38-.56-1.4-.05m-3.9-.12l-2.9-.1-1.95.1-.9.13m-3.75.77l-.73.17-4.26 1.47-.44.2m-3.48 1.6l-3.98 1.82-1.22.6m-3.42 1.73l-5.13 2.58m-3.43 1.72l-5.14 2.58m-3.42 1.72l-.42.22-4.26 1.47-.73.17m-3.76.78l-.9.13-1.96.1-2.9-.1m-3.87-.15l-2.1-.07-3.66-.52m-3.8-.7l-4.26-1.02-1.36-.47m-3.66-1.25l-1.46-.5-3.9-1.75m-3.52-1.6l-.05-.02-5-2.85m-3.36-1.92l-.58-.33-4.23-2.93m-3.18-2.2l-2.4-1.66v-3m0-4v-6m0-4v-6m0-4v-6m0-4V157m0-4v-6m0-4v-6m0-4v-6m0-4v-6m0-4V107m0-4v-3h3" stroke="#000" stroke-width="2" fill="none"/><use xlink:href="#y" transform="matrix(1,0,0,1,1195,105) translate(30.25 48.15)"/><use xlink:href="#z" transform="matrix(1,0,0,1,1195,105) translate(78.2 48.15)"/><path d="M1430 100h160v120c-26.72-20.04-43.36-20.04-53.44-20.04-16 0-37.28 20.04-53.28 20.04-9.92 0-26.72 0-53.28-20.04z" fill="#fff"/><path d="M1437 100h6m4 0h6m4 0h6m4 0h6m4 0h6m4 0h6m4 0h6m4 0h6m4 0h6m4 0h6m4 0h6m4 0h6m4 0h6m4 0h6m4 0h6m4 0h3v3m0 4v6m0 4v6m0 4v6m0 4v6m0 4v6m0 4v6m0 4v6m0 4v6m0 4v6m0 4v6m0 4v6m0 4v3l-2.4-1.64m-3.2-2.2l-4.82-3.28m-3.36-1.93l-5.1-2.82m-3.5-1.65l-4.8-2.1-.56-.17m-3.7-1.2l-2.12-.7-3.5-.8m-3.8-.72l-4.38-.56-1.4-.05m-3.9-.12l-2.9-.1-1.95.1-.9.13m-3.75.77l-.73.17-4.26 1.47-.44.2m-3.48 1.6l-3.98 1.82-1.22.6m-3.42 1.73l-5.13 2.58m-3.43 1.72l-5.14 2.58m-3.42 1.72l-.42.22-4.26 1.47-.73.17m-3.76.78l-.9.13-1.96.1-2.9-.1m-3.87-.15l-2.1-.07-3.66-.52m-3.8-.7l-4.26-1.02-1.36-.47m-3.66-1.25l-1.46-.5-3.9-1.75m-3.52-1.6l-.05-.02-5-2.85m-3.36-1.92l-.58-.33-4.23-2.93m-3.18-2.2l-2.4-1.66v-3m0-4v-6m0-4v-6m0-4v-6m0-4V157m0-4v-6m0-4v-6m0-4v-6m0-4v-6m0-4V107m0-4v-3h3" stroke="#000" stroke-width="2" fill="none"/><use xlink:href="#y" transform="matrix(1,0,0,1,1435,105) translate(30.25 48.15)"/><use xlink:href="#z" transform="matrix(1,0,0,1,1435,105) translate(78.2 48.15)"/><path d="M1352 160h58.5" stroke="#000" stroke-width="2" fill="none"/><path d="M1352.03 161H1351v-2h1.03z"/><path d="M1425.76 160l-14.26 4.64v-9.28z" stroke="#000" stroke-width="2"/><path d="M1112 160h58.5" stroke="#000" stroke-width="2" fill="none"/><path d="M1112.03 161H1111v-2h1.03z"/><path d="M1185.76 160l-14.26 4.64v-9.28z" stroke="#000" stroke-width="2"/><path d="M161 160h49.5" fill="none"/><path d="M161 160h2.97m3.96 0h5.94m3.96 0h5.94m3.96 0h5.94m3.96 0h5.94m3.96 0h2.97M161.03 160H160" stroke="#000" stroke-width="2" fill="none"/><path d="M225.76 160l-14.26 4.64v-9.28z" stroke="#000" stroke-width="2"/><path d="M1641.5 160H1592" fill="none"/><path d="M1641.5 160h-2.97m-3.96 0h-5.94m-3.96 0h-5.94m-3.96 0h-5.94m-3.96 0h-5.94m-3.96 0H1592" stroke="#000" stroke-width="2" fill="none"/><path d="M1656.76 160l-14.26 4.64v-9.28z" stroke="#000" stroke-width="2"/><path d="M1592.03 161H1591v-2h1.03z"/><path d="M60 260V60h60v200z" stroke="#000" stroke-opacity="0" stroke-width="2" fill="#c7e8ac"/><use xlink:href="#A" transform="matrix(6.123233995736766e-17,-1,1,6.123233995736766e-17,65.00000000000001,255) translate(51.574999999999996 17.525)"/><use xlink:href="#B" transform="matrix(6.123233995736766e-17,-1,1,6.123233995736766e-17,65.00000000000001,255) translate(43.324999999999996 39.125)"/><path d="M60 560V300h60v260z" stroke="#000" stroke-opacity="0" stroke-width="2" fill="#b391b5"/><use xlink:href="#C" transform="matrix(6.123233995736766e-17,-1,1,6.123233995736766e-17,65,555) translate(63.14999999999999 30.025)"/><use xlink:href="#D" transform="matrix(6.123233995736766e-17,-1,1,6.123233995736766e-17,65,555) translate(93.1 30.025)"/><path d="M60 1079.8V601.16h60v478.66z" stroke="#000" stroke-opacity="0" stroke-width="2" fill="#83bbe5"/><use xlink:href="#E" transform="matrix(6.123233995736766e-17,-1,1,6.123233995736766e-17,65,1074.8118840304448) translate(105.35 30.025)"/><use xlink:href="#F" transform="matrix(6.123233995736766e-17,-1,1,6.123233995736766e-17,65,1074.8118840304448) translate(209.95 30.025)"/><use xlink:href="#G" transform="matrix(6.123233995736766e-17,-1,1,6.123233995736766e-17,65,1074.8118840304448) translate(307.65 30.025)"/><path d="M910 1002v128.22" stroke="#000" stroke-width="2" fill="none"/><path d="M911 1002.03h-2V1001h2z"/><path d="M910 1145.48l-4.64-14.26h9.28z" stroke="#000" stroke-width="2"/><path d="M1568 860c50.6 0 92 40.06 92 89.43 0 49.36-41.4 89.42-92 89.42h-276c-50.6 0-92-40.06-92-89.42 0-49.37 41.4-89.43 92-89.43z" stroke="#000" stroke-width="2" fill="#83bbe5"/><path d="M1240 920h100v80h-100z" stroke="#000" stroke-width="2" fill="#fff"/><use xlink:href="#k" transform="matrix(1,0,0,1,1245,925) translate(16.549999999999997 27.525)"/><use xlink:href="#d" transform="matrix(1,0,0,1,1245,925) translate(26.075 49.125)"/><path d="M1520 920h100v80h-100z" stroke="#000" stroke-width="2" fill="#fff"/><use xlink:href="#q" transform="matrix(1,0,0,1,1525,925) translate(5.549999999999997 27.525)"/><use xlink:href="#r" transform="matrix(1,0,0,1,1525,925) translate(69.45 27.525)"/><use xlink:href="#s" transform="matrix(1,0,0,1,1525,925) translate(12.074999999999996 49.125)"/><path d="M1380 920h100v80h-100z" fill="#fff"/><path d="M1387 920h6m4 0h6m4 0h6m4 0h6m4 0h6m4 0h6m4 0h6m4 0h6m4 0h6m4 0h3v3m0 4v6m0 4v6m0 4v6m0 4v6m0 4v6m0 4v6m0 4v6m0 4v3h-3m-4 0h-6m-4 0h-6m-4 0h-6m-4 0h-6m-4 0h-6m-4 0h-6m-4 0h-6m-4 0h-6m-4 0h-6m-4 0h-3v-3m0-4v-6m0-4v-6m0-4v-6m0-4v-6m0-4v-6m0-4v-6m0-4v-6m0-4v-3h3" stroke="#000" stroke-width="2" fill="none"/><use xlink:href="#t" transform="matrix(1,0,0,1,1385,925) translate(15.549999999999997 27.525)"/><use xlink:href="#p" transform="matrix(1,0,0,1,1385,925) translate(13.074999999999996 49.125)"/><path d="M1570 1002v126.17" stroke="#000" stroke-width="2" fill="none"/><path d="M1571 1002.03h-2V1001h2z"/><path d="M1570 1143.43l-4.64-14.26h9.28z" stroke="#000" stroke-width="2"/><path d="M300 641.15h180v60H300z" stroke="#000" stroke-opacity="0" stroke-width="2" fill="#fff" fill-opacity="0"/><g><use xlink:href="#H" transform="matrix(1,0,0,1,305,646.1452173637781) translate(7.599999999999994 30.025)"/><use xlink:href="#I" transform="matrix(1,0,0,1,305,646.1452173637781) translate(97.5 30.025)"/><use xlink:href="#J" transform="matrix(1,0,0,1,305,646.1452173637781) translate(142.4 30.025)"/></g><path d="M980 641.15h180v60H980z" stroke="#000" stroke-opacity="0" stroke-width="2" fill="#fff" fill-opacity="0"/><g><use xlink:href="#H" transform="matrix(1,0,0,1,985,646.1452173637781) translate(7.599999999999994 30.025)"/><use xlink:href="#I" transform="matrix(1,0,0,1,985,646.1452173637781) translate(97.5 30.025)"/><use xlink:href="#K" transform="matrix(1,0,0,1,985,646.1452173637781) translate(142.4 30.025)"/></g><path d="M372.67 260" stroke="#000" stroke-width="2" fill="none"/><path/><path d="M369.43 260l-14.27 4.64v-9.28z" stroke="#000" stroke-width="2"/><g><path d="M60 1268.3v-149.34h60v149.33z" stroke="#000" stroke-opacity="0" stroke-width="2" fill="#ff8f80"/></g><g><use xlink:href="#L" transform="matrix(6.123233995736766e-17,-1,1,6.123233995736766e-17,65,1263.2904347275564) translate(33.525 17.525)"/><use xlink:href="#M" transform="matrix(6.123233995736766e-17,-1,1,6.123233995736766e-17,65,1263.2904347275564) translate(34.074999999999996 39.125)"/></g><path d="M1509.98 522l-.2 9.9-.64 10.2-1 9.58-1.35 9.08-1.66 8.66-1.95 8.3-2.25 8.04-2.54 7.82-2.84 7.66-3.18 7.55-3.53 7.5-3.94 7.54-4.4 7.64-4.97 7.82-5.66 8.14-6.56 8.63-7.8 9.42-9.7 10.76-13.38 13.63-78.22 73.84-9.7 10.77-7.8 9.43-6.57 8.63-5.66 8.14-4.97 7.82-4.4 7.64-3.95 7.53-3.53 7.5-3.18 7.56-2.85 7.66-2.55 7.82-2.24 8.03-1.94 8.3-1.65 8.67-1.33 9.08-1 9.58-.17 2.62" stroke="#000" stroke-width="2" fill="none"/><path d="M1510.98 522.05l-2-.04.02-1h2z"/><path d="M1290.12 915.77l-4.1-14.43 9.28.35z" stroke="#000" stroke-width="2"/><path d="M836.17 1149.72h147.66v87.7c-24.66-14.64-40-14.64-49.32-14.64-14.75 0-34.4 14.65-49.16 14.65-9.16 0-24.66 0-49.17-14.65z" stroke="#000" stroke-width="2" fill="#fff"/><g><use xlink:href="#N" transform="matrix(1,0,0,1,841.1666666666666,1154.7178260456685) translate(1.5499999999999972 26.4)"/><use xlink:href="#O" transform="matrix(1,0,0,1,841.1666666666666,1154.7178260456685) translate(76.55 26.4)"/><use xlink:href="#P" transform="matrix(1,0,0,1,841.1666666666666,1154.7178260456685) translate(47.675 48)"/></g><path d="M680 860h180v60H680z" stroke="#000" stroke-opacity="0" stroke-width="2" fill="#fff" fill-opacity="0"/><g><use xlink:href="#q" transform="matrix(1,0,0,1,685,865) translate(20.599999999999994 30.025)"/><use xlink:href="#I" transform="matrix(1,0,0,1,685,865) translate(84.5 30.025)"/><use xlink:href="#J" transform="matrix(1,0,0,1,685,865) translate(129.4 30.025)"/></g><path d="M1496.17 1147.67h147.66v89.76c-24.66-15-40-15-49.32-15-14.75 0-34.4 15-49.16 15-9.16 0-24.66 0-49.17-15z" stroke="#000" stroke-width="2" fill="#fff"/><g><use xlink:href="#N" transform="matrix(1,0,0,1,1501.1666666666665,1152.6673913181066) translate(1.5499999999999972 24.55625)"/><use xlink:href="#O" transform="matrix(1,0,0,1,1501.1666666666665,1152.6673913181066) translate(76.55 24.55625)"/><use xlink:href="#Q" transform="matrix(1,0,0,1,1501.1666666666665,1152.6673913181066) translate(32.425 46.15625)"/><use xlink:href="#R" transform="matrix(1,0,0,1,1501.1666666666665,1152.6673913181066) translate(80.07499999999999 46.15625)"/><use xlink:href="#S" transform="matrix(1,0,0,1,1501.1666666666665,1152.6673913181066) translate(95.57499999999999 46.15625)"/></g><path d="M1340 861.15h180v60h-180z" stroke="#000" stroke-opacity="0" stroke-width="2" fill="#fff" fill-opacity="0"/><g><use xlink:href="#q" transform="matrix(1,0,0,1,1345,866.145217363778) translate(20.599999999999994 30.025)"/><use xlink:href="#I" transform="matrix(1,0,0,1,1345,866.145217363778) translate(84.5 30.025)"/><use xlink:href="#K" transform="matrix(1,0,0,1,1345,866.145217363778) translate(129.4 30.025)"/></g><path d="M682 960h18.5" stroke="#000" stroke-width="2" fill="none"/><path d="M682.03 961H681v-2h1.03z"/><path d="M715.76 960l-14.26 4.64v-9.28z" stroke="#000" stroke-width="2"/><path d="M822 960h18.5" stroke="#000" stroke-width="2" fill="none"/><path d="M822.03 961H821v-2h1.03z"/><path d="M855.76 960l-14.26 4.64v-9.28z" stroke="#000" stroke-width="2"/><path d="M982 740h18.5" stroke="#000" stroke-width="2" fill="none"/><path d="M982.03 741H981v-2h1.03z"/><path d="M1015.76 740l-14.26 4.64v-9.28z" stroke="#000" stroke-width="2"/><path d="M1122 740h18.5" stroke="#000" stroke-width="2" fill="none"/><path d="M1122.03 741H1121v-2h1.03z"/><path d="M1155.76 740l-14.26 4.64v-9.28z" stroke="#000" stroke-width="2"/><path d="M1342 960h18.5" stroke="#000" stroke-width="2" fill="none"/><path d="M1342.03 961H1341v-2h1.03z"/><path d="M1375.76 960l-14.26 4.64v-9.28z" stroke="#000" stroke-width="2"/><path d="M1482 960h18.5" stroke="#000" stroke-width="2" fill="none"/><path d="M1482.03 961H1481v-2h1.03z"/><path d="M1515.76 960l-14.26 4.64v-9.28z" stroke="#000" stroke-width="2"/><defs><path d="M688-137c238 0 323-102 359-325h193c-32 297-228 482-552 482-361 0-569-299-569-680 0-197 8-360 73-497 88-186 257-317 513-319 316-2 509 195 535 488h-193c-31-212-118-330-342-330-272 0-397 224-393 523v141c-3 282 115 517 376 517" id="T"/><path d="M589-945c-131 0-219 81-264 174V0H140v-1536h185v585c82-101 189-151 320-151 229 0 346 129 346 387V0H806v-716c-2-153-65-229-217-229" id="U"/><path d="M561-1102c238-4 403 126 403 351v498c0 99 13 178 38 237V0H808c-11-21-19-59-26-114C696-25 593 20 474 20c-199 0-368-130-365-320 4-251 214-359 490-356h180v-85c-1-135-86-212-229-212-115 0-232 67-233 171H131c20-205 206-316 430-320zM294-326c0 117 90 185 207 185 122 0 239-75 278-162v-222H634c-227 0-340 66-340 199" id="V"/><path d="M589-945c-131 0-219 81-264 174V0H140v-1082h175l6 136c83-104 191-156 324-156 229 0 346 129 346 387V0H806v-716c-2-153-65-229-217-229" id="W"/><path d="M521 20C240 20 96-239 96-550c0-303 147-552 427-552 132 0 235 47 309 140l9-120h169V-26c4 277-183 454-459 452-165-1-334-81-400-187l96-111c79 98 176 147 291 147 180 1 288-109 286-290v-93C750-23 649 20 521 20zm48-965c-209 0-287 178-287 416 0 217 86 392 285 392 117 0 202-53 257-159v-494c-57-103-142-155-255-155" id="X"/><path d="M599-131c141 0 220-65 285-146l113 88C906-50 770 20 589 20 281 21 93-214 93-545c0-223 93-397 233-485 74-48 154-72 240-72 300 2 449 218 445 537v77H278c0 197 129 357 321 357zm227-509c-3-180-88-310-260-310-170 0-264 140-282 310h542" id="Y"/><g id="a"><use transform="matrix(0.0087890625,0,0,0.0087890625,0,0)" xlink:href="#T"/><use transform="matrix(0.0087890625,0,0,0.0087890625,11.7158203125,0)" xlink:href="#U"/><use transform="matrix(0.0087890625,0,0,0.0087890625,21.6298828125,0)" xlink:href="#V"/><use transform="matrix(0.0087890625,0,0,0.0087890625,31.4208984375,0)" xlink:href="#W"/><use transform="matrix(0.0087890625,0,0,0.0087890625,41.3525390625,0)" xlink:href="#X"/><use transform="matrix(0.0087890625,0,0,0.0087890625,51.451171875,0)" xlink:href="#Y"/></g><path d="M765-410H501L421 0H278l80-410H119v-137h265l69-354H195v-139h285l82-416h143l-82 416h264l82-416h144l-82 416h204v139h-231l-69 354h225v137H909L829 0H685zM527-547h264l69-354H596" id="Z"/><path d="M729 0H543v-1233l-373 137v-168l530-199h29V0" id="aa"/><g id="b"><use transform="matrix(0.0087890625,0,0,0.0087890625,0,0)" xlink:href="#Z"/><use transform="matrix(0.0087890625,0,0,0.0087890625,11.0830078125,0)" xlink:href="#aa"/></g><path d="M212-179c-10-28-35-45-73-45-59 0-87 40-87 99 0 60 29 101 89 101 43 0 62-24 78-52l27 14C228-24 195 4 139 4 59 4 22-46 18-125c-6-104 99-153 187-111 19 9 31 26 39 46" id="ab"/><path d="M100-194c62-1 85 37 85 99 1 63-27 99-86 99S16-35 15-95c0-66 28-99 85-99zM99-20c44 1 53-31 53-75 0-43-8-75-51-75s-53 32-53 75 10 74 51 75" id="ac"/><path d="M210-169c-67 3-38 105-44 169h-31v-121c0-29-5-50-35-48C34-165 62-65 56 0H25l-1-190h30c1 10-1 24 2 32 10-44 99-50 107 0 11-21 27-35 58-36 85-2 47 119 55 194h-31v-121c0-29-5-49-35-48" id="ad"/><path d="M24-231v-30h32v30H24zM24 0v-190h32V0H24" id="ae"/><path d="M59-47c-2 24 18 29 38 22v24C64 9 27 4 27-40v-127H5v-23h24l9-43h21v43h35v23H59v120" id="af"/><path d="M100-194c63 0 86 42 84 106H49c0 40 14 67 53 68 26 1 43-12 49-29l28 8c-11 28-37 45-77 45C44 4 14-33 15-96c1-61 26-98 85-98zm52 81c6-60-76-77-97-28-3 7-6 17-6 28h103" id="ag"/><path d="M85-194c31 0 48 13 60 33l-1-100h32l1 261h-30c-2-10 0-23-3-31C134-8 116 4 85 4 32 4 16-35 15-94c0-66 23-100 70-100zm9 24c-40 0-46 34-46 75 0 40 6 74 45 74 42 0 51-32 51-76 0-42-9-74-50-73" id="ah"/><g id="c"><use transform="matrix(0.05,0,0,0.05,0,0)" xlink:href="#ab"/><use transform="matrix(0.05,0,0,0.05,12.950000000000001,0)" xlink:href="#ac"/><use transform="matrix(0.05,0,0,0.05,22.950000000000003,0)" xlink:href="#ad"/><use transform="matrix(0.05,0,0,0.05,37.900000000000006,0)" xlink:href="#ad"/><use transform="matrix(0.05,0,0,0.05,52.85,0)" xlink:href="#ae"/><use transform="matrix(0.05,0,0,0.05,56.80000000000001,0)" xlink:href="#af"/><use transform="matrix(0.05,0,0,0.05,61.80000000000001,0)" xlink:href="#af"/><use transform="matrix(0.05,0,0,0.05,66.80000000000001,0)" xlink:href="#ag"/><use transform="matrix(0.05,0,0,0.05,76.80000000000001,0)" xlink:href="#ah"/></g><path d="M63-220v92h138v28H63V0H30v-248h175v28H63" id="ai"/><path d="M24 0v-261h32V0H24" id="aj"/><path d="M135-143c-3-34-86-38-87 0 15 53 115 12 119 90S17 21 10-45l28-5c4 36 97 45 98 0-10-56-113-15-118-90-4-57 82-63 122-42 12 7 21 19 24 35" id="ak"/><g id="d"><use transform="matrix(0.05,0,0,0.05,0,0)" xlink:href="#ai"/><use transform="matrix(0.05,0,0,0.05,10.950000000000001,0)" xlink:href="#ae"/><use transform="matrix(0.05,0,0,0.05,14.9,0)" xlink:href="#aj"/><use transform="matrix(0.05,0,0,0.05,18.85,0)" xlink:href="#ag"/><use transform="matrix(0.05,0,0,0.05,28.85,0)" xlink:href="#ak"/></g><path d="M160-131c35 5 61 23 61 61C221 17 115-2 30 0v-248c76 3 177-17 177 60 0 33-19 50-47 57zm-97-11c50-1 110 9 110-42 0-47-63-36-110-37v79zm0 115c55-2 124 14 124-45 0-56-70-42-124-44v89" id="al"/><path d="M84 4C-5 8 30-112 23-190h32v120c0 31 7 50 39 49 72-2 45-101 50-169h31l1 190h-30c-1-10 1-25-2-33-11 22-28 36-60 37" id="am"/><g id="e"><use transform="matrix(0.05,0,0,0.05,0,0)" xlink:href="#al"/><use transform="matrix(0.05,0,0,0.05,12,0)" xlink:href="#am"/><use transform="matrix(0.05,0,0,0.05,22,0)" xlink:href="#ae"/><use transform="matrix(0.05,0,0,0.05,25.950000000000003,0)" xlink:href="#aj"/><use transform="matrix(0.05,0,0,0.05,29.899999999999995,0)" xlink:href="#ah"/></g><path d="M240 0l2-218c-23 76-54 145-80 218h-23L58-218 59 0H30v-248h44l77 211c21-75 51-140 76-211h43V0h-30" id="an"/><path d="M141-36C126-15 110 5 73 4 37 3 15-17 15-53c-1-64 63-63 125-63 3-35-9-54-41-54-24 1-41 7-42 31l-33-3c5-37 33-52 76-52 45 0 72 20 72 64v82c-1 20 7 32 28 27v20c-31 9-61-2-59-35zM48-53c0 20 12 33 32 33 41-3 63-29 60-74-43 2-92-5-92 41" id="ao"/><g id="f"><use transform="matrix(0.05,0,0,0.05,0,0)" xlink:href="#an"/><use transform="matrix(0.05,0,0,0.05,14.950000000000001,0)" xlink:href="#ag"/><use transform="matrix(0.05,0,0,0.05,24.950000000000003,0)" xlink:href="#af"/><use transform="matrix(0.05,0,0,0.05,29.950000000000003,0)" xlink:href="#ao"/><use transform="matrix(0.05,0,0,0.05,39.95,0)" xlink:href="#ah"/><use transform="matrix(0.05,0,0,0.05,49.95,0)" xlink:href="#ao"/><use transform="matrix(0.05,0,0,0.05,59.95,0)" xlink:href="#af"/><use transform="matrix(0.05,0,0,0.05,64.95,0)" xlink:href="#ao"/></g><path d="M115-194c55 1 70 41 70 98S169 2 115 4C84 4 66-9 55-30l1 105H24l-1-265h31l2 30c10-21 28-34 59-34zm-8 174c40 0 45-34 45-75s-6-73-45-74c-42 0-51 32-51 76 0 43 10 73 51 73" id="ap"/><g id="g"><use transform="matrix(0.05,0,0,0.05,0,0)" xlink:href="#ab"/><use transform="matrix(0.05,0,0,0.05,12.950000000000001,0)" xlink:href="#ac"/><use transform="matrix(0.05,0,0,0.05,22.950000000000003,0)" xlink:href="#ad"/><use transform="matrix(0.05,0,0,0.05,37.900000000000006,0)" xlink:href="#ap"/><use transform="matrix(0.05,0,0,0.05,47.900000000000006,0)" xlink:href="#aj"/><use transform="matrix(0.05,0,0,0.05,51.85,0)" xlink:href="#ag"/><use transform="matrix(0.05,0,0,0.05,61.85,0)" xlink:href="#af"/><use transform="matrix(0.05,0,0,0.05,66.85000000000001,0)" xlink:href="#ag"/><use transform="matrix(0.05,0,0,0.05,76.85000000000001,0)" xlink:href="#ah"/></g><path d="M30 0v-248h33v221h125V0H30" id="aq"/><path d="M96-169c-40 0-48 33-48 73s9 75 48 75c24 0 41-14 43-38l32 2c-6 37-31 61-74 61-59 0-76-41-82-99-10-93 101-131 147-64 4 7 5 14 7 22l-32 3c-4-21-16-35-41-35" id="ar"/><g id="h"><use transform="matrix(0.05,0,0,0.05,0,0)" xlink:href="#aq"/><use transform="matrix(0.05,0,0,0.05,10,0)" xlink:href="#ac"/><use transform="matrix(0.05,0,0,0.05,20,0)" xlink:href="#ar"/><use transform="matrix(0.05,0,0,0.05,29,0)" xlink:href="#ao"/><use transform="matrix(0.05,0,0,0.05,39,0)" xlink:href="#aj"/></g><path d="M106-169C34-169 62-67 57 0H25v-261h32l-1 103c12-21 28-36 61-36 89 0 53 116 60 194h-32v-121c2-32-8-49-39-48" id="as"/><path d="M117-194c89-4 53 116 60 194h-32v-121c0-31-8-49-39-48C34-167 62-67 57 0H25l-1-190h30c1 10-1 24 2 32 11-22 29-35 61-36" id="at"/><path d="M177-190C167-65 218 103 67 71c-23-6-38-20-44-43l32-5c15 47 100 32 89-28v-30C133-14 115 1 83 1 29 1 15-40 15-95c0-56 16-97 71-98 29-1 48 16 59 35 1-10 0-23 2-32h30zM94-22c36 0 50-32 50-73 0-42-14-75-50-75-39 0-46 34-46 75s6 73 46 73" id="au"/><g id="i"><use transform="matrix(0.05,0,0,0.05,0,0)" xlink:href="#ab"/><use transform="matrix(0.05,0,0,0.05,12.950000000000001,0)" xlink:href="#as"/><use transform="matrix(0.05,0,0,0.05,22.950000000000003,0)" xlink:href="#ao"/><use transform="matrix(0.05,0,0,0.05,32.95,0)" xlink:href="#at"/><use transform="matrix(0.05,0,0,0.05,42.95,0)" xlink:href="#au"/><use transform="matrix(0.05,0,0,0.05,52.95,0)" xlink:href="#ag"/><use transform="matrix(0.05,0,0,0.05,62.95,0)" xlink:href="#ak"/></g><g id="k"><use transform="matrix(0.05,0,0,0.05,0,0)" xlink:href="#ab"/><use transform="matrix(0.05,0,0,0.05,12.950000000000001,0)" xlink:href="#aj"/><use transform="matrix(0.05,0,0,0.05,16.900000000000002,0)" xlink:href="#ac"/><use transform="matrix(0.05,0,0,0.05,26.900000000000002,0)" xlink:href="#at"/><use transform="matrix(0.05,0,0,0.05,36.900000000000006,0)" xlink:href="#ag"/><use transform="matrix(0.05,0,0,0.05,46.900000000000006,0)" xlink:href="#ah"/></g><path d="M30-248c87 1 191-15 191 75 0 78-77 80-158 76V0H30v-248zm33 125c57 0 124 11 124-50 0-59-68-47-124-48v98" id="av"/><g id="l"><use transform="matrix(0.05,0,0,0.05,0,0)" xlink:href="#av"/><use transform="matrix(0.05,0,0,0.05,12,0)" xlink:href="#am"/><use transform="matrix(0.05,0,0,0.05,22,0)" xlink:href="#ak"/><use transform="matrix(0.05,0,0,0.05,31,0)" xlink:href="#as"/></g><g id="m"><use transform="matrix(0.05,0,0,0.05,0,0)" xlink:href="#af"/><use transform="matrix(0.05,0,0,0.05,5,0)" xlink:href="#ac"/></g><path d="M143 4C61 4 22-44 18-125c-5-107 100-154 193-111 17 8 29 25 37 43l-32 9c-13-25-37-40-76-40-61 0-88 39-88 99 0 61 29 100 91 101 35 0 62-11 79-27v-45h-74v-28h105v86C228-13 192 4 143 4" id="aw"/><g id="n"><use transform="matrix(0.05,0,0,0.05,0,0)" xlink:href="#aw"/><use transform="matrix(0.05,0,0,0.05,14,0)" xlink:href="#ae"/><use transform="matrix(0.05,0,0,0.05,17.95,0)" xlink:href="#af"/></g><path d="M185-189c-5-48-123-54-124 2 14 75 158 14 163 119 3 78-121 87-175 55-17-10-28-26-33-46l33-7c5 56 141 63 141-1 0-78-155-14-162-118-5-82 145-84 179-34 5 7 8 16 11 25" id="ax"/><g id="o"><use transform="matrix(0.05,0,0,0.05,0,0)" xlink:href="#ax"/><use transform="matrix(0.05,0,0,0.05,12,0)" xlink:href="#af"/><use transform="matrix(0.05,0,0,0.05,17,0)" xlink:href="#ag"/><use transform="matrix(0.05,0,0,0.05,27,0)" xlink:href="#ap"/></g><g id="p"><use transform="matrix(0.05,0,0,0.05,0,0)" xlink:href="#av"/><use transform="matrix(0.05,0,0,0.05,12,0)" xlink:href="#ae"/><use transform="matrix(0.05,0,0,0.05,15.949999999999998,0)" xlink:href="#ap"/><use transform="matrix(0.05,0,0,0.05,25.950000000000003,0)" xlink:href="#ag"/><use transform="matrix(0.05,0,0,0.05,35.95,0)" xlink:href="#aj"/><use transform="matrix(0.05,0,0,0.05,39.900000000000006,0)" xlink:href="#ae"/><use transform="matrix(0.05,0,0,0.05,43.85000000000001,0)" xlink:href="#at"/><use transform="matrix(0.05,0,0,0.05,53.85,0)" xlink:href="#ag"/></g><path d="M115-194c53 0 69 39 70 98 0 66-23 100-70 100C84 3 66-7 56-30L54 0H23l1-261h32v101c10-23 28-34 59-34zm-8 174c40 0 45-34 45-75 0-40-5-75-45-74-42 0-51 32-51 76 0 43 10 73 51 73" id="ay"/><g id="q"><use transform="matrix(0.05,0,0,0.05,0,0)" xlink:href="#av"/><use transform="matrix(0.05,0,0,0.05,12,0)" xlink:href="#am"/><use transform="matrix(0.05,0,0,0.05,22,0)" xlink:href="#ay"/><use transform="matrix(0.05,0,0,0.05,32,0)" xlink:href="#aj"/><use transform="matrix(0.05,0,0,0.05,35.95,0)" xlink:href="#ae"/><use transform="matrix(0.05,0,0,0.05,39.900000000000006,0)" xlink:href="#ak"/><use transform="matrix(0.05,0,0,0.05,48.900000000000006,0)" xlink:href="#as"/></g><g id="r"><use transform="matrix(0.05,0,0,0.05,0,0)" xlink:href="#af"/><use transform="matrix(0.05,0,0,0.05,5,0)" xlink:href="#ac"/></g><path d="M233-177c-1 41-23 64-60 70L243 0h-38l-65-103H63V0H30v-248c88 3 205-21 203 71zM63-129c60-2 137 13 137-47 0-61-80-42-137-45v92" id="az"/><path d="M114-163C36-179 61-72 57 0H25l-1-190h30c1 12-1 29 2 39 6-27 23-49 58-41v29" id="aA"/><path d="M179-190L93 31C79 59 56 82 12 73V49c39 6 53-20 64-50L1-190h34L92-34l54-156h33" id="aB"/><g id="s"><use transform="matrix(0.05,0,0,0.05,0,0)" xlink:href="#az"/><use transform="matrix(0.05,0,0,0.05,12.950000000000001,0)" xlink:href="#ag"/><use transform="matrix(0.05,0,0,0.05,22.950000000000003,0)" xlink:href="#au"/><use transform="matrix(0.05,0,0,0.05,32.95,0)" xlink:href="#ae"/><use transform="matrix(0.05,0,0,0.05,36.900000000000006,0)" xlink:href="#ak"/><use transform="matrix(0.05,0,0,0.05,45.900000000000006,0)" xlink:href="#af"/><use transform="matrix(0.05,0,0,0.05,50.900000000000006,0)" xlink:href="#aA"/><use transform="matrix(0.05,0,0,0.05,56.85,0)" xlink:href="#aB"/></g><g id="t"><use transform="matrix(0.05,0,0,0.05,0,0)" xlink:href="#av"/><use transform="matrix(0.05,0,0,0.05,12,0)" xlink:href="#am"/><use transform="matrix(0.05,0,0,0.05,22,0)" xlink:href="#ay"/><use transform="matrix(0.05,0,0,0.05,32,0)" xlink:href="#aj"/><use transform="matrix(0.05,0,0,0.05,35.95,0)" xlink:href="#ae"/><use transform="matrix(0.05,0,0,0.05,39.900000000000006,0)" xlink:href="#ak"/><use transform="matrix(0.05,0,0,0.05,48.900000000000006,0)" xlink:href="#as"/></g><path d="M569-1476c255 0 440 146 439 390 0 143-91 314-274 512L344-151h731V0H121v-133l504-560c75-85 125-155 155-207 105-184 6-424-211-424-183 0-293 113-291 297H93c-3-270 199-449 476-449" id="aC"/><g id="u"><use transform="matrix(0.0087890625,0,0,0.0087890625,0,0)" xlink:href="#Z"/><use transform="matrix(0.0087890625,0,0,0.0087890625,11.0830078125,0)" xlink:href="#aC"/></g><path d="M205 0l-28-72H64L36 0H1l101-248h38L239 0h-34zm-38-99l-47-123c-12 45-31 82-46 123h93" id="aD"/><g id="v"><use transform="matrix(0.05,0,0,0.05,0,0)" xlink:href="#aD"/><use transform="matrix(0.05,0,0,0.05,12,0)" xlink:href="#ad"/><use transform="matrix(0.05,0,0,0.05,26.950000000000003,0)" xlink:href="#ag"/><use transform="matrix(0.05,0,0,0.05,36.95,0)" xlink:href="#at"/><use transform="matrix(0.05,0,0,0.05,46.95,0)" xlink:href="#ah"/><use transform="matrix(0.05,0,0,0.05,56.95,0)" xlink:href="#ag"/><use transform="matrix(0.05,0,0,0.05,66.95,0)" xlink:href="#ah"/></g><g id="w"><use transform="matrix(0.05,0,0,0.05,0,0)" xlink:href="#ab"/><use transform="matrix(0.05,0,0,0.05,12.950000000000001,0)" xlink:href="#ac"/><use transform="matrix(0.05,0,0,0.05,22.950000000000003,0)" xlink:href="#ad"/><use transform="matrix(0.05,0,0,0.05,37.900000000000006,0)" xlink:href="#ad"/><use transform="matrix(0.05,0,0,0.05,52.85,0)" xlink:href="#ae"/><use transform="matrix(0.05,0,0,0.05,56.80000000000001,0)" xlink:href="#af"/></g><path d="M140-251c81 0 123 46 123 126C263-46 219 4 140 4 59 4 17-45 17-125s42-126 123-126zm0 227c63 0 89-41 89-101s-29-99-89-99c-61 0-89 39-89 99S79-25 140-24" id="aE"/><g id="x"><use transform="matrix(0.05,0,0,0.05,0,0)" xlink:href="#aE"/><use transform="matrix(0.05,0,0,0.05,14,0)" xlink:href="#aA"/><use transform="matrix(0.05,0,0,0.05,19.95,0)" xlink:href="#ae"/><use transform="matrix(0.05,0,0,0.05,23.9,0)" xlink:href="#au"/><use transform="matrix(0.05,0,0,0.05,33.9,0)" xlink:href="#ae"/><use transform="matrix(0.05,0,0,0.05,37.85,0)" xlink:href="#at"/><use transform="matrix(0.05,0,0,0.05,47.85,0)" xlink:href="#ao"/><use transform="matrix(0.05,0,0,0.05,57.85,0)" xlink:href="#aj"/></g><g id="y"><use transform="matrix(0.05,0,0,0.05,0,0)" xlink:href="#aq"/><use transform="matrix(0.05,0,0,0.05,10,0)" xlink:href="#ac"/><use transform="matrix(0.05,0,0,0.05,20,0)" xlink:href="#ar"/><use transform="matrix(0.05,0,0,0.05,29,0)" xlink:href="#ao"/><use transform="matrix(0.05,0,0,0.05,39,0)" xlink:href="#aj"/></g><path d="M266 0h-40l-56-210L115 0H75L2-248h35L96-30l15-64 43-154h32l59 218 59-218h35" id="aF"/><path d="M143 0L79-87 56-68V0H24v-261h32v163l83-92h37l-77 82L181 0h-38" id="aG"/><g id="z"><use transform="matrix(0.05,0,0,0.05,0,0)" xlink:href="#aF"/><use transform="matrix(0.05,0,0,0.05,16.599999999999998,0)" xlink:href="#ac"/><use transform="matrix(0.05,0,0,0.05,26.599999999999994,0)" xlink:href="#aA"/><use transform="matrix(0.05,0,0,0.05,32.55,0)" xlink:href="#aG"/></g><path d="M24-248c120-7 223 5 221 122C244-46 201 0 124 0H24v-248zM76-40c74 7 117-18 117-86 0-67-45-88-117-82v168" id="aH"/><path d="M185-48c-13 30-37 53-82 52C43 2 14-33 14-96s30-98 90-98c62 0 83 45 84 108H66c0 31 8 55 39 56 18 0 30-7 34-22zm-45-69c5-46-57-63-70-21-2 6-4 13-4 21h74" id="aI"/><path d="M128 0H69L1-190h53L99-40l48-150h52" id="aJ"/><path d="M25 0v-261h50V0H25" id="aK"/><path d="M110-194c64 0 96 36 96 99 0 64-35 99-97 99-61 0-95-36-95-99 0-62 34-99 96-99zm-1 164c35 0 45-28 45-65 0-40-10-65-43-65-34 0-45 26-45 65 0 36 10 65 43 65" id="aL"/><path d="M135-194c53 0 70 44 70 98 0 56-19 98-73 100-31 1-45-17-59-34 3 33 2 69 2 105H25l-1-265h48c2 10 0 23 3 31 11-24 29-35 60-35zM114-30c33 0 39-31 40-66 0-38-9-64-40-64-56 0-55 130 0 130" id="aM"/><path d="M135-150c-39-12-60 13-60 57V0H25l-1-190h47c2 13-1 29 3 40 6-28 27-53 61-41v41" id="aN"/><g id="A"><use transform="matrix(0.05,0,0,0.05,0,0)" xlink:href="#aH"/><use transform="matrix(0.05,0,0,0.05,12.950000000000001,0)" xlink:href="#aI"/><use transform="matrix(0.05,0,0,0.05,22.950000000000003,0)" xlink:href="#aJ"/><use transform="matrix(0.05,0,0,0.05,32.95,0)" xlink:href="#aI"/><use transform="matrix(0.05,0,0,0.05,42.95,0)" xlink:href="#aK"/><use transform="matrix(0.05,0,0,0.05,47.95,0)" xlink:href="#aL"/><use transform="matrix(0.05,0,0,0.05,58.900000000000006,0)" xlink:href="#aM"/><use transform="matrix(0.05,0,0,0.05,69.85000000000001,0)" xlink:href="#aI"/><use transform="matrix(0.05,0,0,0.05,79.85000000000001,0)" xlink:href="#aN"/></g><path d="M275 0h-61l-44-196L126 0H64L0-248h53L97-49l45-199h58l43 199 44-199h52" id="aO"/><path d="M147 0L96-86 75-71V0H25v-261h50v150l67-79h53l-66 74L201 0h-54" id="aP"/><path d="M137-138c1-29-70-34-71-4 15 46 118 7 119 86 1 83-164 76-172 9l43-7c4 19 20 25 44 25 33 8 57-30 24-41C81-84 22-81 20-136c-2-80 154-74 161-7" id="aQ"/><path d="M115-3C79 11 28 4 28-45v-112H4v-33h27l15-45h31v45h36v33H77v99c-1 23 16 31 38 25v30" id="aR"/><path d="M133-34C117-15 103 5 69 4 32 3 11-16 11-54c-1-60 55-63 116-61 1-26-3-47-28-47-18 1-26 9-28 27l-52-2c7-38 36-58 82-57s74 22 75 68l1 82c-1 14 12 18 25 15v27c-30 8-71 5-69-32zm-48 3c29 0 43-24 42-57-32 0-66-3-65 30 0 17 8 27 23 27" id="aS"/><path d="M25-224v-37h50v37H25zM25 0v-190h50V0H25" id="aT"/><path d="M135-194c87-1 58 113 63 194h-50c-7-57 23-157-34-157-59 0-34 97-39 157H25l-1-190h47c2 12-1 28 3 38 12-26 28-41 61-42" id="aU"/><g id="B"><use transform="matrix(0.05,0,0,0.05,0,0)" xlink:href="#aO"/><use transform="matrix(0.05,0,0,0.05,16.599999999999998,0)" xlink:href="#aL"/><use transform="matrix(0.05,0,0,0.05,27.549999999999997,0)" xlink:href="#aN"/><use transform="matrix(0.05,0,0,0.05,34.55,0)" xlink:href="#aP"/><use transform="matrix(0.05,0,0,0.05,44.55,0)" xlink:href="#aQ"/><use transform="matrix(0.05,0,0,0.05,54.54999999999999,0)" xlink:href="#aR"/><use transform="matrix(0.05,0,0,0.05,60.5,0)" xlink:href="#aS"/><use transform="matrix(0.05,0,0,0.05,70.5,0)" xlink:href="#aR"/><use transform="matrix(0.05,0,0,0.05,76.45,0)" xlink:href="#aT"/><use transform="matrix(0.05,0,0,0.05,81.45,0)" xlink:href="#aL"/><use transform="matrix(0.05,0,0,0.05,92.4,0)" xlink:href="#aU"/></g><path d="M67-125c0 54 23 88 75 88 28 0 53-7 68-21v-34h-60v-39h108v91C232-14 192 4 140 4 58 4 20-42 15-125 8-236 126-280 215-234c19 10 29 26 37 47l-47 15c-11-23-29-39-63-39-53 1-75 33-75 86" id="aV"/><g id="C"><use transform="matrix(0.05,0,0,0.05,0,0)" xlink:href="#aV"/><use transform="matrix(0.05,0,0,0.05,14,0)" xlink:href="#aT"/><use transform="matrix(0.05,0,0,0.05,19,0)" xlink:href="#aR"/></g><path d="M240-174c0 40-23 61-54 70L253 0h-59l-57-94H76V0H24v-248c93 4 217-23 216 74zM76-134c48-2 112 12 112-38 0-48-66-32-112-35v73" id="aW"/><path d="M123 10C108 53 80 86 19 72V37c35 8 53-11 59-39L3-190h52l48 148c12-52 28-100 44-148h51" id="aX"/><g id="D"><use transform="matrix(0.05,0,0,0.05,0,0)" xlink:href="#aW"/><use transform="matrix(0.05,0,0,0.05,12.950000000000001,0)" xlink:href="#aI"/><use transform="matrix(0.05,0,0,0.05,22.950000000000003,0)" xlink:href="#aM"/><use transform="matrix(0.05,0,0,0.05,33.900000000000006,0)" xlink:href="#aL"/><use transform="matrix(0.05,0,0,0.05,44.85000000000001,0)" xlink:href="#aQ"/><use transform="matrix(0.05,0,0,0.05,54.85,0)" xlink:href="#aT"/><use transform="matrix(0.05,0,0,0.05,59.85,0)" xlink:href="#aR"/><use transform="matrix(0.05,0,0,0.05,65.80000000000001,0)" xlink:href="#aL"/><use transform="matrix(0.05,0,0,0.05,76.75000000000001,0)" xlink:href="#aN"/><use transform="matrix(0.05,0,0,0.05,83.75000000000001,0)" xlink:href="#aX"/></g><path d="M67-125c0 53 21 87 73 88 37 1 54-22 65-47l45 17C233-25 199 4 140 4 58 4 20-42 15-125 8-235 124-281 211-232c18 10 29 29 36 50l-46 12c-8-25-30-41-62-41-52 0-71 34-72 86" id="aY"/><path d="M85 4C-2 5 27-109 22-190h50c7 57-23 150 33 157 60-5 35-97 40-157h50l1 190h-47c-2-12 1-28-3-38-12 25-28 42-61 42" id="aZ"/><g id="E"><use transform="matrix(0.05,0,0,0.05,0,0)" xlink:href="#aY"/><use transform="matrix(0.05,0,0,0.05,12.950000000000001,0)" xlink:href="#aL"/><use transform="matrix(0.05,0,0,0.05,23.900000000000002,0)" xlink:href="#aU"/><use transform="matrix(0.05,0,0,0.05,34.85,0)" xlink:href="#aR"/><use transform="matrix(0.05,0,0,0.05,40.800000000000004,0)" xlink:href="#aT"/><use transform="matrix(0.05,0,0,0.05,45.800000000000004,0)" xlink:href="#aU"/><use transform="matrix(0.05,0,0,0.05,56.75,0)" xlink:href="#aZ"/><use transform="matrix(0.05,0,0,0.05,67.7,0)" xlink:href="#aL"/><use transform="matrix(0.05,0,0,0.05,78.65,0)" xlink:href="#aZ"/><use transform="matrix(0.05,0,0,0.05,89.60000000000001,0)" xlink:href="#aQ"/></g><path d="M24 0v-248h52V0H24" id="ba"/><path d="M195-6C206 82 75 100 31 46c-4-6-6-13-8-21l49-6c3 16 16 24 34 25 40 0 42-37 40-79-11 22-30 35-61 35-53 0-70-43-70-97 0-56 18-96 73-97 30 0 46 14 59 34l2-30h47zm-90-29c32 0 41-27 41-63 0-35-9-62-40-62-32 0-39 29-40 63 0 36 9 62 39 62" id="bb"/><g id="F"><use transform="matrix(0.05,0,0,0.05,0,0)" xlink:href="#ba"/><use transform="matrix(0.05,0,0,0.05,5,0)" xlink:href="#aU"/><use transform="matrix(0.05,0,0,0.05,15.950000000000001,0)" xlink:href="#aR"/><use transform="matrix(0.05,0,0,0.05,21.900000000000002,0)" xlink:href="#aI"/><use transform="matrix(0.05,0,0,0.05,31.900000000000002,0)" xlink:href="#bb"/><use transform="matrix(0.05,0,0,0.05,42.85,0)" xlink:href="#aN"/><use transform="matrix(0.05,0,0,0.05,49.85,0)" xlink:href="#aS"/><use transform="matrix(0.05,0,0,0.05,59.85,0)" xlink:href="#aR"/><use transform="matrix(0.05,0,0,0.05,65.8,0)" xlink:href="#aT"/><use transform="matrix(0.05,0,0,0.05,70.8,0)" xlink:href="#aL"/><use transform="matrix(0.05,0,0,0.05,81.75,0)" xlink:href="#aU"/></g><path d="M169-182c-1-43-94-46-97-3 18 66 151 10 154 114 3 95-165 93-204 36-6-8-10-19-12-30l50-8c3 46 112 56 116 5-17-69-150-10-154-114-4-87 153-88 188-35 5 8 8 18 10 28" id="bc"/><g id="G"><use transform="matrix(0.05,0,0,0.05,0,0)" xlink:href="#bc"/><use transform="matrix(0.05,0,0,0.05,12,0)" xlink:href="#aI"/><use transform="matrix(0.05,0,0,0.05,22,0)" xlink:href="#aN"/><use transform="matrix(0.05,0,0,0.05,29,0)" xlink:href="#aJ"/><use transform="matrix(0.05,0,0,0.05,39,0)" xlink:href="#aI"/><use transform="matrix(0.05,0,0,0.05,49,0)" xlink:href="#aN"/></g><path d="M33 0v-248h34V0H33" id="bd"/><g id="H"><use transform="matrix(0.05,0,0,0.05,0,0)" xlink:href="#bd"/><use transform="matrix(0.05,0,0,0.05,5,0)" xlink:href="#at"/><use transform="matrix(0.05,0,0,0.05,15,0)" xlink:href="#af"/><use transform="matrix(0.05,0,0,0.05,20,0)" xlink:href="#ag"/><use transform="matrix(0.05,0,0,0.05,30,0)" xlink:href="#au"/><use transform="matrix(0.05,0,0,0.05,40,0)" xlink:href="#aA"/><use transform="matrix(0.05,0,0,0.05,45.95,0)" xlink:href="#ao"/><use transform="matrix(0.05,0,0,0.05,55.95,0)" xlink:href="#af"/><use transform="matrix(0.05,0,0,0.05,60.95,0)" xlink:href="#ae"/><use transform="matrix(0.05,0,0,0.05,64.9,0)" xlink:href="#ac"/><use transform="matrix(0.05,0,0,0.05,74.9,0)" xlink:href="#at"/></g><g id="I"><use transform="matrix(0.05,0,0,0.05,0,0)" xlink:href="#al"/><use transform="matrix(0.05,0,0,0.05,12,0)" xlink:href="#am"/><use transform="matrix(0.05,0,0,0.05,22,0)" xlink:href="#ae"/><use transform="matrix(0.05,0,0,0.05,25.950000000000003,0)" xlink:href="#aj"/><use transform="matrix(0.05,0,0,0.05,29.899999999999995,0)" xlink:href="#ah"/></g><path d="M158-156l-14 65h45v19h-49L124 0h-19l15-72H56L41 0H22l15-72H2v-19h39l14-65H11v-19h48l15-71h20l-16 71h64l16-71h19l-16 71h37v19h-40zm-83 0L61-91h63l14-65H75" id="be"/><path d="M27 0v-27h64v-190l-56 39v-29l58-41h29v221h61V0H27" id="bf"/><g id="J"><use transform="matrix(0.05,0,0,0.05,0,0)" xlink:href="#be"/><use transform="matrix(0.05,0,0,0.05,10,0)" xlink:href="#bf"/></g><path d="M101-251c82-7 93 87 43 132L82-64C71-53 59-42 53-27h129V0H18c2-99 128-94 128-182 0-28-16-43-45-43s-46 15-49 41l-32-3c6-41 34-60 81-64" id="bg"/><g id="K"><use transform="matrix(0.05,0,0,0.05,0,0)" xlink:href="#be"/><use transform="matrix(0.05,0,0,0.05,10,0)" xlink:href="#bg"/></g><path d="M24-248c93 1 206-16 204 79-1 75-69 88-152 82V0H24v-248zm52 121c47 0 100 7 100-41 0-47-54-39-100-39v80" id="bh"/><path d="M190-63c-7 42-38 67-86 67-59 0-84-38-90-98-12-110 154-137 174-36l-49 2c-2-19-15-32-35-32-30 0-35 28-38 64-6 74 65 87 74 30" id="bi"/><g id="L"><use transform="matrix(0.05,0,0,0.05,0,0)" xlink:href="#bh"/><use transform="matrix(0.05,0,0,0.05,12,0)" xlink:href="#aS"/><use transform="matrix(0.05,0,0,0.05,22,0)" xlink:href="#bi"/><use transform="matrix(0.05,0,0,0.05,32,0)" xlink:href="#aP"/><use transform="matrix(0.05,0,0,0.05,42,0)" xlink:href="#aS"/><use transform="matrix(0.05,0,0,0.05,52,0)" xlink:href="#bb"/><use transform="matrix(0.05,0,0,0.05,62.95,0)" xlink:href="#aI"/></g><g id="M"><use transform="matrix(0.05,0,0,0.05,0,0)" xlink:href="#aW"/><use transform="matrix(0.05,0,0,0.05,12.950000000000001,0)" xlink:href="#aI"/><use transform="matrix(0.05,0,0,0.05,22.950000000000003,0)" xlink:href="#bb"/><use transform="matrix(0.05,0,0,0.05,33.900000000000006,0)" xlink:href="#aT"/><use transform="matrix(0.05,0,0,0.05,38.900000000000006,0)" xlink:href="#aQ"/><use transform="matrix(0.05,0,0,0.05,48.900000000000006,0)" xlink:href="#aR"/><use transform="matrix(0.05,0,0,0.05,54.85,0)" xlink:href="#aN"/><use transform="matrix(0.05,0,0,0.05,61.85,0)" xlink:href="#aX"/></g><g id="N"><use transform="matrix(0.05,0,0,0.05,0,0)" xlink:href="#av"/><use transform="matrix(0.05,0,0,0.05,12,0)" xlink:href="#ao"/><use transform="matrix(0.05,0,0,0.05,22,0)" xlink:href="#ar"/><use transform="matrix(0.05,0,0,0.05,31,0)" xlink:href="#aG"/><use transform="matrix(0.05,0,0,0.05,40,0)" xlink:href="#ao"/><use transform="matrix(0.05,0,0,0.05,50,0)" xlink:href="#au"/><use transform="matrix(0.05,0,0,0.05,60,0)" xlink:href="#ag"/></g><path d="M137 0h-34L2-248h35l83 218 83-218h36" id="bj"/><g id="O"><use transform="matrix(0.05,0,0,0.05,0,0)" xlink:href="#bj"/><use transform="matrix(0.05,0,0,0.05,11,0)" xlink:href="#ag"/><use transform="matrix(0.05,0,0,0.05,21,0)" xlink:href="#aA"/><use transform="matrix(0.05,0,0,0.05,26.950000000000003,0)" xlink:href="#ak"/><use transform="matrix(0.05,0,0,0.05,35.95,0)" xlink:href="#ae"/><use transform="matrix(0.05,0,0,0.05,39.900000000000006,0)" xlink:href="#ac"/><use transform="matrix(0.05,0,0,0.05,49.900000000000006,0)" xlink:href="#at"/></g><path d="M195 0l-74-108L45 0H8l94-129-87-119h37l69 98 67-98h37l-84 118L233 0h-38" id="bk"/><path d="M33 0v-38h34V0H33" id="bl"/><path d="M137-103V0h-34v-103L8-248h37l75 118 75-118h37" id="bm"/><path d="M209 0H11v-25l151-195H24v-28h176v25L50-27h159V0" id="bn"/><g id="P"><use transform="matrix(0.05,0,0,0.05,0,0)" xlink:href="#bk"/><use transform="matrix(0.05,0,0,0.05,12,0)" xlink:href="#bl"/><use transform="matrix(0.05,0,0,0.05,17,0)" xlink:href="#bm"/><use transform="matrix(0.05,0,0,0.05,26.700000000000003,0)" xlink:href="#bl"/><use transform="matrix(0.05,0,0,0.05,31.700000000000003,0)" xlink:href="#bn"/></g><g id="Q"><use transform="matrix(0.05,0,0,0.05,0,0)" xlink:href="#bk"/><use transform="matrix(0.05,0,0,0.05,12,0)" xlink:href="#bl"/><use transform="matrix(0.05,0,0,0.05,17,0)" xlink:href="#bm"/><use transform="matrix(0.05,0,0,0.05,26.700000000000003,0)" xlink:href="#bl"/><use transform="matrix(0.05,0,0,0.05,31.700000000000003,0)" xlink:href="#bn"/></g><path d="M118-107v75H92v-75H18v-26h74v-75h26v75h74v26h-74" id="bo"/><use transform="matrix(0.05,0,0,0.05,0,0)" xlink:href="#bo" id="R"/><use transform="matrix(0.05,0,0,0.05,0,0)" xlink:href="#bf" id="S"/></defs></g></svg>