<svg xmlns="http://www.w3.org/2000/svg" xmlns:xlink="http://www.w3.org/1999/xlink" xmlns:lucid="lucid" width="928" height="448"><g transform="translate(-60 -60)" lucid:page-tab-id="0_0"><path d="M0 0h1760v1360H0z" fill="#fff"/><path d="M546.46 131.1L520.1 85.8c-2.05-3.64-5.64-5.7-9.86-5.8h-52.48c-4.22.1-7.8 2.16-9.86 5.8l-26.36 45.18c-2.05 3.53-2.05 7.62 0 11.26l26.36 45.52c2.05 3.75 5.5 5.92 9.86 6.03h52.48c4.22-.12 7.8-2.3 9.86-6.04l26.36-45.18c2.05-3.75 2.05-7.85 0-11.5z" stroke="#000" stroke-opacity="0" fill="#4285f4"/><path d="M509.6 121.46l-25.6-11.3-24.5 13.22-1 29 41.8 41.38h10.03c4.2-.17 7.8-2.34 9.87-6.02l20.56-35.44z" stroke="#000" stroke-opacity="0" fill-opacity=".07"/><path d="M508.95 121.07l-23.6-13.56c-.88-.46-1.83-.46-2.72 0l-23.6 13.57c-.9.47-1.37 1.3-1.37 2.32v26.98c0 1 .48 1.84 1.37 2.32l23.6 13.55c.9.48 1.84.48 2.73 0l23.6-13.55c.9-.48 1.36-1.3 1.36-2.32v-27c0-1-.47-1.84-1.37-2.3zm-3.2 26.75l-8.22-4.76v-12.42l-12.22 6.96v13.97l10.86-6.2 8.27 4.7L484 161.74l-20.44-11.65 8.27-4.7 10.85 6.2v-13.93l-12.22-6.95v12.36l-8.2 4.76v-23.36l20.42-11.72v9.46l-10.85 6.24 12.16 6.9 12.16-6.9-10.85-6.24v-9.46l20.44 11.72v23.36z" stroke="#000" stroke-opacity="0" fill="#fff"/><use xlink:href="#a" transform="matrix(1,0,0,1,420,198.79000000000002) translate(39.55 14.4)"/><use xlink:href="#b" transform="matrix(1,0,0,1,420,198.79000000000002) translate(37.55 36)"/><path d="M886.46 131.1L860.1 85.8c-2.05-3.64-5.64-5.7-9.86-5.8h-52.48c-4.22.1-7.8 2.16-9.86 5.8l-26.36 45.18c-2.05 3.53-2.05 7.62 0 11.26l26.36 45.52c2.05 3.75 5.5 5.92 9.86 6.03h52.48c4.22-.12 7.8-2.3 9.86-6.04l26.36-45.18c2.05-3.75 2.05-7.85 0-11.5z" stroke="#000" stroke-opacity="0" fill="#4285f4"/><path d="M849.6 121.46l-25.6-11.3-24.5 13.22-1 29 41.8 41.38h10.03c4.2-.17 7.8-2.34 9.87-6.02l20.56-35.44z" stroke="#000" stroke-opacity="0" fill-opacity=".07"/><path d="M848.95 121.07l-23.6-13.56c-.88-.46-1.83-.46-2.72 0l-23.6 13.57c-.9.47-1.37 1.3-1.37 2.32v26.98c0 1 .48 1.84 1.37 2.32l23.6 13.55c.9.48 1.84.48 2.73 0l23.6-13.55c.9-.48 1.36-1.3 1.36-2.32v-27c0-1-.47-1.84-1.37-2.3zm-3.2 26.75l-8.22-4.76v-12.42l-12.22 6.96v13.97l10.86-6.2 8.27 4.7L824 161.74l-20.44-11.65 8.27-4.7 10.85 6.2v-13.93l-12.22-6.95v12.36l-8.2 4.76v-23.36l20.42-11.72v9.46l-10.85 6.24 12.16 6.9 12.16-6.9-10.85-6.24v-9.46l20.44 11.72v23.36z" stroke="#000" stroke-opacity="0" fill="#fff"/><use xlink:href="#a" transform="matrix(1,0,0,1,760,198.79000000000002) translate(39.55 14.4)"/><use xlink:href="#c" transform="matrix(1,0,0,1,760,198.79000000000002) translate(34.55 36)"/><path d="M206.46 131.1L180.1 85.8c-2.05-3.64-5.64-5.7-9.86-5.8h-52.48c-4.22.1-7.8 2.16-9.86 5.8l-26.36 45.18c-2.05 3.53-2.05 7.62 0 11.26l26.36 45.52c2.05 3.75 5.5 5.92 9.86 6.03h52.48c4.22-.12 7.8-2.3 9.86-6.04l26.36-45.18c2.05-3.75 2.05-7.85 0-11.5z" stroke="#000" stroke-opacity="0" fill="#4285f4"/><path d="M163.98 119l-19.34-6.6-20.4 15.3L137 140.3l-12.84 1.3 12.02 11.9-12.17 1.45 39.23 38.8h7.02c4.23-.15 7.8-2.27 9.83-6l19.5-33.53z" stroke="#000" stroke-opacity="0" fill-opacity=".07"/><path d="M144 107.43l-20 11.44v8.83l20 11.4 19.98-11.4v-8.83zm11.95 15.7L144 129.96l-11.92-6.8 11.9-6.85 11.97 6.84z" stroke="#000" stroke-opacity="0" fill="#fff"/><path d="M124 132.68v8.83l20 11.44 19.98-11.43v-8.82l-20 11.42-19.97-11.42z" stroke="#000" stroke-opacity="0" fill="#fff"/><path d="M124 146.07v8.83l20 11.43 19.98-11.43v-8.83l-20 11.43-19.97-11.43z" stroke="#000" stroke-opacity="0" fill="#fff"/><use xlink:href="#d" transform="matrix(1,0,0,1,80,198.79000000000002) translate(24.574999999999996 14.4)"/><use xlink:href="#e" transform="matrix(1,0,0,1,80,198.79000000000002) translate(78.475 14.4)"/><g filter="url(#f)"><path d="M590 362c0-1.1.9-2 2-2h84c1.1 0 2 .9 2 2v124c0 1.1-.9 2-2 2h-84c-1.1 0-2-.9-2-2z" fill="#fff"/><path d="M634 389v-12h-30v54h60v-42zm-18 36h-6v-6h6zm0-12h-6v-6h6zm0-12h-6v-6h6zm0-12h-6v-6h6zm12 36h-6v-6h6zm0-12h-6v-6h6zm0-12h-6v-6h6zm0-12h-6v-6h6zm30 36h-24v-6h6v-6h-6v-6h6v-6h-6v-6h24zm-6-24h-6v6h6zm0 12h-6v6h6z" fill="#757575"/><use xlink:href="#g" transform="matrix(1,0,0,1,590,441) translate(23.49441748046875 28.05751953125)"/></g><g filter="url(#f)"><path d="M300 362c0-1.1.9-2 2-2h84c1.1 0 2 .9 2 2v124c0 1.1-.9 2-2 2h-84c-1.1 0-2-.9-2-2z" fill="#fff"/><path d="M320 386h54v-6h-54c-1.65 0-3.07.6-4.25 1.76-1.17 1.17-1.75 2.58-1.75 4.24v33h-6v9h42v-9h-30zm57 6h-18c-.83 0-1.54.3-2.12.88-.58.58-.88 1.3-.88 2.12v30c0 .83.3 1.54.88 2.12.58.6 1.3.88 2.12.88h18c.83 0 1.54-.3 2.12-.88.6-.58.88-1.3.88-2.12v-30c0-.83-.3-1.54-.88-2.12-.58-.6-1.3-.88-2.12-.88zm-3 27h-12v-21h12z" fill="#757575"/><use xlink:href="#h" transform="matrix(1,0,0,1,300,441) translate(11.768570800781255 20.24462890625)"/><use xlink:href="#i" transform="matrix(1,0,0,1,300,441) translate(30.451145507812498 35.87041015625)"/></g><path d="M260.6 137.9h-34.14v-2h34.14zm158.45 0H367.4v-2h51.65z"/><path d="M420 136.54l.18 1.36h-1.16v-2h1.07zM225.46 141.53l-14.27-4.63 14.26-4.64z"/><path d="M226.46 142.9l-18.5-6 18.5-6.02zm-12.03-6l10.03 3.25v-6.5z"/><use xlink:href="#j" transform="matrix(1,0,0,1,260.6013819581693,104.495) translate(0.005000000000002558 14.4)"/><use xlink:href="#k" transform="matrix(1,0,0,1,260.6013819581693,104.495) translate(38.40500000000001 36)"/><use xlink:href="#l" transform="matrix(1,0,0,1,260.6013819581693,104.495) translate(25.480000000000004 57.6)"/><path d="M591.13 171.6h-60v-2h60zm168.34 0h-42.5v-2h42.5z"/><path d="M531.16 171.6h-1.6l1.16-2h.44zM774.74 170.6l-14.27 4.65v-9.27z"/><path d="M777.97 170.6l-18.5 6.03V164.6zm-16.5 3.27l10.03-3.26-10.03-3.24z"/><use xlink:href="#m" transform="matrix(1,0,0,1,591.1286766236652,159.81411792860905) translate(0 14.4)"/><use xlink:href="#n" transform="matrix(1,0,0,1,591.1286766236652,159.81411792860905) translate(42.95 14.4)"/><use xlink:href="#o" transform="matrix(1,0,0,1,591.1286766236652,159.81411792860905) translate(87.85 14.4)"/><path d="M589 106.47h-38.95v-2H589zm186.42 0H719v-2h56.42z"/><path d="M775.84 106.47h-.44v-2h1.6zM549.05 110.1l-14.27-4.63 14.27-4.64z"/><path d="M550.05 111.48l-18.5-6 18.5-6.02zm-12.03-6l10.03 3.25v-6.52z"/><use xlink:href="#p" transform="matrix(1,0,0,1,588.9855789934675,94.66974376700104) translate(0 14.4)"/><use xlink:href="#q" transform="matrix(1,0,0,1,588.9855789934675,94.66974376700104) translate(56 14.4)"/><use xlink:href="#r" transform="matrix(1,0,0,1,588.9855789934675,94.66974376700104) translate(91 14.4)"/><path d="M539.6 380.3l.87 4.1.9 3.52.92 3.05.92 2.7.95 2.38.96 2.16.97 1.97.98 1.8 1 1.63 1 1.52 1.04 1.42 1.05 1.32 1.07 1.24 1.1 1.17 1.12 1.1 1.16 1.05 1.2 1 1.24.94 1.3.9 1.35.85 1.43.83 1.5.78 1.57.75 1.67.7 1.8.67 1.9.62 2.07.58 2.24.52 2.44.47 2.68.4 2.97.32 3.3.2 2.75.06-.04 2-2.8-.06-3.38-.2-3.05-.33-2.76-.42-2.54-.48-2.32-.54-2.14-.6-2-.65-1.87-.68-1.75-.74-1.65-.78-1.57-.82-1.5-.86-1.4-.9-1.37-.95-1.32-1-1.27-1.04-1.2-1.1-1.2-1.16-1.15-1.23-1.13-1.3-1.1-1.4-1.07-1.47-1.06-1.6-1.05-1.7-1.02-1.88-1-2.04-1-2.23-.98-2.48-.97-2.76-.94-3.15-.92-3.6-.9-4.18-.07-.46h2.03zm-13.07-168.53l1.8 5.17 1.7 5.66 1.6 6.27 1.5 7.03 1.36 8.06 1.18 9.45.96 11.65.13 50.36h-2l-.13-50.27-.95-11.5-1.2-9.38-1.34-7.97-1.47-6.96-1.6-6.2-1.68-5.57-1.77-5.08-1.37-3.48 1.86-.74z"/><path d="M590 423v2l-1.05-.02.04-2zM527.9 205.66l-8.27 4.2-2.3-14.83z"/><path d="M529.58 205.93l-10.73 5.43-3-19.22zm-9.17 2.4l5.82-2.94-7.44-7.5z"/><use xlink:href="#s" transform="matrix(1,0,0,1,493.55415367385734,315.41488360341896) translate(0.005000000000002558 14.4)"/><use xlink:href="#t" transform="matrix(1,0,0,1,493.55415367385734,315.41488360341896) translate(3.8299999999999983 36)"/><use xlink:href="#u" transform="matrix(1,0,0,1,493.55415367385734,315.41488360341896) translate(34.78 36)"/><use xlink:href="#v" transform="matrix(1,0,0,1,493.55415367385734,315.41488360341896) translate(5.354999999999997 57.6)"/><use xlink:href="#w" transform="matrix(1,0,0,1,493.55415367385734,315.41488360341896) translate(44.305 57.6)"/><path d="M668.42 290.94l-4.18 3.6-3.54 3.34-3.08 3.14-2.72 3.02-2.4 2.93-2.2 2.86-1.95 2.83-1.8 2.82-1.62 2.83-1.5 2.86-1.35 2.9-1.24 2.95-1.12 3.04-1.02 3.13-.9 3.25-.8 3.4-.37 1.97-1.96-.4.38-2 .8-3.48.94-3.33 1.03-3.22 1.15-3.1 1.28-3.04 1.4-2.97 1.52-2.92 1.67-2.9 1.83-2.9 2-2.9 2.24-2.93 2.47-3 2.76-3.06 3.14-3.2 3.6-3.4 3.75-3.24h3.17zm124.02-97.4l-2.5 3.92-3.24 4.7-3.5 4.62-3.8 4.6-4.16 4.6-4.57 4.68-5.1 4.8-5.8 5-6.75 5.36-8.3 6.02-7.2 4.78h-3.62l9.68-6.42 8.23-5.98 6.7-5.3 5.73-4.95 5.04-4.74 4.5-4.6 4.1-4.56 3.75-4.53 3.46-4.57 3.2-4.62 2.47-3.88z"/><path d="M792.98 192.68l-.56.88-1.7-1.07.55-.86zM640.18 342.98l-5.9 13.8-3.33-14.63z"/><path d="M641.64 342.1L634 360l-4.34-18.96zm-7.06 11.45l4.14-9.7-6.5-.58z"/><use xlink:href="#x" transform="matrix(1,0,0,1,659.8531961798811,246.62474199780056) translate(0.005000000000002558 14.4)"/><use xlink:href="#y" transform="matrix(1,0,0,1,659.8531961798811,246.62474199780056) translate(51.90500000000001 14.4)"/><use xlink:href="#z" transform="matrix(1,0,0,1,659.8531961798811,246.62474199780056) translate(20.455000000000005 36)"/><path d="M349.76 325.94l-1.18 4.24-1.03 4.38-.86 4.54-.72 4.76-.52 5.03-.34 5.35-.1 4.77-2-.04.1-4.82.34-5.43.54-5.12.7-4.83.9-4.63 1.04-4.45 1.2-4.34.8-2.42h2.1zm92.9-117.8l-5.74 7.57-7.2 8.72-45.85 47.45-7.1 7.87h-2.63l.73-.88 7.54-8.35 45.82-47.42 7.13-8.6 5.72-7.54z"/><path d="M345.02 359l-.02 1h-2l.02-1.05zM446.27 209.3l-7.7-5.15 11.76-9.3z"/><path d="M446.86 210.9l-10-6.68 15.27-12.06zm-6.6-6.82l5.42 3.62 2.86-10.16z"/><g><use xlink:href="#A" transform="matrix(1,0,0,1,312.3505706945655,279.73751949398775) translate(0.005000000000002558 14.4)"/><use xlink:href="#B" transform="matrix(1,0,0,1,312.3505706945655,279.73751949398775) translate(43.55500000000001 14.4)"/><use xlink:href="#C" transform="matrix(1,0,0,1,312.3505706945655,279.73751949398775) translate(10.280000000000008 36)"/><use xlink:href="#r" transform="matrix(1,0,0,1,312.3505706945655,279.73751949398775) translate(45.28000000000001 36)"/></g><g filter="url(#f)"><path d="M880 362c0-1.1.9-2 2-2h84c1.1 0 2 .9 2 2v124c0 1.1-.9 2-2 2h-84c-1.1 0-2-.9-2-2z" fill="#fff"/><path d="M915 377h33v9h-33zm0 15h33v9h-33zm0 15h33v9h-33zm0 15h33v9h-33zm-15-45h9v9h-9zm0 15h9v9h-9zm0 15h9v9h-9zm0 15h9v9h-9z" fill="#757575"/><use xlink:href="#D" transform="matrix(1,0,0,1,880,441) translate(6.26699365234375 28.05751953125)"/><use xlink:href="#E" transform="matrix(1,0,0,1,880,441) translate(50.865577636718754 28.05751953125)"/></g><path d="M920.13 313.37l1.54 7.56 1.28 7.92 1 8.45.3 4.14-2 .15-.3-4.1-.98-8.37-1.27-7.84-1.52-7.5-1.02-4.07h2.06zm-23.45-58l6.04 11.16h-2.28l-5.5-10.16-39.4-62.85 1.7-1.06z"/><path d="M857.25 192.48l-1.7 1.06-.54-.87 1.7-1.06zM923.87 356.77l-5.2-14.07 9.26-.37z"/><path d="M924 360l-6.75-18.25 12.02-.48zm-3.92-16.36l3.66 9.9 2.86-10.16z"/><g><use xlink:href="#F" transform="matrix(1,0,0,1,873.8831616399773,266.5251062517307) translate(0.005000000000002558 14.4)"/><use xlink:href="#y" transform="matrix(1,0,0,1,873.8831616399773,266.5251062517307) translate(44.905 14.4)"/><use xlink:href="#G" transform="matrix(1,0,0,1,873.8831616399773,266.5251062517307) translate(8.480000000000004 36)"/></g><path d="M753.02 421H679v-2h74.02zm108.48 0h-56.52v-2h56.52z"/><path d="M679.03 421H678v-2h1.03zM876.76 420l-14.26 4.64v-9.28z"/><path d="M880 420l-18.5 6v-12zm-16.5 3.26l10.03-3.26-10.03-3.26z"/><g><use xlink:href="#H" transform="matrix(1,0,0,1,753.025,409.2) translate(0 14.4)"/></g><defs><path d="M30-248c118-7 216 8 213 122C240-48 200 0 122 0H30v-248zM63-27c89 8 146-16 146-99s-60-101-146-95v194" id="I"/><path d="M114-163C36-179 61-72 57 0H25l-1-190h30c1 12-1 29 2 39 6-27 23-49 58-41v29" id="J"/><path d="M100-194c62-1 85 37 85 99 1 63-27 99-86 99S16-35 15-95c0-66 28-99 85-99zM99-20c44 1 53-31 53-75 0-43-8-75-51-75s-53 32-53 75 10 74 51 75" id="K"/><path d="M117-194c89-4 53 116 60 194h-32v-121c0-31-8-49-39-48C34-167 62-67 57 0H25l-1-190h30c1 10-1 24 2 32 11-22 29-35 61-36" id="L"/><path d="M100-194c63 0 86 42 84 106H49c0 40 14 67 53 68 26 1 43-12 49-29l28 8c-11 28-37 45-77 45C44 4 14-33 15-96c1-61 26-98 85-98zm52 81c6-60-76-77-97-28-3 7-6 17-6 28h103" id="M"/><g id="a"><use transform="matrix(0.05,0,0,0.05,0,0)" xlink:href="#I"/><use transform="matrix(0.05,0,0,0.05,12.950000000000001,0)" xlink:href="#J"/><use transform="matrix(0.05,0,0,0.05,18.900000000000002,0)" xlink:href="#K"/><use transform="matrix(0.05,0,0,0.05,28.900000000000002,0)" xlink:href="#L"/><use transform="matrix(0.05,0,0,0.05,38.900000000000006,0)" xlink:href="#M"/></g><path d="M185-189c-5-48-123-54-124 2 14 75 158 14 163 119 3 78-121 87-175 55-17-10-28-26-33-46l33-7c5 56 141 63 141-1 0-78-155-14-162-118-5-82 145-84 179-34 5 7 8 16 11 25" id="N"/><path d="M108 0H70L1-190h34L89-25l56-165h34" id="O"/><g id="b"><use transform="matrix(0.05,0,0,0.05,0,0)" xlink:href="#N"/><use transform="matrix(0.05,0,0,0.05,12,0)" xlink:href="#M"/><use transform="matrix(0.05,0,0,0.05,22,0)" xlink:href="#J"/><use transform="matrix(0.05,0,0,0.05,27.950000000000003,0)" xlink:href="#O"/><use transform="matrix(0.05,0,0,0.05,36.95,0)" xlink:href="#M"/><use transform="matrix(0.05,0,0,0.05,46.95,0)" xlink:href="#J"/></g><path d="M233-177c-1 41-23 64-60 70L243 0h-38l-65-103H63V0H30v-248c88 3 205-21 203 71zM63-129c60-2 137 13 137-47 0-61-80-42-137-45v92" id="P"/><path d="M84 4C-5 8 30-112 23-190h32v120c0 31 7 50 39 49 72-2 45-101 50-169h31l1 190h-30c-1-10 1-25-2-33-11 22-28 36-60 37" id="Q"/><g id="c"><use transform="matrix(0.05,0,0,0.05,0,0)" xlink:href="#P"/><use transform="matrix(0.05,0,0,0.05,12.950000000000001,0)" xlink:href="#Q"/><use transform="matrix(0.05,0,0,0.05,22.950000000000003,0)" xlink:href="#L"/><use transform="matrix(0.05,0,0,0.05,32.95,0)" xlink:href="#L"/><use transform="matrix(0.05,0,0,0.05,42.95,0)" xlink:href="#M"/><use transform="matrix(0.05,0,0,0.05,52.95,0)" xlink:href="#J"/></g><g id="d"><use transform="matrix(0.05,0,0,0.05,0,0)" xlink:href="#I"/><use transform="matrix(0.05,0,0,0.05,12.950000000000001,0)" xlink:href="#J"/><use transform="matrix(0.05,0,0,0.05,18.900000000000002,0)" xlink:href="#K"/><use transform="matrix(0.05,0,0,0.05,28.900000000000002,0)" xlink:href="#L"/><use transform="matrix(0.05,0,0,0.05,38.900000000000006,0)" xlink:href="#M"/></g><path d="M160-131c35 5 61 23 61 61C221 17 115-2 30 0v-248c76 3 177-17 177 60 0 33-19 50-47 57zm-97-11c50-1 110 9 110-42 0-47-63-36-110-37v79zm0 115c55-2 124 14 124-45 0-56-70-42-124-44v89" id="R"/><g id="e"><use transform="matrix(0.05,0,0,0.05,0,0)" xlink:href="#I"/><use transform="matrix(0.05,0,0,0.05,12.950000000000001,0)" xlink:href="#R"/></g><path d="M730-137c145 0 253-29 323-105v-327H716v-156h528v534C1148-51 964 20 729 20c-394 0-598-279-607-678v-127c-5-410 194-690 585-691 310-1 499 171 537 447h-192c-36-193-151-289-344-289-285 0-393 220-393 528v119c-5 296 140 534 415 534" id="S"/><path d="M341 0H156v-1082h185V0zm-91-1264c-68 0-108-42-109-105 0-62 41-107 109-107s110 44 110 107-42 105-110 105" id="T"/><path d="M456 20C285 20 205-92 206-268v-671H9v-143h197v-262h185v262h202v143H391v671c-9 125 92 149 207 118V0c-49 13-96 20-142 20" id="U"/><path d="M1288 0h-193v-673H361V0H169v-1456h192v626h734v-626h193V0" id="V"/><path d="M491 20c-241-1-355-148-355-398v-704h185v699c0 164 67 246 200 246 141 0 235-53 282-158v-787h185V0H812l-4-107C736-22 630 20 491 20" id="W"/><path d="M634-1102c292 0 422 254 422 573 0 298-143 547-420 549-137 0-242-48-317-145L310 0H140v-1536h185v573c75-93 178-139 309-139zm-44 965c207 0 281-175 281-413 0-224-79-395-283-395-122 0-210 57-263 170v468c57 113 145 170 265 170" id="X"/><g id="g"><use transform="matrix(0.0065107421875,0,0,0.0065107421875,0,0)" xlink:href="#S"/><use transform="matrix(0.0065107421875,0,0,0.0065107421875,9.0824853515625,0)" xlink:href="#T"/><use transform="matrix(0.0065107421875,0,0,0.0065107421875,12.31832421875,0)" xlink:href="#U"/><use transform="matrix(0.0065107421875,0,0,0.0065107421875,16.674010742187498,0)" xlink:href="#V"/><use transform="matrix(0.0065107421875,0,0,0.0065107421875,26.179694335937498,0)" xlink:href="#W"/><use transform="matrix(0.0065107421875,0,0,0.0065107421875,33.530322265624996,0)" xlink:href="#X"/></g><filter id="f" filterUnits="objectBoundingBox" x="-.02" y="0" width="1.03" height="1.02"><feOffset result="offOut" in="SourceAlpha" dy="1"/><feGaussianBlur result="blurOut" in="offOut" stdDeviation=".75"/><feColorMatrix result="colorOut" in="blurOut" values="0 0 0 0 0 0 0 0 0 0 0 0 0 0 0 0 0 0 0.4 0"/><feBlend in="SourceGraphic" in2="colorOut"/></filter><path d="M1222-777c17 480-206 763-650 777H169v-1456h411c408 9 627 269 642 679zm-190 4c3-312-149-522-447-525H361v1141h202c308 0 473-209 469-531v-85" id="Y"/><path d="M561-1102c238-4 403 126 403 351v498c0 99 13 178 38 237V0H808c-11-21-19-59-26-114C696-25 593 20 474 20c-199 0-368-130-365-320 4-251 214-359 490-356h180v-85c-1-135-86-212-229-212-115 0-232 67-233 171H131c20-205 206-316 430-320zM294-326c0 117 90 185 207 185 122 0 239-75 278-162v-222H634c-227 0-340 66-340 199" id="Z"/><path d="M538-131c121 0 232-49 232-156 0-50-20-88-56-117-73-60-334-92-420-143-92-55-162-110-162-238 0-190 192-317 400-317 223 0 414 129 413 338H759c0-108-110-186-227-186-119 0-215 53-215 159 0 45 18 78 53 101 76 52 331 90 416 139 98 57 169 115 169 251C955-92 760 20 538 20c-176 0-314-68-386-174-38-55-57-115-57-179h185c6 129 116 202 258 202" id="aa"/><path d="M589-945c-131 0-219 81-264 174V0H140v-1536h185v585c82-101 189-151 320-151 229 0 346 129 346 387V0H806v-716c-2-153-65-229-217-229" id="ab"/><path d="M584 20C278 26 81-227 91-551c10-320 175-545 491-551 308-5 503 247 494 573-9 322-175 543-492 549zm-2-970c-208 0-305 185-305 421 0 216 106 398 307 398 211 0 307-186 307-420 0-214-109-399-309-399" id="ac"/><path d="M663-916c-163-27-288 18-338 148V0H140v-1082h180l3 125c61-97 147-145 258-145 36 0 63 5 82 14v172" id="ad"/><path d="M520 20C244 20 95-247 95-550c0-298 151-550 427-552 127 0 227 43 301 130v-564h185V0H838l-9-116C755-25 652 20 520 20zm48-965c-210 0-288 177-288 416 0 218 87 392 286 392 117 0 203-53 257-158v-497c-55-102-140-153-255-153" id="ae"/><g id="h"><use transform="matrix(0.0065107421875,0,0,0.0065107421875,0,0)" xlink:href="#Y"/><use transform="matrix(0.0065107421875,0,0,0.0065107421875,8.743926757812499,0)" xlink:href="#Z"/><use transform="matrix(0.0065107421875,0,0,0.0065107421875,15.9968935546875,0)" xlink:href="#aa"/><use transform="matrix(0.0065107421875,0,0,0.0065107421875,22.8722373046875,0)" xlink:href="#ab"/><use transform="matrix(0.0065107421875,0,0,0.0065107421875,30.2163544921875,0)" xlink:href="#X"/><use transform="matrix(0.0065107421875,0,0,0.0065107421875,37.697197265625,0)" xlink:href="#ac"/><use transform="matrix(0.0065107421875,0,0,0.0065107421875,45.301744140625,0)" xlink:href="#Z"/><use transform="matrix(0.0065107421875,0,0,0.0065107421875,52.5547109375,0)" xlink:href="#ad"/><use transform="matrix(0.0065107421875,0,0,0.0065107421875,56.942951171874995,0)" xlink:href="#ae"/></g><path d="M665-137c214 0 337-121 336-332v-987h193v990c-3 300-218 486-529 486-309 0-526-181-525-484v-992h190v986c-1 210 123 333 335 333" id="af"/><path d="M599-131c141 0 220-65 285-146l113 88C906-50 770 20 589 20 281 21 93-214 93-545c0-223 93-397 233-485 74-48 154-72 240-72 300 2 449 218 445 537v77H278c0 197 129 357 321 357zm227-509c-3-180-88-310-260-310-170 0-264 140-282 310h542" id="ag"/><g id="i"><use transform="matrix(0.0065107421875,0,0,0.0065107421875,0,0)" xlink:href="#af"/><use transform="matrix(0.0065107421875,0,0,0.0065107421875,8.646265625,0)" xlink:href="#aa"/><use transform="matrix(0.0065107421875,0,0,0.0065107421875,15.521609374999999,0)" xlink:href="#ag"/><use transform="matrix(0.0065107421875,0,0,0.0065107421875,22.5857646484375,0)" xlink:href="#ad"/></g><path d="M212-179c-10-28-35-45-73-45-59 0-87 40-87 99 0 60 29 101 89 101 43 0 62-24 78-52l27 14C228-24 195 4 139 4 59 4 22-46 18-125c-6-104 99-153 187-111 19 9 31 26 39 46" id="ah"/><path d="M101-234c-31-9-42 10-38 44h38v23H63V0H32v-167H5v-23h27c-7-52 17-82 69-68v24" id="ai"/><path d="M24-231v-30h32v30H24zM24 0v-190h32V0H24" id="aj"/><path d="M177-190C167-65 218 103 67 71c-23-6-38-20-44-43l32-5c15 47 100 32 89-28v-30C133-14 115 1 83 1 29 1 15-40 15-95c0-56 16-97 71-98 29-1 48 16 59 35 1-10 0-23 2-32h30zM94-22c36 0 50-32 50-73 0-42-14-75-50-75-39 0-46 34-46 75s6 73 46 73" id="ak"/><path d="M141-36C126-15 110 5 73 4 37 3 15-17 15-53c-1-64 63-63 125-63 3-35-9-54-41-54-24 1-41 7-42 31l-33-3c5-37 33-52 76-52 45 0 72 20 72 64v82c-1 20 7 32 28 27v20c-31 9-61-2-59-35zM48-53c0 20 12 33 32 33 41-3 63-29 60-74-43 2-92-5-92 41" id="al"/><path d="M59-47c-2 24 18 29 38 22v24C64 9 27 4 27-40v-127H5v-23h24l9-43h21v43h35v23H59v120" id="am"/><g id="j"><use transform="matrix(0.05,0,0,0.05,0,0)" xlink:href="#ah"/><use transform="matrix(0.05,0,0,0.05,12.950000000000001,0)" xlink:href="#K"/><use transform="matrix(0.05,0,0,0.05,22.950000000000003,0)" xlink:href="#L"/><use transform="matrix(0.05,0,0,0.05,32.95,0)" xlink:href="#ai"/><use transform="matrix(0.05,0,0,0.05,37.95,0)" xlink:href="#aj"/><use transform="matrix(0.05,0,0,0.05,41.900000000000006,0)" xlink:href="#ak"/><use transform="matrix(0.05,0,0,0.05,51.900000000000006,0)" xlink:href="#Q"/><use transform="matrix(0.05,0,0,0.05,61.900000000000006,0)" xlink:href="#J"/><use transform="matrix(0.05,0,0,0.05,67.85000000000001,0)" xlink:href="#al"/><use transform="matrix(0.05,0,0,0.05,77.85000000000001,0)" xlink:href="#am"/><use transform="matrix(0.05,0,0,0.05,82.85000000000001,0)" xlink:href="#aj"/><use transform="matrix(0.05,0,0,0.05,86.80000000000001,0)" xlink:href="#K"/><use transform="matrix(0.05,0,0,0.05,96.80000000000001,0)" xlink:href="#L"/></g><path d="M85-194c31 0 48 13 60 33l-1-100h32l1 261h-30c-2-10 0-23-3-31C134-8 116 4 85 4 32 4 16-35 15-94c0-66 23-100 70-100zm9 24c-40 0-46 34-46 75 0 40 6 74 45 74 42 0 51-32 51-76 0-42-9-74-50-73" id="an"/><g id="k"><use transform="matrix(0.05,0,0,0.05,0,0)" xlink:href="#al"/><use transform="matrix(0.05,0,0,0.05,10,0)" xlink:href="#L"/><use transform="matrix(0.05,0,0,0.05,20,0)" xlink:href="#an"/></g><path d="M197 0v-115H63V0H30v-248h33v105h134v-105h34V0h-34" id="ao"/><path d="M135-143c-3-34-86-38-87 0 15 53 115 12 119 90S17 21 10-45l28-5c4 36 97 45 98 0-10-56-113-15-118-90-4-57 82-63 122-42 12 7 21 19 24 35" id="ap"/><path d="M179-190L93 31C79 59 56 82 12 73V49c39 6 53-20 64-50L1-190h34L92-34l54-156h33" id="aq"/><g id="l"><use transform="matrix(0.05,0,0,0.05,0,0)" xlink:href="#ao"/><use transform="matrix(0.05,0,0,0.05,12.950000000000001,0)" xlink:href="#aj"/><use transform="matrix(0.05,0,0,0.05,16.900000000000002,0)" xlink:href="#ap"/><use transform="matrix(0.05,0,0,0.05,25.900000000000002,0)" xlink:href="#am"/><use transform="matrix(0.05,0,0,0.05,30.900000000000002,0)" xlink:href="#K"/><use transform="matrix(0.05,0,0,0.05,40.900000000000006,0)" xlink:href="#J"/><use transform="matrix(0.05,0,0,0.05,46.85000000000001,0)" xlink:href="#aq"/></g><g id="m"><use transform="matrix(0.05,0,0,0.05,0,0)" xlink:href="#N"/><use transform="matrix(0.05,0,0,0.05,12,0)" xlink:href="#am"/><use transform="matrix(0.05,0,0,0.05,17,0)" xlink:href="#al"/><use transform="matrix(0.05,0,0,0.05,27,0)" xlink:href="#J"/><use transform="matrix(0.05,0,0,0.05,32.95,0)" xlink:href="#am"/></g><path d="M24 0v-261h32V0H24" id="ar"/><g id="n"><use transform="matrix(0.05,0,0,0.05,0,0)" xlink:href="#R"/><use transform="matrix(0.05,0,0,0.05,12,0)" xlink:href="#Q"/><use transform="matrix(0.05,0,0,0.05,22,0)" xlink:href="#aj"/><use transform="matrix(0.05,0,0,0.05,25.950000000000003,0)" xlink:href="#ar"/><use transform="matrix(0.05,0,0,0.05,29.899999999999995,0)" xlink:href="#an"/></g><path d="M153-248C145-148 188 4 80 4 36 3 13-21 6-62l32-5c4 25 16 42 43 43 27 0 39-20 39-49v-147H72v-28h81" id="as"/><path d="M115-194c53 0 69 39 70 98 0 66-23 100-70 100C84 3 66-7 56-30L54 0H23l1-261h32v101c10-23 28-34 59-34zm-8 174c40 0 45-34 45-75 0-40-5-75-45-74-42 0-51 32-51 76 0 43 10 73 51 73" id="at"/><g id="o"><use transform="matrix(0.05,0,0,0.05,0,0)" xlink:href="#as"/><use transform="matrix(0.05,0,0,0.05,9,0)" xlink:href="#K"/><use transform="matrix(0.05,0,0,0.05,19,0)" xlink:href="#at"/><use transform="matrix(0.05,0,0,0.05,29,0)" xlink:href="#ap"/></g><g id="p"><use transform="matrix(0.05,0,0,0.05,0,0)" xlink:href="#N"/><use transform="matrix(0.05,0,0,0.05,12,0)" xlink:href="#am"/><use transform="matrix(0.05,0,0,0.05,17,0)" xlink:href="#al"/><use transform="matrix(0.05,0,0,0.05,27,0)" xlink:href="#am"/><use transform="matrix(0.05,0,0,0.05,32,0)" xlink:href="#Q"/><use transform="matrix(0.05,0,0,0.05,42,0)" xlink:href="#ap"/></g><g id="q"><use transform="matrix(0.05,0,0,0.05,0,0)" xlink:href="#al"/><use transform="matrix(0.05,0,0,0.05,10,0)" xlink:href="#L"/><use transform="matrix(0.05,0,0,0.05,20,0)" xlink:href="#an"/></g><path d="M30 0v-248h33v221h125V0H30" id="au"/><g id="r"><use transform="matrix(0.05,0,0,0.05,0,0)" xlink:href="#au"/><use transform="matrix(0.05,0,0,0.05,10,0)" xlink:href="#K"/><use transform="matrix(0.05,0,0,0.05,20,0)" xlink:href="#ak"/><use transform="matrix(0.05,0,0,0.05,30,0)" xlink:href="#ap"/></g><path d="M266 0h-40l-56-210L115 0H75L2-248h35L96-30l15-64 43-154h32l59 218 59-218h35" id="av"/><path d="M106-169C34-169 62-67 57 0H25v-261h32l-1 103c12-21 28-36 61-36 89 0 53 116 60 194h-32v-121c2-32-8-49-39-48" id="aw"/><path d="M143 0L79-87 56-68V0H24v-261h32v163l83-92h37l-77 82L181 0h-38" id="ax"/><g id="s"><use transform="matrix(0.05,0,0,0.05,0,0)" xlink:href="#av"/><use transform="matrix(0.05,0,0,0.05,16.599999999999998,0)" xlink:href="#M"/><use transform="matrix(0.05,0,0,0.05,26.599999999999994,0)" xlink:href="#at"/><use transform="matrix(0.05,0,0,0.05,36.599999999999994,0)" xlink:href="#aw"/><use transform="matrix(0.05,0,0,0.05,46.599999999999994,0)" xlink:href="#K"/><use transform="matrix(0.05,0,0,0.05,56.599999999999994,0)" xlink:href="#K"/><use transform="matrix(0.05,0,0,0.05,66.6,0)" xlink:href="#ax"/><use transform="matrix(0.05,0,0,0.05,75.6,0)" xlink:href="#ap"/></g><path d="M87 75C49 33 22-17 22-94c0-76 28-126 65-167h31c-38 41-64 92-64 168S80 34 118 75H87" id="ay"/><g id="t"><use transform="matrix(0.05,0,0,0.05,0,0)" xlink:href="#ay"/><use transform="matrix(0.05,0,0,0.05,5.95,0)" xlink:href="#K"/><use transform="matrix(0.05,0,0,0.05,15.949999999999998,0)" xlink:href="#L"/></g><path d="M30-248c87 1 191-15 191 75 0 78-77 80-158 76V0H30v-248zm33 125c57 0 124 11 124-50 0-59-68-47-124-48v98" id="az"/><path d="M68-38c1 34 0 65-14 84H32c9-13 17-26 17-46H33v-38h35" id="aA"/><g id="u"><use transform="matrix(0.05,0,0,0.05,0,0)" xlink:href="#az"/><use transform="matrix(0.05,0,0,0.05,12,0)" xlink:href="#Q"/><use transform="matrix(0.05,0,0,0.05,22,0)" xlink:href="#ap"/><use transform="matrix(0.05,0,0,0.05,31,0)" xlink:href="#aw"/><use transform="matrix(0.05,0,0,0.05,41,0)" xlink:href="#aA"/></g><path d="M127-220V0H93v-220H8v-28h204v28h-85" id="aB"/><g id="v"><use transform="matrix(0.05,0,0,0.05,0,0)" xlink:href="#aB"/><use transform="matrix(0.05,0,0,0.05,8.950000000000001,0)" xlink:href="#al"/><use transform="matrix(0.05,0,0,0.05,18.950000000000003,0)" xlink:href="#ak"/><use transform="matrix(0.05,0,0,0.05,28.950000000000003,0)" xlink:href="#aA"/></g><path d="M96-169c-40 0-48 33-48 73s9 75 48 75c24 0 41-14 43-38l32 2c-6 37-31 61-74 61-59 0-76-41-82-99-10-93 101-131 147-64 4 7 5 14 7 22l-32 3c-4-21-16-35-41-35" id="aC"/><path d="M33 0v-38h34V0H33" id="aD"/><path d="M33-261c38 41 65 92 65 168S71 34 33 75H2C39 34 66-17 66-93S39-220 2-261h31" id="aE"/><g id="w"><use transform="matrix(0.05,0,0,0.05,0,0)" xlink:href="#M"/><use transform="matrix(0.05,0,0,0.05,10,0)" xlink:href="#am"/><use transform="matrix(0.05,0,0,0.05,15,0)" xlink:href="#aC"/><use transform="matrix(0.05,0,0,0.05,24,0)" xlink:href="#aD"/><use transform="matrix(0.05,0,0,0.05,29,0)" xlink:href="#aE"/></g><g id="x"><use transform="matrix(0.05,0,0,0.05,0,0)" xlink:href="#ah"/><use transform="matrix(0.05,0,0,0.05,12.950000000000001,0)" xlink:href="#ar"/><use transform="matrix(0.05,0,0,0.05,16.900000000000002,0)" xlink:href="#K"/><use transform="matrix(0.05,0,0,0.05,26.900000000000002,0)" xlink:href="#L"/><use transform="matrix(0.05,0,0,0.05,36.900000000000006,0)" xlink:href="#M"/></g><g id="y"><use transform="matrix(0.05,0,0,0.05,0,0)" xlink:href="#al"/><use transform="matrix(0.05,0,0,0.05,10,0)" xlink:href="#L"/><use transform="matrix(0.05,0,0,0.05,20,0)" xlink:href="#an"/></g><g id="z"><use transform="matrix(0.05,0,0,0.05,0,0)" xlink:href="#az"/><use transform="matrix(0.05,0,0,0.05,12,0)" xlink:href="#Q"/><use transform="matrix(0.05,0,0,0.05,22,0)" xlink:href="#ap"/><use transform="matrix(0.05,0,0,0.05,31,0)" xlink:href="#aw"/></g><path d="M137 0h-34L2-248h35l83 218 83-218h36" id="aF"/><path d="M206 0h-36l-40-164L89 0H53L-1-190h32L70-26l43-164h34l41 164 42-164h31" id="aG"/><g id="A"><use transform="matrix(0.05,0,0,0.05,0,0)" xlink:href="#aF"/><use transform="matrix(0.05,0,0,0.05,11.65,0)" xlink:href="#aj"/><use transform="matrix(0.05,0,0,0.05,15.600000000000001,0)" xlink:href="#M"/><use transform="matrix(0.05,0,0,0.05,25.6,0)" xlink:href="#aG"/></g><g id="B"><use transform="matrix(0.05,0,0,0.05,0,0)" xlink:href="#N"/><use transform="matrix(0.05,0,0,0.05,12,0)" xlink:href="#am"/><use transform="matrix(0.05,0,0,0.05,17,0)" xlink:href="#al"/><use transform="matrix(0.05,0,0,0.05,27,0)" xlink:href="#am"/><use transform="matrix(0.05,0,0,0.05,32,0)" xlink:href="#Q"/><use transform="matrix(0.05,0,0,0.05,42,0)" xlink:href="#ap"/></g><g id="C"><use transform="matrix(0.05,0,0,0.05,0,0)" xlink:href="#al"/><use transform="matrix(0.05,0,0,0.05,10,0)" xlink:href="#L"/><use transform="matrix(0.05,0,0,0.05,20,0)" xlink:href="#an"/></g><path d="M631-137c179 0 314-70 314-231 0-71-25-127-75-166s-141-77-272-115c-165-47-285-106-360-175s-112-154-112-255c0-245 231-397 495-397 206 0 369 89 449 218 43 68 65 142 65 223H942c0-184-129-283-321-283-172 0-299 76-301 236 0 59 26 109 76 150s135 78 256 113c205 59 345 116 436 256 35 53 50 119 50 193-2 256-231 398-507 390C333 12 90-129 80-422h193c0 187 160 285 358 285" id="aH"/><path d="M277-555c0 244 77 420 297 424 127 2 249-93 255-210h175C980-127 805 20 574 20 258 20 81-222 92-562c11-319 164-533 481-540 237-5 426 165 431 392H829c-7-133-115-242-256-240-209 4-296 166-296 395" id="aI"/><g id="D"><use transform="matrix(0.0065107421875,0,0,0.0065107421875,0,0)" xlink:href="#aH"/><use transform="matrix(0.0065107421875,0,0,0.0065107421875,7.9105517578125,0)" xlink:href="#ac"/><use transform="matrix(0.0065107421875,0,0,0.0065107421875,15.5150986328125,0)" xlink:href="#W"/><use transform="matrix(0.0065107421875,0,0,0.0065107421875,22.8657265625,0)" xlink:href="#ad"/><use transform="matrix(0.0065107421875,0,0,0.0065107421875,27.253966796874998,0)" xlink:href="#aI"/><use transform="matrix(0.0065107421875,0,0,0.0065107421875,34.233482421875,0)" xlink:href="#ag"/></g><path d="M688-137c238 0 323-102 359-325h193c-32 297-228 482-552 482-361 0-569-299-569-680 0-197 8-360 73-497 88-186 257-317 513-319 316-2 509 195 535 488h-193c-31-212-118-330-342-330-272 0-397 224-393 523v141c-3 282 115 517 376 517" id="aJ"/><g id="E"><use transform="matrix(0.0065107421875,0,0,0.0065107421875,0,0)" xlink:href="#aJ"/><use transform="matrix(0.0065107421875,0,0,0.0065107421875,8.678819335937499,0)" xlink:href="#ac"/><use transform="matrix(0.0065107421875,0,0,0.0065107421875,16.283366210937498,0)" xlink:href="#ae"/><use transform="matrix(0.0065107421875,0,0,0.0065107421875,23.803273437499996,0)" xlink:href="#ag"/></g><g id="F"><use transform="matrix(0.05,0,0,0.05,0,0)" xlink:href="#R"/><use transform="matrix(0.05,0,0,0.05,12,0)" xlink:href="#Q"/><use transform="matrix(0.05,0,0,0.05,22,0)" xlink:href="#aj"/><use transform="matrix(0.05,0,0,0.05,25.950000000000003,0)" xlink:href="#ar"/><use transform="matrix(0.05,0,0,0.05,29.899999999999995,0)" xlink:href="#an"/></g><path d="M232-93c-1 65-40 97-104 97C67 4 28-28 28-90v-158h33c8 89-33 224 67 224 102 0 64-133 71-224h33v155" id="aK"/><path d="M115-194c55 1 70 41 70 98S169 2 115 4C84 4 66-9 55-30l1 105H24l-1-265h31l2 30c10-21 28-34 59-34zm-8 174c40 0 45-34 45-75s-6-73-45-74c-42 0-51 32-51 76 0 43 10 73 51 73" id="aL"/><g id="G"><use transform="matrix(0.05,0,0,0.05,0,0)" xlink:href="#aK"/><use transform="matrix(0.05,0,0,0.05,12.950000000000001,0)" xlink:href="#aL"/><use transform="matrix(0.05,0,0,0.05,22.950000000000003,0)" xlink:href="#an"/><use transform="matrix(0.05,0,0,0.05,32.95,0)" xlink:href="#al"/><use transform="matrix(0.05,0,0,0.05,42.95,0)" xlink:href="#am"/><use transform="matrix(0.05,0,0,0.05,47.95,0)" xlink:href="#M"/></g><g id="H"><use transform="matrix(0.05,0,0,0.05,0,0)" xlink:href="#N"/><use transform="matrix(0.05,0,0,0.05,12,0)" xlink:href="#am"/><use transform="matrix(0.05,0,0,0.05,17,0)" xlink:href="#K"/><use transform="matrix(0.05,0,0,0.05,27,0)" xlink:href="#J"/><use transform="matrix(0.05,0,0,0.05,32.95,0)" xlink:href="#M"/><use transform="matrix(0.05,0,0,0.05,42.95,0)" xlink:href="#ap"/></g></defs></g></svg>