<svg xmlns="http://www.w3.org/2000/svg" xmlns:xlink="http://www.w3.org/1999/xlink" xmlns:lucid="lucid" width="1580" height="836"><g transform="translate(-40 -64)" lucid:page-tab-id="0_0"><path d="M0 0h1760v1360H0z" fill="#fff"/><path d="M1220 86c0-1.1.9-2 2-2h376c1.1 0 2 .9 2 2v712c0 1.1-.9 2-2 2h-376c-1.1 0-2-.9-2-2z" fill="#e1f5fe"/><use xlink:href="#a" transform="matrix(1,0,0,1,1236,100) translate(0 16.69921875)"/><use xlink:href="#b" transform="matrix(1,0,0,1,1236,100) translate(60.205078125 16.69921875)"/><use xlink:href="#c" transform="matrix(1,0,0,1,1236,100) translate(106.330078125 16.69921875)"/><use xlink:href="#d" transform="matrix(1,0,0,1,1236,100) translate(216.7734375 16.69921875)"/><path d="M60 86c0-1.1.9-2 2-2h176c1.1 0 2 .9 2 2v492c0 1.1-.9 2-2 2H62c-1.1 0-2-.9-2-2z" fill="#fff8e1"/><use xlink:href="#e" transform="matrix(1,0,0,1,76,100) translate(0 16.69921875)"/><use xlink:href="#f" transform="matrix(1,0,0,1,76,100) translate(69.205078125 16.69921875)"/><path d="M280 86c0-1.1.9-2 2-2h896c1.1 0 2 .9 2 2v792c0 1.1-.9 2-2 2H282c-1.1 0-2-.9-2-2z" fill="#fce4ec"/><use xlink:href="#g" transform="matrix(1,0,0,1,296,100) translate(0 16.69921875)"/><use xlink:href="#h" transform="matrix(1,0,0,1,296,100) translate(95.3525390625 16.69921875)"/><path d="M320 322c0-1.1.9-2 2-2h200c1.1 0 2 .9 2 2v296c0 1.1-.9 2-2 2H322c-1.1 0-2-.9-2-2z" stroke="#000" fill="#e8f5e9"/><use xlink:href="#i" transform="matrix(1,0,0,1,336,336) translate(16.64111328125 16.69921875)"/><use xlink:href="#j" transform="matrix(1,0,0,1,336,336) translate(68.54931640625 16.69921875)"/><use xlink:href="#k" transform="matrix(1,0,0,1,336,336) translate(123.70068359375 16.69921875)"/><path d="M212.46 461.1l-26.36-45.3c-2.05-3.64-5.64-5.7-9.86-5.8h-52.48c-4.22.1-7.8 2.16-9.86 5.8l-26.36 45.18c-2.05 3.53-2.05 7.62 0 11.26l26.36 45.52c2.05 3.75 5.5 5.92 9.86 6.03h52.48c4.22-.12 7.8-2.3 9.86-6.04l26.36-45.18c2.05-3.75 2.05-7.85 0-11.5z" stroke="#000" stroke-opacity="0" fill="#4285f4"/><path d="M169.98 449l-19.34-6.6-20.4 15.3L143 470.3l-12.84 1.3 12.02 11.9-12.17 1.45 39.23 38.8h7.02c4.23-.15 7.8-2.27 9.83-6l19.5-33.53z" stroke="#000" stroke-opacity="0" fill-opacity=".07"/><path d="M150 437.43l-20 11.44v8.83l20 11.4 19.98-11.4v-8.83zm11.95 15.7L150 459.96l-11.92-6.8 11.9-6.85 11.97 6.84z" stroke="#000" stroke-opacity="0" fill="#fff"/><path d="M130 462.68v8.83l20 11.44 19.98-11.43v-8.82l-20 11.42-19.97-11.42z" stroke="#000" stroke-opacity="0" fill="#fff"/><path d="M130 476.07v8.83l20 11.43 19.98-11.43v-8.83l-20 11.43-19.97-11.43z" stroke="#000" stroke-opacity="0" fill="#fff"/><use xlink:href="#l" transform="matrix(1,0,0,1,86,528.79) translate(34.025 14.4)"/><path d="M486.46 461.1l-26.36-45.3c-2.05-3.64-5.64-5.7-9.86-5.8h-52.48c-4.22.1-7.8 2.16-9.86 5.8l-26.36 45.18c-2.05 3.53-2.05 7.62 0 11.26l26.36 45.52c2.05 3.75 5.5 5.92 9.86 6.03h52.48c4.22-.12 7.8-2.3 9.86-6.04l26.36-45.18c2.05-3.75 2.05-7.85 0-11.5z" stroke="#000" stroke-opacity="0" fill="#4285f4"/><path d="M449.6 451.46l-25.6-11.3-24.5 13.22-1 29 41.8 41.38h10.03c4.2-.17 7.8-2.34 9.87-6.02l20.56-35.44z" stroke="#000" stroke-opacity="0" fill-opacity=".07"/><path d="M448.95 451.07l-23.6-13.56c-.88-.46-1.83-.46-2.72 0l-23.6 13.57c-.9.47-1.37 1.3-1.37 2.32v26.98c0 1 .48 1.84 1.37 2.32l23.6 13.55c.9.48 1.84.48 2.73 0l23.6-13.55c.9-.48 1.36-1.3 1.36-2.32v-27c0-1-.47-1.84-1.37-2.3zm-3.2 26.75l-8.22-4.76v-12.42l-12.22 6.96v13.97l10.86-6.2 8.27 4.7L424 491.74l-20.44-11.65 8.27-4.7 10.85 6.2v-13.93l-12.22-6.95v12.36l-8.2 4.76v-23.36l20.42-11.72v9.46l-10.85 6.24 12.16 6.9 12.16-6.9-10.85-6.24v-9.46l20.44 11.72v23.36z" stroke="#000" stroke-opacity="0" fill="#fff"/><use xlink:href="#m" transform="matrix(1,0,0,1,360,528.79) translate(10.599999999999994 14.4)"/><use xlink:href="#n" transform="matrix(1,0,0,1,360,528.79) translate(64.5 14.4)"/><path d="M612 322c0-1.1.9-2 2-2h516c1.1 0 2 .9 2 2v296c0 1.1-.9 2-2 2H614c-1.1 0-2-.9-2-2z" stroke="#000" fill="#e8f5e9"/><use xlink:href="#i" transform="matrix(1,0,0,1,628,336) translate(171.74072265625 16.69921875)"/><use xlink:href="#o" transform="matrix(1,0,0,1,628,336) translate(223.64892578125 16.69921875)"/><use xlink:href="#k" transform="matrix(1,0,0,1,628,336) translate(284.60107421875 16.69921875)"/><path d="M776.46 461.1l-26.36-45.3c-2.05-3.64-5.64-5.7-9.86-5.8h-52.48c-4.22.1-7.8 2.16-9.86 5.8l-26.36 45.18c-2.05 3.53-2.05 7.62 0 11.26l26.36 45.52c2.05 3.75 5.5 5.92 9.86 6.03h52.48c4.22-.12 7.8-2.3 9.86-6.04l26.36-45.18c2.05-3.75 2.05-7.85 0-11.5z" stroke="#000" stroke-opacity="0" fill="#4285f4"/><path d="M739.6 451.46l-25.6-11.3-24.5 13.22-1 29 41.8 41.38h10.03c4.2-.17 7.8-2.34 9.87-6.02l20.56-35.44z" stroke="#000" stroke-opacity="0" fill-opacity=".07"/><path d="M738.95 451.07l-23.6-13.56c-.88-.46-1.83-.46-2.72 0l-23.6 13.57c-.9.47-1.37 1.3-1.37 2.32v26.98c0 1 .48 1.84 1.37 2.32l23.6 13.55c.9.48 1.84.48 2.73 0l23.6-13.55c.9-.48 1.36-1.3 1.36-2.32v-27c0-1-.47-1.84-1.37-2.3zm-3.2 26.75l-8.22-4.76v-12.42l-12.22 6.96v13.97l10.86-6.2 8.27 4.7L714 491.74l-20.44-11.65 8.27-4.7 10.85 6.2v-13.93l-12.22-6.95v12.36l-8.2 4.76v-23.36l20.42-11.72v9.46l-10.85 6.24 12.16 6.9 12.16-6.9-10.85-6.24v-9.46l20.44 11.72v23.36z" stroke="#000" stroke-opacity="0" fill="#fff"/><use xlink:href="#m" transform="matrix(1,0,0,1,650,528.79) translate(7.599999999999994 14.4)"/><use xlink:href="#p" transform="matrix(1,0,0,1,650,528.79) translate(61.5 14.4)"/><g filter="url(#q)"><path d="M828 142c0-1.1.9-2 2-2h84c1.1 0 2 .9 2 2v116c0 1.1-.9 2-2 2h-84c-1.1 0-2-.9-2-2z" fill="#fff"/><path d="M863 155.45h33v8.2h-33zm0 13.64h33v8.17h-33zm0 13.63h33v8.18h-33zm0 13.63h33v8.2h-33zm-15-40.9h9v8.18h-9zm0 13.63h9v8.17h-9zm0 13.63h9v8.18h-9zm0 13.63h9v8.2h-9z" fill="#757575"/><use xlink:href="#r" transform="matrix(1,0,0,1,828,213) translate(11.319329589843754 28.05751953125)"/></g><g filter="url(#q)"><path d="M524 142c0-1.1.9-2 2-2h84c1.1 0 2 .9 2 2v116c0 1.1-.9 2-2 2h-84c-1.1 0-2-.9-2-2z" fill="#fff"/><path d="M559 155.45h33v8.2h-33zm0 13.64h33v8.17h-33zm0 13.63h33v8.18h-33zm0 13.63h33v8.2h-33zm-15-40.9h9v8.18h-9zm0 13.63h9v8.17h-9zm0 13.63h9v8.18h-9zm0 13.63h9v8.2h-9z" fill="#757575"/><use xlink:href="#s" transform="matrix(1,0,0,1,524,213) translate(21.681175781250005 28.05751953125)"/></g><g filter="url(#q)"><path d="M378 142c0-1.1.9-2 2-2h84c1.1 0 2 .9 2 2v116c0 1.1-.9 2-2 2h-84c-1.1 0-2-.9-2-2z" fill="#fff"/><path d="M413 155.45h33v8.2h-33zm0 13.64h33v8.17h-33zm0 13.63h33v8.18h-33zm0 13.63h33v8.2h-33zm-15-40.9h9v8.18h-9zm0 13.63h9v8.17h-9zm0 13.63h9v8.18h-9zm0 13.63h9v8.2h-9z" fill="#757575"/><use xlink:href="#r" transform="matrix(1,0,0,1,378,213) translate(11.319329589843754 28.05751953125)"/></g><path d="M491.96 467.9h-3v-2h3zm10 0h-6v-2h6zm10 0h-6v-2h6zm10.02 0h-6v-2h6zm10 0h-6v-2h6zm10 0h-6v-2h6zm8.07 0H546v-2h4.05zm51.97 0h-6v-2h6zm10 0h-6v-2h6zm10 0h-6v-2h6zm10.02 0h-6v-2h6zm10 0h-6v-2h6zm7 0h-3v-2h3zm-57.03 0h-4.05v-2H592z"/><path d="M488.98 467.9h-1.13l.15-1.37-.1-.63h1.08zM650 466.54l.18 1.35h-1.16v-2h1.07z"/><use xlink:href="#t" transform="matrix(1,0,0,1,550.0513819581693,456.0949999999999) translate(0 14.4)"/><path d="M359.05 466.9h-126.6" stroke="#000" stroke-width="2" fill="none"/><path d="M360 466.54l.18 1.35h-1.16v-2h1.07z"/><path d="M217.2 466.9l14.26-4.64v9.27z" stroke="#000" stroke-width="2"/><g filter="url(#u)"><path d="M854 392c0-1.1.9-2 2-2h236c1.1 0 2 .9 2 2v56c0 1.1-.9 2-2 2H856c-1.1 0-2-.9-2-2z" fill="#fff"/><path d="M884 400c-5.52 0-10.24 1.95-14.14 5.86-3.9 3.9-5.86 8.62-5.86 14.14 0 5.52 1.95 10.24 5.86 14.14 3.9 3.9 8.62 5.86 14.14 5.86 5.52 0 10.24-1.95 14.14-5.86 3.9-3.9 5.86-8.62 5.86-14.14 0-5.52-1.95-10.24-5.86-14.14-3.9-3.9-8.62-5.86-14.14-5.86zm11.25 28.75c0 .7-.25 1.28-.73 1.77-.5.48-1.08.73-1.77.73h-17.5c-.7 0-1.28-.25-1.77-.73-.48-.5-.73-1.08-.73-1.77v-17.5c0-.7.25-1.28.73-1.77.5-.48 1.08-.73 1.77-.73H884v2.5h-8.75v17.5h17.5V420h2.5zm0-11.25h-2.5V413l-12.3 12.3-1.75-1.76 12.3-12.3h-4.5v-2.5h8.75z" fill="#757575"/><use xlink:href="#i" transform="matrix(1,0,0,1,914,410) translate(0 16.69921875)"/><use xlink:href="#v" transform="matrix(1,0,0,1,914,410) translate(51.908203125 16.69921875)"/></g><g filter="url(#u)"><path d="M854 492c0-1.1.9-2 2-2h236c1.1 0 2 .9 2 2v56c0 1.1-.9 2-2 2H856c-1.1 0-2-.9-2-2z" fill="#fff"/><path d="M884 500c-5.52 0-10.24 1.95-14.14 5.86-3.9 3.9-5.86 8.62-5.86 14.14 0 5.52 1.95 10.24 5.86 14.14 3.9 3.9 8.62 5.86 14.14 5.86 5.52 0 10.24-1.95 14.14-5.86 3.9-3.9 5.86-8.62 5.86-14.14 0-5.52-1.95-10.24-5.86-14.14-3.9-3.9-8.62-5.86-14.14-5.86zm11.25 28.75c0 .7-.25 1.28-.73 1.77-.5.48-1.08.73-1.77.73h-17.5c-.7 0-1.28-.25-1.77-.73-.48-.5-.73-1.08-.73-1.77v-17.5c0-.7.25-1.28.73-1.77.5-.48 1.08-.73 1.77-.73H884v2.5h-8.75v17.5h17.5V520h2.5zm0-11.25h-2.5V513l-12.3 12.3-1.75-1.76 12.3-12.3h-4.5v-2.5h8.75z" fill="#757575"/><use xlink:href="#w" transform="matrix(1,0,0,1,914,510) translate(0 16.69921875)"/></g><path d="M974 451v20.5" stroke="#000" stroke-width="2" fill="none"/><path d="M975 451.03h-2V450h2z"/><path d="M974 486.76l-4.64-14.26h9.28z" stroke="#000" stroke-width="2"/><path d="M778.96 466.9h37.02V420h19.52" stroke="#000" stroke-width="2" fill="none"/><path d="M778.98 467.9h-1.13l.15-1.37-.1-.63h1.08z"/><path d="M850.76 420l-14.26 4.64v-9.28z" stroke="#000" stroke-width="2"/><path d="M778.96 466.9h37.02V520h19.52" stroke="#000" stroke-width="2" fill="none"/><path d="M778.98 467.9h-1.13l.15-1.37-.1-.63h1.08z"/><path d="M850.76 520l-14.26 4.64v-9.28z" stroke="#000" stroke-width="2"/><path d="M423.33 318.5v-40" stroke="#000" stroke-width="2" fill="none"/><path d="M424.33 319.5h-2v-1.03h2z"/><path d="M423.33 263.24l4.64 14.26h-9.27z" stroke="#000" stroke-width="2"/><path d="M525.5 398.32H568V278.5" stroke="#000" stroke-width="2" fill="none"/><path d="M525.53 399.32h-1.03v-2h1.03z"/><path d="M568 263.24l4.64 14.26h-9.28z" stroke="#000" stroke-width="2"/><path d="M610.5 398.67H568V278.5" stroke="#000" stroke-width="2" fill="none"/><path d="M611.5 399.67h-1.03v-2h1.03z"/><path d="M568 263.24l4.64 14.26h-9.28z" stroke="#000" stroke-width="2"/><path d="M872 318.5v-40" stroke="#000" stroke-width="2" fill="none"/><path d="M873 319.5h-2v-1.03h2z"/><path d="M872 263.24l4.64 14.26h-9.28z" stroke="#000" stroke-width="2"/><path d="M320 682c0-1.1.9-2 2-2h808c1.1 0 2 .9 2 2v156c0 1.1-.9 2-2 2H322c-1.1 0-2-.9-2-2z" stroke="#000" fill="#e5e5e5"/><use xlink:href="#x" transform="matrix(1,0,0,1,336.00000000000006,696) translate(0 16.69921875)"/><use xlink:href="#y" transform="matrix(1,0,0,1,336.00000000000006,696) translate(63.404296875 16.69921875)"/><use xlink:href="#z" transform="matrix(1,0,0,1,336.00000000000006,696) translate(75.2783203125 16.69921875)"/><use xlink:href="#y" transform="matrix(1,0,0,1,336.00000000000006,696) translate(110.8388671875 16.69921875)"/><use xlink:href="#A" transform="matrix(1,0,0,1,336.00000000000006,696) translate(122.712890625 16.69921875)"/><use xlink:href="#B" transform="matrix(1,0,0,1,336.00000000000006,696) translate(194.4228515625 16.69921875)"/><path d="M422 661.5V639" stroke="#000" stroke-width="2" fill="none"/><path d="M422 676.76l-4.64-14.26h9.28zM422 623.74l4.64 14.26h-9.28z" stroke="#000" stroke-width="2"/><g filter="url(#C)"><path d="M340 742c0-1.1.9-2 2-2h276c1.1 0 2 .9 2 2v56c0 1.1-.9 2-2 2H342c-1.1 0-2-.9-2-2z" fill="#fff"/><path d="M370 750c-5.52 0-10.24 1.95-14.14 5.86-3.9 3.9-5.86 8.62-5.86 14.14 0 5.52 1.95 10.24 5.86 14.14 3.9 3.9 8.62 5.86 14.14 5.86 5.52 0 10.24-1.95 14.14-5.86 3.9-3.9 5.86-8.62 5.86-14.14 0-5.52-1.95-10.24-5.86-14.14-3.9-3.9-8.62-5.86-14.14-5.86zm11.25 30h-8.75v-6.25h2.5v-2.5h-10v2.5h2.5V780h-8.75v-6.25h3.75V770c0-.34.12-.64.37-.88.24-.25.54-.37.88-.37h5v-2.5H365V760h10v6.25h-3.75v2.5h5c.35 0 .64.12.88.37.25.24.37.54.37.88v3.75h3.75z" fill="#757575"/><use xlink:href="#D" transform="matrix(1,0,0,1,399.9999999999999,760) translate(0 16.69921875)"/><use xlink:href="#E" transform="matrix(1,0,0,1,399.9999999999999,760) translate(50.607421875 16.69921875)"/><use xlink:href="#F" transform="matrix(1,0,0,1,399.9999999999999,760) translate(114.01171875 16.69921875)"/></g><g filter="url(#G)"><path d="M660 742c0-1.1.9-2 2-2h196c1.1 0 2 .9 2 2v56c0 1.1-.9 2-2 2H662c-1.1 0-2-.9-2-2z" fill="#fff"/><path d="M690 758.62c-.7 0-1.34.18-1.94.52-.6.35-1.07.82-1.42 1.42-.34.6-.52 1.25-.52 1.94v2.5h7.76v-2.5c0-1.07-.38-1.98-1.14-2.74-.76-.76-1.67-1.14-2.74-1.14zm0 0M687.5 773.75c0-1.38 1.12-2.5 2.5-2.5s2.5 1.12 2.5 2.5-1.12 2.5-2.5 2.5-2.5-1.12-2.5-2.5z" fill="#757575"/><path d="M690 750c-5.52 0-10.24 1.95-14.14 5.86-3.9 3.9-5.86 8.62-5.86 14.14 0 5.52 1.95 10.24 5.86 14.14 3.9 3.9 8.62 5.86 14.14 5.86 5.52 0 10.24-1.95 14.14-5.86 3.9-3.9 5.86-8.62 5.86-14.14 0-5.52-1.95-10.24-5.86-14.14-3.9-3.9-8.62-5.86-14.14-5.86zm10 30c0 .7-.24 1.28-.73 1.77-.5.5-1.08.73-1.77.73h-15c-.7 0-1.28-.24-1.77-.73-.5-.5-.73-1.08-.73-1.77v-12.5c0-.7.24-1.28.73-1.77.5-.5 1.08-.73 1.77-.73h.63c.34 0 .62-.28.62-.63v-1.87c0-1.72.6-3.2 1.83-4.42 1.22-1.22 2.7-1.83 4.42-1.83 1.72 0 3.2.6 4.42 1.83 1.22 1.22 1.83 2.7 1.83 4.42v1.88c0 .34.28.62.63.62h.62c.7 0 1.28.24 1.77.73.5.5.73 1.08.73 1.77z" fill="#757575"/><use xlink:href="#H" transform="matrix(1,0,0,1,720,760) translate(0 16.69921875)"/><use xlink:href="#I" transform="matrix(1,0,0,1,720,760) translate(38.1181640625 16.69921875)"/></g><g filter="url(#G)"><path d="M900 742c0-1.1.9-2 2-2h196c1.1 0 2 .9 2 2v56c0 1.1-.9 2-2 2H902c-1.1 0-2-.9-2-2z" fill="#fff"/><path d="M930 750c-5.52 0-10.24 1.95-14.14 5.86-3.9 3.9-5.86 8.62-5.86 14.14 0 5.52 1.95 10.24 5.86 14.14 3.9 3.9 8.62 5.86 14.14 5.86 5.52 0 10.24-1.95 14.14-5.86 3.9-3.9 5.86-8.62 5.86-14.14 0-5.52-1.95-10.24-5.86-14.14-3.9-3.9-8.62-5.86-14.14-5.86zm-6.25 31.25H920v-3.75h3.75zm0-6.25H920v-3.75h3.75zm0-6.25H920V765h3.75zm0-6.25H920v-3.75h3.75zM940 781.25h-13.75v-3.75H940zm0-6.25h-13.75v-3.75H940zm0-6.25h-13.75V765H940zm0-6.25h-13.75v-3.75H940z" fill="#757575"/><use xlink:href="#J" transform="matrix(1,0,0,1,960.0000000000001,760) translate(0 16.69921875)"/></g><g filter="url(#K)"><path d="M1260 358c0-1.1.9-2 2-2h84c1.1 0 2 .9 2 2v124c0 1.1-.9 2-2 2h-84c-1.1 0-2-.9-2-2z" fill="#fff"/><path d="M1304 385v-12h-30v54h60v-42zm-18 36h-6v-6h6zm0-12h-6v-6h6zm0-12h-6v-6h6zm0-12h-6v-6h6zm12 36h-6v-6h6zm0-12h-6v-6h6zm0-12h-6v-6h6zm0-12h-6v-6h6zm30 36h-24v-6h6v-6h-6v-6h6v-6h-6v-6h24zm-6-24h-6v6h6zm0 12h-6v6h6z" fill="#757575"/><use xlink:href="#L" transform="matrix(1,0,0,1,1260,437) translate(23.49441748046875 28.05751953125)"/></g><g filter="url(#K)"><path d="M1480 162c0-1.1.9-2 2-2h84c1.1 0 2 .9 2 2v124c0 1.1-.9 2-2 2h-84c-1.1 0-2-.9-2-2z" fill="#fff"/><path d="M1515 177h33v9h-33zm0 15h33v9h-33zm0 15h33v9h-33zm0 15h33v9h-33zm-15-45h9v9h-9zm0 15h9v9h-9zm0 15h9v9h-9zm0 15h9v9h-9z" fill="#757575"/><use xlink:href="#M" transform="matrix(1,0,0,1,1480,241) translate(6.852960449218756 28.05751953125)"/><use xlink:href="#N" transform="matrix(1,0,0,1,1480,241) translate(39.79731591796875 28.05751953125)"/></g><path d="M1304 485v275h-153" stroke="#000" stroke-width="2" fill="none"/><path d="M1305 485.03h-2V484h2z"/><path d="M1135.74 760l14.26-4.64v9.28z" stroke="#000" stroke-width="2"/><path d="M1095 420h146.5" stroke="#000" stroke-width="2" fill="none"/><path d="M1095.03 421H1094v-2h1.03z"/><path d="M1256.76 420l-14.26 4.64v-9.28z" stroke="#000" stroke-width="2"/><g filter="url(#K)"><path d="M1408 358c0-1.1.9-2 2-2h84c1.1 0 2 .9 2 2v124c0 1.1-.9 2-2 2h-84c-1.1 0-2-.9-2-2z" fill="#fff"/><path d="M1476 376h-48c-1.66 0-3.07.6-4.24 1.76-1.17 1.17-1.76 2.58-1.76 4.24v36c0 1.66.6 3.07 1.76 4.24 1.17 1.17 2.58 1.76 4.24 1.76h48c1.66 0 3.07-.6 4.24-1.76 1.17-1.17 1.76-2.58 1.76-4.24v-36c0-1.66-.6-3.07-1.76-4.24-1.17-1.17-2.58-1.76-4.24-1.76zm-15 42h-33v-12h33zm0-15h-33v-12h33zm15 15h-12v-27h12z" fill="#757575"/><use xlink:href="#O" transform="matrix(1,0,0,1,1408,437) translate(23.0093671875 28.05751953125)"/></g><g filter="url(#K)"><path d="M1340 162c0-1.1.9-2 2-2h84c1.1 0 2 .9 2 2v124c0 1.1-.9 2-2 2h-84c-1.1 0-2-.9-2-2z" fill="#fff"/><path d="M1375 177h33v9h-33zm0 15h33v9h-33zm0 15h33v9h-33zm0 15h33v9h-33zm-15-45h9v9h-9zm0 15h9v9h-9zm0 15h9v9h-9zm0 15h9v9h-9z" fill="#757575"/><use xlink:href="#P" transform="matrix(1,0,0,1,1340,241) translate(12.911206054687504 28.05751953125)"/></g><path d="M1349 420h40.5" stroke="#000" stroke-width="2" fill="none"/><path d="M1349.03 421H1348v-2h1.03z"/><path d="M1404.76 420l-14.26 4.64v-9.28z" stroke="#000" stroke-width="2"/><path d="M1452 355v-33h-68v-15.5" stroke="#000" stroke-width="2" fill="none"/><path d="M1453 356h-2v-1.03h2z"/><path d="M1384 291.24l4.64 14.26h-9.28z" stroke="#000" stroke-width="2"/><path d="M1452 355v-33h72v-15.5" stroke="#000" stroke-width="2" fill="none"/><path d="M1453 356h-2v-1.03h2z"/><path d="M1524 291.24l4.64 14.26h-9.28z" stroke="#000" stroke-width="2"/><g filter="url(#K)"><path d="M1408 554c0-1.1.9-2 2-2h84c1.1 0 2 .9 2 2v124c0 1.1-.9 2-2 2h-84c-1.1 0-2-.9-2-2z" fill="#fff"/><path d="M1443 569h33v9h-33zm0 15h33v9h-33zm0 15h33v9h-33zm0 15h33v9h-33zm-15-45h9v9h-9zm0 15h9v9h-9zm0 15h9v9h-9zm0 15h9v9h-9z" fill="#757575"/><use xlink:href="#Q" transform="matrix(1,0,0,1,1408,633) translate(6.26699365234375 28.05751953125)"/><use xlink:href="#R" transform="matrix(1,0,0,1,1408,633) translate(50.865577636718754 28.05751953125)"/></g><path d="M1452 485v48.5" stroke="#000" stroke-width="2" fill="none"/><path d="M1453 485.03h-2V484h2z"/><path d="M1452 548.76l-4.64-14.26h9.28z" stroke="#000" stroke-width="2"/><defs><path d="M631-137c179 0 314-70 314-231 0-71-25-127-75-166s-141-77-272-115c-165-47-285-106-360-175s-112-154-112-255c0-245 231-397 495-397 206 0 369 89 449 218 43 68 65 142 65 223H942c0-184-129-283-321-283-172 0-299 76-301 236 0 59 26 109 76 150s135 78 256 113c205 59 345 116 436 256 35 53 50 119 50 193-2 256-231 398-507 390C333 12 90-129 80-422h193c0 187 160 285 358 285" id="S"/><path d="M584 20C278 26 81-227 91-551c10-320 175-545 491-551 308-5 503 247 494 573-9 322-175 543-492 549zm-2-970c-208 0-305 185-305 421 0 216 106 398 307 398 211 0 307-186 307-420 0-214-109-399-309-399" id="T"/><path d="M491 20c-241-1-355-148-355-398v-704h185v699c0 164 67 246 200 246 141 0 235-53 282-158v-787h185V0H812l-4-107C736-22 630 20 491 20" id="U"/><path d="M663-916c-163-27-288 18-338 148V0H140v-1082h180l3 125c61-97 147-145 258-145 36 0 63 5 82 14v172" id="V"/><path d="M277-555c0 244 77 420 297 424 127 2 249-93 255-210h175C980-127 805 20 574 20 258 20 81-222 92-562c11-319 164-533 481-540 237-5 426 165 431 392H829c-7-133-115-242-256-240-209 4-296 166-296 395" id="W"/><path d="M599-131c141 0 220-65 285-146l113 88C906-50 770 20 589 20 281 21 93-214 93-545c0-223 93-397 233-485 74-48 154-72 240-72 300 2 449 218 445 537v77H278c0 197 129 357 321 357zm227-509c-3-180-88-310-260-310-170 0-264 140-282 310h542" id="X"/><g id="a"><use transform="matrix(0.0087890625,0,0,0.0087890625,0,0)" xlink:href="#S"/><use transform="matrix(0.0087890625,0,0,0.0087890625,10.6787109375,0)" xlink:href="#T"/><use transform="matrix(0.0087890625,0,0,0.0087890625,20.9443359375,0)" xlink:href="#U"/><use transform="matrix(0.0087890625,0,0,0.0087890625,30.8671875,0)" xlink:href="#V"/><use transform="matrix(0.0087890625,0,0,0.0087890625,36.791015625,0)" xlink:href="#W"/><use transform="matrix(0.0087890625,0,0,0.0087890625,46.212890625,0)" xlink:href="#X"/></g><path d="M688-137c238 0 323-102 359-325h193c-32 297-228 482-552 482-361 0-569-299-569-680 0-197 8-360 73-497 88-186 257-317 513-319 316-2 509 195 535 488h-193c-31-212-118-330-342-330-272 0-397 224-393 523v141c-3 282 115 517 376 517" id="Y"/><path d="M520 20C244 20 95-247 95-550c0-298 151-550 427-552 127 0 227 43 301 130v-564h185V0H838l-9-116C755-25 652 20 520 20zm48-965c-210 0-288 177-288 416 0 218 87 392 286 392 117 0 203-53 257-158v-497c-55-102-140-153-255-153" id="Z"/><g id="b"><use transform="matrix(0.0087890625,0,0,0.0087890625,0,0)" xlink:href="#Y"/><use transform="matrix(0.0087890625,0,0,0.0087890625,11.7158203125,0)" xlink:href="#T"/><use transform="matrix(0.0087890625,0,0,0.0087890625,21.9814453125,0)" xlink:href="#Z"/><use transform="matrix(0.0087890625,0,0,0.0087890625,32.1328125,0)" xlink:href="#X"/></g><path d="M417-1456L893-268l476-1188h249V0h-192c-4-403 4-794 18-1179L966 0H819L342-1176c15 384 23 773 19 1176H169v-1456h248" id="aa"/><path d="M561-1102c238-4 403 126 403 351v498c0 99 13 178 38 237V0H808c-11-21-19-59-26-114C696-25 593 20 474 20c-199 0-368-130-365-320 4-251 214-359 490-356h180v-85c-1-135-86-212-229-212-115 0-232 67-233 171H131c20-205 206-316 430-320zM294-326c0 117 90 185 207 185 122 0 239-75 278-162v-222H634c-227 0-340 66-340 199" id="ab"/><path d="M589-945c-131 0-219 81-264 174V0H140v-1082h175l6 136c83-104 191-156 324-156 229 0 346 129 346 387V0H806v-716c-2-153-65-229-217-229" id="ac"/><path d="M521 20C240 20 96-239 96-550c0-303 147-552 427-552 132 0 235 47 309 140l9-120h169V-26c4 277-183 454-459 452-165-1-334-81-400-187l96-111c79 98 176 147 291 147 180 1 288-109 286-290v-93C750-23 649 20 521 20zm48-965c-209 0-287 178-287 416 0 217 86 392 285 392 117 0 202-53 257-159v-494c-57-103-142-155-255-155" id="ad"/><path d="M1240-945c-141 0-250 95-250 227V0H804v-709c0-157-77-236-231-236-121 0-204 52-249 155V0H139v-1082h175l5 120c79-93 186-140 321-140 151 0 254 58 309 174 69-98 181-174 345-174 237 0 362 126 362 377V0h-185v-714c-2-159-67-231-231-231" id="ae"/><path d="M456 20C285 20 205-92 206-268v-671H9v-143h197v-262h185v262h202v143H391v671c-9 125 92 149 207 118V0c-49 13-96 20-142 20" id="af"/><g id="c"><use transform="matrix(0.0087890625,0,0,0.0087890625,0,0)" xlink:href="#aa"/><use transform="matrix(0.0087890625,0,0,0.0087890625,15.71484375,0)" xlink:href="#ab"/><use transform="matrix(0.0087890625,0,0,0.0087890625,25.505859375,0)" xlink:href="#ac"/><use transform="matrix(0.0087890625,0,0,0.0087890625,35.4375,0)" xlink:href="#ab"/><use transform="matrix(0.0087890625,0,0,0.0087890625,45.228515625,0)" xlink:href="#ad"/><use transform="matrix(0.0087890625,0,0,0.0087890625,55.3271484375,0)" xlink:href="#X"/><use transform="matrix(0.0087890625,0,0,0.0087890625,64.86328125,0)" xlink:href="#ae"/><use transform="matrix(0.0087890625,0,0,0.0087890625,80.6396484375,0)" xlink:href="#X"/><use transform="matrix(0.0087890625,0,0,0.0087890625,90.17578125,0)" xlink:href="#ac"/><use transform="matrix(0.0087890625,0,0,0.0087890625,100.107421875,0)" xlink:href="#af"/></g><path d="M494-271l252-811h198L509 167C425 381 299 474 84 421V271c167 16 242-37 283-173l41-110L22-1082h202" id="ag"/><path d="M538-131c121 0 232-49 232-156 0-50-20-88-56-117-73-60-334-92-420-143-92-55-162-110-162-238 0-190 192-317 400-317 223 0 414 129 413 338H759c0-108-110-186-227-186-119 0-215 53-215 159 0 45 18 78 53 101 76 52 331 90 416 139 98 57 169 115 169 251C955-92 760 20 538 20c-176 0-314-68-386-174-38-55-57-115-57-179h185c6 129 116 202 258 202" id="ah"/><g id="d"><use transform="matrix(0.0087890625,0,0,0.0087890625,0,0)" xlink:href="#S"/><use transform="matrix(0.0087890625,0,0,0.0087890625,10.6787109375,0)" xlink:href="#ag"/><use transform="matrix(0.0087890625,0,0,0.0087890625,19.1953125,0)" xlink:href="#ah"/><use transform="matrix(0.0087890625,0,0,0.0087890625,28.4765625,0)" xlink:href="#af"/><use transform="matrix(0.0087890625,0,0,0.0087890625,34.3564453125,0)" xlink:href="#X"/><use transform="matrix(0.0087890625,0,0,0.0087890625,43.892578125,0)" xlink:href="#ae"/></g><path d="M992-673H361v516h733V0H169v-1456h915v158H361v468h631v157" id="ai"/><path d="M503-687l240-395h216L605-547 970 0H756L506-405 256 0H41l365-547-354-535h214" id="aj"/><path d="M341 0H156v-1536h185V0" id="ak"/><g id="e"><use transform="matrix(0.0087890625,0,0,0.0087890625,0,0)" xlink:href="#ai"/><use transform="matrix(0.0087890625,0,0,0.0087890625,10.23046875,0)" xlink:href="#aj"/><use transform="matrix(0.0087890625,0,0,0.0087890625,19.1513671875,0)" xlink:href="#af"/><use transform="matrix(0.0087890625,0,0,0.0087890625,25.03125,0)" xlink:href="#X"/><use transform="matrix(0.0087890625,0,0,0.0087890625,34.5673828125,0)" xlink:href="#V"/><use transform="matrix(0.0087890625,0,0,0.0087890625,40.658203125,0)" xlink:href="#ac"/><use transform="matrix(0.0087890625,0,0,0.0087890625,50.58984375,0)" xlink:href="#ab"/><use transform="matrix(0.0087890625,0,0,0.0087890625,60.380859375,0)" xlink:href="#ak"/></g><path d="M1222-777c17 480-206 763-650 777H169v-1456h411c408 9 627 269 642 679zm-190 4c3-312-149-522-447-525H361v1141h202c308 0 473-209 469-531v-85" id="al"/><path d="M1160-420C1159-145 963 0 674 0H169v-1456h476c294-1 476 112 476 388 0 153-99 253-216 302 146 38 255 167 255 346zM678-157c171 2 289-95 289-261 0-175-95-263-286-263H361v524h317zm250-912c-2-172-104-229-283-229H361v463h290c157 3 278-84 277-234" id="am"/><g id="f"><use transform="matrix(0.0087890625,0,0,0.0087890625,0,0)" xlink:href="#al"/><use transform="matrix(0.0087890625,0,0,0.0087890625,11.8037109375,0)" xlink:href="#am"/></g><path d="M539-677L361-492V0H169v-1456h192v720l647-720h232L667-813 1285 0h-230" id="an"/><path d="M634-1102c292 0 422 254 422 573 0 298-143 547-420 549-137 0-242-48-317-145L310 0H140v-1536h185v573c75-93 178-139 309-139zm-44 965c207 0 281-175 281-413 0-224-79-395-283-395-122 0-210 57-263 170v468c57 113 145 170 265 170" id="ao"/><g id="g"><use transform="matrix(0.0087890625,0,0,0.0087890625,0,0)" xlink:href="#an"/><use transform="matrix(0.0087890625,0,0,0.0087890625,11.0830078125,0)" xlink:href="#U"/><use transform="matrix(0.0087890625,0,0,0.0087890625,21.005859375,0)" xlink:href="#ao"/><use transform="matrix(0.0087890625,0,0,0.0087890625,31.1044921875,0)" xlink:href="#X"/><use transform="matrix(0.0087890625,0,0,0.0087890625,40.640625,0)" xlink:href="#V"/><use transform="matrix(0.0087890625,0,0,0.0087890625,46.7314453125,0)" xlink:href="#ac"/><use transform="matrix(0.0087890625,0,0,0.0087890625,56.6630859375,0)" xlink:href="#X"/><use transform="matrix(0.0087890625,0,0,0.0087890625,66.19921875,0)" xlink:href="#af"/><use transform="matrix(0.0087890625,0,0,0.0087890625,72.0791015625,0)" xlink:href="#X"/><use transform="matrix(0.0087890625,0,0,0.0087890625,81.615234375,0)" xlink:href="#ah"/></g><g id="h"><use transform="matrix(0.0087890625,0,0,0.0087890625,0,0)" xlink:href="#Y"/><use transform="matrix(0.0087890625,0,0,0.0087890625,11.7158203125,0)" xlink:href="#ak"/><use transform="matrix(0.0087890625,0,0,0.0087890625,16.083984375,0)" xlink:href="#U"/><use transform="matrix(0.0087890625,0,0,0.0087890625,26.0068359375,0)" xlink:href="#ah"/><use transform="matrix(0.0087890625,0,0,0.0087890625,35.2880859375,0)" xlink:href="#af"/><use transform="matrix(0.0087890625,0,0,0.0087890625,41.16796875,0)" xlink:href="#X"/><use transform="matrix(0.0087890625,0,0,0.0087890625,50.7041015625,0)" xlink:href="#V"/></g><g id="i"><use transform="matrix(0.0087890625,0,0,0.0087890625,0,0)" xlink:href="#al"/><use transform="matrix(0.0087890625,0,0,0.0087890625,11.8037109375,0)" xlink:href="#V"/><use transform="matrix(0.0087890625,0,0,0.0087890625,17.71875,0)" xlink:href="#T"/><use transform="matrix(0.0087890625,0,0,0.0087890625,27.984375,0)" xlink:href="#ac"/><use transform="matrix(0.0087890625,0,0,0.0087890625,37.916015625,0)" xlink:href="#X"/></g><path d="M497-251l268-831h189L566 0H425L33-1082h189" id="ap"/><g id="j"><use transform="matrix(0.0087890625,0,0,0.0087890625,0,0)" xlink:href="#S"/><use transform="matrix(0.0087890625,0,0,0.0087890625,10.6787109375,0)" xlink:href="#X"/><use transform="matrix(0.0087890625,0,0,0.0087890625,20.21484375,0)" xlink:href="#V"/><use transform="matrix(0.0087890625,0,0,0.0087890625,26.4638671875,0)" xlink:href="#ap"/><use transform="matrix(0.0087890625,0,0,0.0087890625,35.068359375,0)" xlink:href="#X"/><use transform="matrix(0.0087890625,0,0,0.0087890625,44.6044921875,0)" xlink:href="#V"/></g><path d="M1216-1011c-1 297-202 441-512 441H361V0H169v-1456h537c297-6 510 164 510 445zm-192 2c1-178-126-288-307-289H361v571h345c196 1 318-92 318-282" id="aq"/><g id="k"><use transform="matrix(0.0087890625,0,0,0.0087890625,0,0)" xlink:href="#aq"/><use transform="matrix(0.0087890625,0,0,0.0087890625,11.2412109375,0)" xlink:href="#T"/><use transform="matrix(0.0087890625,0,0,0.0087890625,21.5068359375,0)" xlink:href="#Z"/></g><path fill="#666" d="M240 0l2-218c-23 76-54 145-80 218h-23L58-218 59 0H30v-248h44l77 211c21-75 51-140 76-211h43V0h-30" id="ar"/><path fill="#666" d="M179-190L93 31C79 59 56 82 12 73V49c39 6 53-20 64-50L1-190h34L92-34l54-156h33" id="as"/><path fill="#666" d="M185-189c-5-48-123-54-124 2 14 75 158 14 163 119 3 78-121 87-175 55-17-10-28-26-33-46l33-7c5 56 141 63 141-1 0-78-155-14-162-118-5-82 145-84 179-34 5 7 8 16 11 25" id="at"/><path fill="#666" d="M140-251c81 0 123 46 123 126C263-53 228-8 163 1c7 30 30 48 69 40v23c-55 16-95-15-103-61C56-3 17-48 17-125c0-80 42-126 123-126zm0 227c63 0 89-41 89-101s-29-99-89-99c-61 0-89 39-89 99S79-25 140-24" id="au"/><path fill="#666" d="M30 0v-248h33v221h125V0H30" id="av"/><g id="l"><use transform="matrix(0.05,0,0,0.05,0,0)" xlink:href="#ar"/><use transform="matrix(0.05,0,0,0.05,14.950000000000001,0)" xlink:href="#as"/><use transform="matrix(0.05,0,0,0.05,23.950000000000003,0)" xlink:href="#at"/><use transform="matrix(0.05,0,0,0.05,35.95,0)" xlink:href="#au"/><use transform="matrix(0.05,0,0,0.05,49.95,0)" xlink:href="#av"/></g><path d="M30-248c118-7 216 8 213 122C240-48 200 0 122 0H30v-248zM63-27c89 8 146-16 146-99s-60-101-146-95v194" id="aw"/><path d="M114-163C36-179 61-72 57 0H25l-1-190h30c1 12-1 29 2 39 6-27 23-49 58-41v29" id="ax"/><path d="M100-194c62-1 85 37 85 99 1 63-27 99-86 99S16-35 15-95c0-66 28-99 85-99zM99-20c44 1 53-31 53-75 0-43-8-75-51-75s-53 32-53 75 10 74 51 75" id="ay"/><path d="M117-194c89-4 53 116 60 194h-32v-121c0-31-8-49-39-48C34-167 62-67 57 0H25l-1-190h30c1 10-1 24 2 32 11-22 29-35 61-36" id="az"/><path d="M100-194c63 0 86 42 84 106H49c0 40 14 67 53 68 26 1 43-12 49-29l28 8c-11 28-37 45-77 45C44 4 14-33 15-96c1-61 26-98 85-98zm52 81c6-60-76-77-97-28-3 7-6 17-6 28h103" id="aA"/><g id="m"><use transform="matrix(0.05,0,0,0.05,0,0)" xlink:href="#aw"/><use transform="matrix(0.05,0,0,0.05,12.950000000000001,0)" xlink:href="#ax"/><use transform="matrix(0.05,0,0,0.05,18.900000000000002,0)" xlink:href="#ay"/><use transform="matrix(0.05,0,0,0.05,28.900000000000002,0)" xlink:href="#az"/><use transform="matrix(0.05,0,0,0.05,38.900000000000006,0)" xlink:href="#aA"/></g><path d="M185-189c-5-48-123-54-124 2 14 75 158 14 163 119 3 78-121 87-175 55-17-10-28-26-33-46l33-7c5 56 141 63 141-1 0-78-155-14-162-118-5-82 145-84 179-34 5 7 8 16 11 25" id="aB"/><path d="M108 0H70L1-190h34L89-25l56-165h34" id="aC"/><g id="n"><use transform="matrix(0.05,0,0,0.05,0,0)" xlink:href="#aB"/><use transform="matrix(0.05,0,0,0.05,12,0)" xlink:href="#aA"/><use transform="matrix(0.05,0,0,0.05,22,0)" xlink:href="#ax"/><use transform="matrix(0.05,0,0,0.05,27.950000000000003,0)" xlink:href="#aC"/><use transform="matrix(0.05,0,0,0.05,36.95,0)" xlink:href="#aA"/><use transform="matrix(0.05,0,0,0.05,46.95,0)" xlink:href="#ax"/></g><path d="M1161-1018c0 201-122 330-278 388l342 618V0h-206L703-589H361V0H168v-1456h482c310-2 511 139 511 438zm-193 0c0-187-120-280-313-280H361v552h295c179 3 313-101 312-272" id="aD"/><g id="o"><use transform="matrix(0.0087890625,0,0,0.0087890625,0,0)" xlink:href="#aD"/><use transform="matrix(0.0087890625,0,0,0.0087890625,11.0830078125,0)" xlink:href="#U"/><use transform="matrix(0.0087890625,0,0,0.0087890625,21.005859375,0)" xlink:href="#ac"/><use transform="matrix(0.0087890625,0,0,0.0087890625,30.9375,0)" xlink:href="#ac"/><use transform="matrix(0.0087890625,0,0,0.0087890625,40.869140625,0)" xlink:href="#X"/><use transform="matrix(0.0087890625,0,0,0.0087890625,50.4052734375,0)" xlink:href="#V"/></g><path d="M233-177c-1 41-23 64-60 70L243 0h-38l-65-103H63V0H30v-248c88 3 205-21 203 71zM63-129c60-2 137 13 137-47 0-61-80-42-137-45v92" id="aE"/><path d="M84 4C-5 8 30-112 23-190h32v120c0 31 7 50 39 49 72-2 45-101 50-169h31l1 190h-30c-1-10 1-25-2-33-11 22-28 36-60 37" id="aF"/><g id="p"><use transform="matrix(0.05,0,0,0.05,0,0)" xlink:href="#aE"/><use transform="matrix(0.05,0,0,0.05,12.950000000000001,0)" xlink:href="#aF"/><use transform="matrix(0.05,0,0,0.05,22.950000000000003,0)" xlink:href="#az"/><use transform="matrix(0.05,0,0,0.05,32.95,0)" xlink:href="#az"/><use transform="matrix(0.05,0,0,0.05,42.95,0)" xlink:href="#aA"/><use transform="matrix(0.05,0,0,0.05,52.95,0)" xlink:href="#ax"/></g><path d="M704-1390c-164-38-297 28-288 194v114h231v143H416V0H231v-939H60v-143h171v-111c-12-274 208-416 483-347" id="aG"/><path d="M341 0H156v-1082h185V0zm-91-1264c-68 0-108-42-109-105 0-62 41-107 109-107s110 44 110 107-42 105-110 105" id="aH"/><path d="M632-1102c291 0 422 251 422 573 0 297-141 548-419 549-131 0-235-42-310-125v521H140v-1498h169l9 120c75-93 180-140 314-140zm-53 971c207 0 290-180 290-419 0-218-92-395-292-395-112 0-196 50-252 149v517c55 99 140 148 254 148" id="aI"/><g id="r"><use transform="matrix(0.0065107421875,0,0,0.0065107421875,0,0)" xlink:href="#Y"/><use transform="matrix(0.0065107421875,0,0,0.0065107421875,8.678819335937499,0)" xlink:href="#T"/><use transform="matrix(0.0065107421875,0,0,0.0065107421875,16.283366210937498,0)" xlink:href="#ac"/><use transform="matrix(0.0065107421875,0,0,0.0065107421875,23.640504882812497,0)" xlink:href="#aG"/><use transform="matrix(0.0065107421875,0,0,0.0065107421875,28.269642578124998,0)" xlink:href="#aH"/><use transform="matrix(0.0065107421875,0,0,0.0065107421875,31.505481445312498,0)" xlink:href="#ad"/><use transform="matrix(0.0065107421875,0,0,0.0065107421875,38.98632421875,0)" xlink:href="#aa"/><use transform="matrix(0.0065107421875,0,0,0.0065107421875,50.62753125,0)" xlink:href="#ab"/><use transform="matrix(0.0065107421875,0,0,0.0065107421875,57.880498046875,0)" xlink:href="#aI"/></g><filter id="q" filterUnits="objectBoundingBox" x="-.02" y="0" width="1.03" height="1.02"><feOffset result="offOut" in="SourceAlpha" dy="1"/><feGaussianBlur result="blurOut" in="offOut" stdDeviation=".75"/><feColorMatrix result="colorOut" in="blurOut" values="0 0 0 0 0 0 0 0 0 0 0 0 0 0 0 0 0 0 0.4 0"/><feBlend in="SourceGraphic" in2="colorOut"/></filter><g id="s"><use transform="matrix(0.0065107421875,0,0,0.0065107421875,0,0)" xlink:href="#S"/><use transform="matrix(0.0065107421875,0,0,0.0065107421875,7.9105517578125,0)" xlink:href="#X"/><use transform="matrix(0.0065107421875,0,0,0.0065107421875,14.97470703125,0)" xlink:href="#W"/><use transform="matrix(0.0065107421875,0,0,0.0065107421875,21.954222656249996,0)" xlink:href="#V"/><use transform="matrix(0.0065107421875,0,0,0.0065107421875,26.342462890624997,0)" xlink:href="#X"/><use transform="matrix(0.0065107421875,0,0,0.0065107421875,33.40661816406249,0)" xlink:href="#af"/><use transform="matrix(0.0065107421875,0,0,0.0065107421875,37.76230468749999,0)" xlink:href="#ah"/></g><path d="M30-248c87 1 191-15 191 75 0 78-77 80-158 76V0H30v-248zm33 125c57 0 124 11 124-50 0-59-68-47-124-48v98" id="aJ"/><path d="M212-179c-10-28-35-45-73-45-59 0-87 40-87 99 0 60 29 101 89 101 43 0 62-24 78-52l27 14C228-24 195 4 139 4 59 4 22-46 18-125c-6-104 99-153 187-111 19 9 31 26 39 46" id="aK"/><g id="t"><use transform="matrix(0.05,0,0,0.05,0,0)" xlink:href="#aE"/><use transform="matrix(0.05,0,0,0.05,12.950000000000001,0)" xlink:href="#aJ"/><use transform="matrix(0.05,0,0,0.05,24.950000000000003,0)" xlink:href="#aK"/></g><path d="M973-380H363L226 0H28l556-1456h168L1309 0h-197zM421-538h495l-248-681" id="aL"/><g id="v"><use transform="matrix(0.0087890625,0,0,0.0087890625,0,0)" xlink:href="#aL"/><use transform="matrix(0.0087890625,0,0,0.0087890625,11.7421875,0)" xlink:href="#ad"/><use transform="matrix(0.0087890625,0,0,0.0087890625,21.8408203125,0)" xlink:href="#X"/><use transform="matrix(0.0087890625,0,0,0.0087890625,31.376953125,0)" xlink:href="#ac"/><use transform="matrix(0.0087890625,0,0,0.0087890625,41.30859375,0)" xlink:href="#af"/></g><filter id="u" filterUnits="objectBoundingBox" x="-.01" y="-.01" width="1.01" height="1.05"><feOffset result="offOut" in="SourceAlpha" dy="1"/><feGaussianBlur result="blurOut" in="offOut" stdDeviation=".75"/><feColorMatrix result="colorOut" in="blurOut" values="0 0 0 0 0 0 0 0 0 0 0 0 0 0 0 0 0 0 0.4 0"/><feBlend in="SourceGraphic" in2="colorOut"/></filter><path d="M442-501L326-380V0H141v-1536h185v929c135-169 291-317 436-475h225L566-630 1036 0H819" id="aM"/><path d="M525-543H37v-151h488v151" id="aN"/><g id="w"><use transform="matrix(0.0087890625,0,0,0.0087890625,0,0)" xlink:href="#al"/><use transform="matrix(0.0087890625,0,0,0.0087890625,11.8037109375,0)" xlink:href="#T"/><use transform="matrix(0.0087890625,0,0,0.0087890625,22.0693359375,0)" xlink:href="#W"/><use transform="matrix(0.0087890625,0,0,0.0087890625,31.4912109375,0)" xlink:href="#aM"/><use transform="matrix(0.0087890625,0,0,0.0087890625,40.4384765625,0)" xlink:href="#X"/><use transform="matrix(0.0087890625,0,0,0.0087890625,49.974609375,0)" xlink:href="#V"/><use transform="matrix(0.0087890625,0,0,0.0087890625,56.0654296875,0)" xlink:href="#aN"/><use transform="matrix(0.0087890625,0,0,0.0087890625,61.03125,0)" xlink:href="#aH"/><use transform="matrix(0.0087890625,0,0,0.0087890625,65.3994140625,0)" xlink:href="#ac"/><use transform="matrix(0.0087890625,0,0,0.0087890625,75.3310546875,0)" xlink:href="#aN"/><use transform="matrix(0.0087890625,0,0,0.0087890625,80.296875,0)" xlink:href="#al"/><use transform="matrix(0.0087890625,0,0,0.0087890625,92.1005859375,0)" xlink:href="#T"/><use transform="matrix(0.0087890625,0,0,0.0087890625,102.3662109375,0)" xlink:href="#W"/><use transform="matrix(0.0087890625,0,0,0.0087890625,111.7880859375,0)" xlink:href="#aM"/><use transform="matrix(0.0087890625,0,0,0.0087890625,120.7353515625,0)" xlink:href="#X"/><use transform="matrix(0.0087890625,0,0,0.0087890625,130.271484375,0)" xlink:href="#V"/></g><path fill="#999" d="M375 0H183v-1456h192V0" id="aO"/><path fill="#999" d="M589-945c-131 0-219 81-264 174V0H140v-1082h175l6 136c83-104 191-156 324-156 229 0 346 129 346 387V0H806v-716c-2-153-65-229-217-229" id="aP"/><path fill="#999" d="M521 20C240 20 96-239 96-550c0-303 147-552 427-552 132 0 235 47 309 140l9-120h169V-26c4 277-183 454-459 452-165-1-334-81-400-187l96-111c79 98 176 147 291 147 180 1 288-109 286-290v-93C750-23 649 20 521 20zm48-965c-209 0-287 178-287 416 0 217 86 392 285 392 117 0 202-53 257-159v-494c-57-103-142-155-255-155" id="aQ"/><path fill="#999" d="M663-916c-163-27-288 18-338 148V0H140v-1082h180l3 125c61-97 147-145 258-145 36 0 63 5 82 14v172" id="aR"/><path fill="#999" d="M599-131c141 0 220-65 285-146l113 88C906-50 770 20 589 20 281 21 93-214 93-545c0-223 93-397 233-485 74-48 154-72 240-72 300 2 449 218 445 537v77H278c0 197 129 357 321 357zm227-509c-3-180-88-310-260-310-170 0-264 140-282 310h542" id="aS"/><path fill="#999" d="M538-131c121 0 232-49 232-156 0-50-20-88-56-117-73-60-334-92-420-143-92-55-162-110-162-238 0-190 192-317 400-317 223 0 414 129 413 338H759c0-108-110-186-227-186-119 0-215 53-215 159 0 45 18 78 53 101 76 52 331 90 416 139 98 57 169 115 169 251C955-92 760 20 538 20c-176 0-314-68-386-174-38-55-57-115-57-179h185c6 129 116 202 258 202" id="aT"/><g id="x"><use transform="matrix(0.0087890625,0,0,0.0087890625,0,0)" xlink:href="#aO"/><use transform="matrix(0.0087890625,0,0,0.0087890625,4.8955078125,0)" xlink:href="#aP"/><use transform="matrix(0.0087890625,0,0,0.0087890625,14.8271484375,0)" xlink:href="#aQ"/><use transform="matrix(0.0087890625,0,0,0.0087890625,24.92578125,0)" xlink:href="#aR"/><use transform="matrix(0.0087890625,0,0,0.0087890625,30.849609375,0)" xlink:href="#aS"/><use transform="matrix(0.0087890625,0,0,0.0087890625,40.3857421875,0)" xlink:href="#aT"/><use transform="matrix(0.0087890625,0,0,0.0087890625,49.6669921875,0)" xlink:href="#aT"/></g><path fill="#999" d="M177 125H18l608-1581h158" id="aU"/><use transform="matrix(0.0087890625,0,0,0.0087890625,0,0)" xlink:href="#aU" id="y"/><path fill="#999" d="M1175-1298H707V0H516v-1298H49v-158h1126v158" id="aV"/><path fill="#999" d="M362-157h690V0H169v-1456h193v1299" id="aW"/><path fill="#999" d="M631-137c179 0 314-70 314-231 0-71-25-127-75-166s-141-77-272-115c-165-47-285-106-360-175s-112-154-112-255c0-245 231-397 495-397 206 0 369 89 449 218 43 68 65 142 65 223H942c0-184-129-283-321-283-172 0-299 76-301 236 0 59 26 109 76 150s135 78 256 113c205 59 345 116 436 256 35 53 50 119 50 193-2 256-231 398-507 390C333 12 90-129 80-422h193c0 187 160 285 358 285" id="aX"/><g id="z"><use transform="matrix(0.0087890625,0,0,0.0087890625,0,0)" xlink:href="#aV"/><use transform="matrix(0.0087890625,0,0,0.0087890625,10.740234375,0)" xlink:href="#aW"/><use transform="matrix(0.0087890625,0,0,0.0087890625,20.42578125,0)" xlink:href="#aX"/></g><path fill="#999" d="M1288 0h-193L362-1122V0H169v-1456h193l735 1127v-1127h191V0" id="aY"/><path fill="#999" d="M456 20C285 20 205-92 206-268v-671H9v-143h197v-262h185v262h202v143H391v671c-9 125 92 149 207 118V0c-49 13-96 20-142 20" id="aZ"/><path fill="#999" d="M1098-255l208-827h185L1176 0h-150L763-820 507 0H357L43-1082h184l213 810 252-810h149" id="ba"/><path fill="#999" d="M584 20C278 26 81-227 91-551c10-320 175-545 491-551 308-5 503 247 494 573-9 322-175 543-492 549zm-2-970c-208 0-305 185-305 421 0 216 106 398 307 398 211 0 307-186 307-420 0-214-109-399-309-399" id="bb"/><path fill="#999" d="M442-501L326-380V0H141v-1536h185v929c135-169 291-317 436-475h225L566-630 1036 0H819" id="bc"/><g id="A"><use transform="matrix(0.0087890625,0,0,0.0087890625,0,0)" xlink:href="#aY"/><use transform="matrix(0.0087890625,0,0,0.0087890625,12.83203125,0)" xlink:href="#aS"/><use transform="matrix(0.0087890625,0,0,0.0087890625,22.3681640625,0)" xlink:href="#aZ"/><use transform="matrix(0.0087890625,0,0,0.0087890625,28.248046875,0)" xlink:href="#ba"/><use transform="matrix(0.0087890625,0,0,0.0087890625,41.7744140625,0)" xlink:href="#bb"/><use transform="matrix(0.0087890625,0,0,0.0087890625,52.0400390625,0)" xlink:href="#aR"/><use transform="matrix(0.0087890625,0,0,0.0087890625,58.130859375,0)" xlink:href="#bc"/></g><path fill="#999" d="M704-1390c-164-38-297 28-288 194v114h231v143H416V0H231v-939H60v-143h171v-111c-12-274 208-416 483-347" id="bd"/><path fill="#999" d="M561-1102c238-4 403 126 403 351v498c0 99 13 178 38 237V0H808c-11-21-19-59-26-114C696-25 593 20 474 20c-199 0-368-130-365-320 4-251 214-359 490-356h180v-85c-1-135-86-212-229-212-115 0-232 67-233 171H131c20-205 206-316 430-320zM294-326c0 117 90 185 207 185 122 0 239-75 278-162v-222H634c-227 0-340 66-340 199" id="be"/><path fill="#999" d="M491 20c-241-1-355-148-355-398v-704h185v699c0 164 67 246 200 246 141 0 235-53 282-158v-787h185V0H812l-4-107C736-22 630 20 491 20" id="bf"/><path fill="#999" d="M277-555c0 244 77 420 297 424 127 2 249-93 255-210h175C980-127 805 20 574 20 258 20 81-222 92-562c11-319 164-533 481-540 237-5 426 165 431 392H829c-7-133-115-242-256-240-209 4-296 166-296 395" id="bg"/><g id="B"><use transform="matrix(0.0087890625,0,0,0.0087890625,0,0)" xlink:href="#aO"/><use transform="matrix(0.0087890625,0,0,0.0087890625,4.8955078125,0)" xlink:href="#aP"/><use transform="matrix(0.0087890625,0,0,0.0087890625,14.8271484375,0)" xlink:href="#bd"/><use transform="matrix(0.0087890625,0,0,0.0087890625,21.076171875,0)" xlink:href="#aR"/><use transform="matrix(0.0087890625,0,0,0.0087890625,26.8154296875,0)" xlink:href="#be"/><use transform="matrix(0.0087890625,0,0,0.0087890625,36.6064453125,0)" xlink:href="#aT"/><use transform="matrix(0.0087890625,0,0,0.0087890625,45.8876953125,0)" xlink:href="#aZ"/><use transform="matrix(0.0087890625,0,0,0.0087890625,51.767578125,0)" xlink:href="#aR"/><use transform="matrix(0.0087890625,0,0,0.0087890625,57.8583984375,0)" xlink:href="#bf"/><use transform="matrix(0.0087890625,0,0,0.0087890625,67.78125,0)" xlink:href="#bg"/><use transform="matrix(0.0087890625,0,0,0.0087890625,77.203125,0)" xlink:href="#aZ"/><use transform="matrix(0.0087890625,0,0,0.0087890625,83.0830078125,0)" xlink:href="#bf"/><use transform="matrix(0.0087890625,0,0,0.0087890625,93.005859375,0)" xlink:href="#aR"/><use transform="matrix(0.0087890625,0,0,0.0087890625,98.9296875,0)" xlink:href="#aS"/></g><path fill="#666" d="M1288 0h-193L362-1122V0H169v-1456h193l735 1127v-1127h191V0" id="bh"/><path fill="#666" d="M521 20C240 20 96-239 96-550c0-303 147-552 427-552 132 0 235 47 309 140l9-120h169V-26c4 277-183 454-459 452-165-1-334-81-400-187l96-111c79 98 176 147 291 147 180 1 288-109 286-290v-93C750-23 649 20 521 20zm48-965c-209 0-287 178-287 416 0 217 86 392 285 392 117 0 202-53 257-159v-494c-57-103-142-155-255-155" id="bi"/><path fill="#666" d="M341 0H156v-1082h185V0zm-91-1264c-68 0-108-42-109-105 0-62 41-107 109-107s110 44 110 107-42 105-110 105" id="bj"/><path fill="#666" d="M589-945c-131 0-219 81-264 174V0H140v-1082h175l6 136c83-104 191-156 324-156 229 0 346 129 346 387V0H806v-716c-2-153-65-229-217-229" id="bk"/><path fill="#666" d="M503-687l240-395h216L605-547 970 0H756L506-405 256 0H41l365-547-354-535h214" id="bl"/><g id="D"><use transform="matrix(0.0087890625,0,0,0.0087890625,0,0)" xlink:href="#bh"/><use transform="matrix(0.0087890625,0,0,0.0087890625,12.83203125,0)" xlink:href="#bi"/><use transform="matrix(0.0087890625,0,0,0.0087890625,22.9306640625,0)" xlink:href="#bj"/><use transform="matrix(0.0087890625,0,0,0.0087890625,27.298828125,0)" xlink:href="#bk"/><use transform="matrix(0.0087890625,0,0,0.0087890625,37.23046875,0)" xlink:href="#bl"/></g><path fill="#666" d="M375 0H183v-1456h192V0" id="bm"/><path fill="#666" d="M663-916c-163-27-288 18-338 148V0H140v-1082h180l3 125c61-97 147-145 258-145 36 0 63 5 82 14v172" id="bn"/><path fill="#666" d="M599-131c141 0 220-65 285-146l113 88C906-50 770 20 589 20 281 21 93-214 93-545c0-223 93-397 233-485 74-48 154-72 240-72 300 2 449 218 445 537v77H278c0 197 129 357 321 357zm227-509c-3-180-88-310-260-310-170 0-264 140-282 310h542" id="bo"/><path fill="#666" d="M538-131c121 0 232-49 232-156 0-50-20-88-56-117-73-60-334-92-420-143-92-55-162-110-162-238 0-190 192-317 400-317 223 0 414 129 413 338H759c0-108-110-186-227-186-119 0-215 53-215 159 0 45 18 78 53 101 76 52 331 90 416 139 98 57 169 115 169 251C955-92 760 20 538 20c-176 0-314-68-386-174-38-55-57-115-57-179h185c6 129 116 202 258 202" id="bp"/><g id="E"><use transform="matrix(0.0087890625,0,0,0.0087890625,0,0)" xlink:href="#bm"/><use transform="matrix(0.0087890625,0,0,0.0087890625,4.8955078125,0)" xlink:href="#bk"/><use transform="matrix(0.0087890625,0,0,0.0087890625,14.8271484375,0)" xlink:href="#bi"/><use transform="matrix(0.0087890625,0,0,0.0087890625,24.92578125,0)" xlink:href="#bn"/><use transform="matrix(0.0087890625,0,0,0.0087890625,30.849609375,0)" xlink:href="#bo"/><use transform="matrix(0.0087890625,0,0,0.0087890625,40.3857421875,0)" xlink:href="#bp"/><use transform="matrix(0.0087890625,0,0,0.0087890625,49.6669921875,0)" xlink:href="#bp"/></g><path fill="#666" d="M688-137c238 0 323-102 359-325h193c-32 297-228 482-552 482-361 0-569-299-569-680 0-197 8-360 73-497 88-186 257-317 513-319 316-2 509 195 535 488h-193c-31-212-118-330-342-330-272 0-397 224-393 523v141c-3 282 115 517 376 517" id="bq"/><path fill="#666" d="M584 20C278 26 81-227 91-551c10-320 175-545 491-551 308-5 503 247 494 573-9 322-175 543-492 549zm-2-970c-208 0-305 185-305 421 0 216 106 398 307 398 211 0 307-186 307-420 0-214-109-399-309-399" id="br"/><path fill="#666" d="M456 20C285 20 205-92 206-268v-671H9v-143h197v-262h185v262h202v143H391v671c-9 125 92 149 207 118V0c-49 13-96 20-142 20" id="bs"/><path fill="#666" d="M341 0H156v-1536h185V0" id="bt"/><g id="F"><use transform="matrix(0.0087890625,0,0,0.0087890625,0,0)" xlink:href="#bq"/><use transform="matrix(0.0087890625,0,0,0.0087890625,11.7158203125,0)" xlink:href="#br"/><use transform="matrix(0.0087890625,0,0,0.0087890625,21.9814453125,0)" xlink:href="#bk"/><use transform="matrix(0.0087890625,0,0,0.0087890625,31.9130859375,0)" xlink:href="#bs"/><use transform="matrix(0.0087890625,0,0,0.0087890625,37.79296875,0)" xlink:href="#bn"/><use transform="matrix(0.0087890625,0,0,0.0087890625,43.7080078125,0)" xlink:href="#br"/><use transform="matrix(0.0087890625,0,0,0.0087890625,53.9736328125,0)" xlink:href="#bt"/><use transform="matrix(0.0087890625,0,0,0.0087890625,58.341796875,0)" xlink:href="#bt"/><use transform="matrix(0.0087890625,0,0,0.0087890625,62.7099609375,0)" xlink:href="#bo"/><use transform="matrix(0.0087890625,0,0,0.0087890625,72.24609375,0)" xlink:href="#bn"/></g><filter id="C" filterUnits="objectBoundingBox" x="-.01" y="-.01" width="1.01" height="1.05"><feOffset result="offOut" in="SourceAlpha" dy="1"/><feGaussianBlur result="blurOut" in="offOut" stdDeviation=".75"/><feColorMatrix result="colorOut" in="blurOut" values="0 0 0 0 0 0 0 0 0 0 0 0 0 0 0 0 0 0 0.4 0"/><feBlend in="SourceGraphic" in2="colorOut"/></filter><g id="H"><use transform="matrix(0.0087890625,0,0,0.0087890625,0,0)" xlink:href="#bq"/><use transform="matrix(0.0087890625,0,0,0.0087890625,11.7158203125,0)" xlink:href="#bo"/><use transform="matrix(0.0087890625,0,0,0.0087890625,21.251953125,0)" xlink:href="#bn"/><use transform="matrix(0.0087890625,0,0,0.0087890625,27.7822265625,0)" xlink:href="#bs"/></g><path fill="#666" d="M417-1456L893-268l476-1188h249V0h-192c-4-403 4-794 18-1179L966 0H819L342-1176c15 384 23 773 19 1176H169v-1456h248" id="bu"/><path fill="#666" d="M561-1102c238-4 403 126 403 351v498c0 99 13 178 38 237V0H808c-11-21-19-59-26-114C696-25 593 20 474 20c-199 0-368-130-365-320 4-251 214-359 490-356h180v-85c-1-135-86-212-229-212-115 0-232 67-233 171H131c20-205 206-316 430-320zM294-326c0 117 90 185 207 185 122 0 239-75 278-162v-222H634c-227 0-340 66-340 199" id="bv"/><g id="I"><use transform="matrix(0.0087890625,0,0,0.0087890625,0,0)" xlink:href="#bu"/><use transform="matrix(0.0087890625,0,0,0.0087890625,15.71484375,0)" xlink:href="#bv"/><use transform="matrix(0.0087890625,0,0,0.0087890625,25.505859375,0)" xlink:href="#bk"/><use transform="matrix(0.0087890625,0,0,0.0087890625,35.4375,0)" xlink:href="#bv"/><use transform="matrix(0.0087890625,0,0,0.0087890625,45.228515625,0)" xlink:href="#bi"/><use transform="matrix(0.0087890625,0,0,0.0087890625,55.3271484375,0)" xlink:href="#bo"/><use transform="matrix(0.0087890625,0,0,0.0087890625,64.86328125,0)" xlink:href="#bn"/></g><filter id="G" filterUnits="objectBoundingBox" x="-.01" y="-.01" width="1.01" height="1.05"><feOffset result="offOut" in="SourceAlpha" dy="1"/><feGaussianBlur result="blurOut" in="offOut" stdDeviation=".75"/><feColorMatrix result="colorOut" in="blurOut" values="0 0 0 0 0 0 0 0 0 0 0 0 0 0 0 0 0 0 0.4 0"/><feBlend in="SourceGraphic" in2="colorOut"/></filter><path fill="#666" d="M704-1390c-164-38-297 28-288 194v114h231v143H416V0H231v-939H60v-143h171v-111c-12-274 208-416 483-347" id="bw"/><path fill="#666" d="M491 20c-241-1-355-148-355-398v-704h185v699c0 164 67 246 200 246 141 0 235-53 282-158v-787h185V0H812l-4-107C736-22 630 20 491 20" id="bx"/><g id="J"><use transform="matrix(0.0087890625,0,0,0.0087890625,0,0)" xlink:href="#bq"/><use transform="matrix(0.0087890625,0,0,0.0087890625,11.7158203125,0)" xlink:href="#br"/><use transform="matrix(0.0087890625,0,0,0.0087890625,21.9814453125,0)" xlink:href="#bk"/><use transform="matrix(0.0087890625,0,0,0.0087890625,31.9130859375,0)" xlink:href="#bw"/><use transform="matrix(0.0087890625,0,0,0.0087890625,38.162109375,0)" xlink:href="#bj"/><use transform="matrix(0.0087890625,0,0,0.0087890625,42.5302734375,0)" xlink:href="#bi"/><use transform="matrix(0.0087890625,0,0,0.0087890625,52.62890625,0)" xlink:href="#bx"/><use transform="matrix(0.0087890625,0,0,0.0087890625,62.5517578125,0)" xlink:href="#bn"/><use transform="matrix(0.0087890625,0,0,0.0087890625,68.291015625,0)" xlink:href="#bv"/><use transform="matrix(0.0087890625,0,0,0.0087890625,78.08203125,0)" xlink:href="#bs"/><use transform="matrix(0.0087890625,0,0,0.0087890625,83.9619140625,0)" xlink:href="#bj"/><use transform="matrix(0.0087890625,0,0,0.0087890625,88.330078125,0)" xlink:href="#br"/><use transform="matrix(0.0087890625,0,0,0.0087890625,98.595703125,0)" xlink:href="#bk"/></g><path d="M730-137c145 0 253-29 323-105v-327H716v-156h528v534C1148-51 964 20 729 20c-394 0-598-279-607-678v-127c-5-410 194-690 585-691 310-1 499 171 537 447h-192c-36-193-151-289-344-289-285 0-393 220-393 528v119c-5 296 140 534 415 534" id="by"/><path d="M1288 0h-193v-673H361V0H169v-1456h192v626h734v-626h193V0" id="bz"/><g id="L"><use transform="matrix(0.0065107421875,0,0,0.0065107421875,0,0)" xlink:href="#by"/><use transform="matrix(0.0065107421875,0,0,0.0065107421875,9.0824853515625,0)" xlink:href="#aH"/><use transform="matrix(0.0065107421875,0,0,0.0065107421875,12.31832421875,0)" xlink:href="#af"/><use transform="matrix(0.0065107421875,0,0,0.0065107421875,16.674010742187498,0)" xlink:href="#bz"/><use transform="matrix(0.0065107421875,0,0,0.0065107421875,26.179694335937498,0)" xlink:href="#U"/><use transform="matrix(0.0065107421875,0,0,0.0065107421875,33.530322265624996,0)" xlink:href="#ao"/></g><filter id="K" filterUnits="objectBoundingBox" x="-.02" y="0" width="1.03" height="1.02"><feOffset result="offOut" in="SourceAlpha" dy="1"/><feGaussianBlur result="blurOut" in="offOut" stdDeviation=".75"/><feColorMatrix result="colorOut" in="blurOut" values="0 0 0 0 0 0 0 0 0 0 0 0 0 0 0 0 0 0 0.4 0"/><feBlend in="SourceGraphic" in2="colorOut"/></filter><g id="M"><use transform="matrix(0.0065107421875,0,0,0.0065107421875,0,0)" xlink:href="#am"/><use transform="matrix(0.0065107421875,0,0,0.0065107421875,8.3011962890625,0)" xlink:href="#U"/><use transform="matrix(0.0065107421875,0,0,0.0065107421875,15.651824218749999,0)" xlink:href="#aH"/><use transform="matrix(0.0065107421875,0,0,0.0065107421875,18.887663085937497,0)" xlink:href="#ak"/><use transform="matrix(0.0065107421875,0,0,0.0065107421875,22.123501953124997,0)" xlink:href="#Z"/></g><g id="N"><use transform="matrix(0.0065107421875,0,0,0.0065107421875,0,0)" xlink:href="#S"/><use transform="matrix(0.0065107421875,0,0,0.0065107421875,7.9105517578125,0)" xlink:href="#W"/><use transform="matrix(0.0065107421875,0,0,0.0065107421875,14.8900673828125,0)" xlink:href="#V"/><use transform="matrix(0.0065107421875,0,0,0.0065107421875,19.40201171875,0)" xlink:href="#aH"/><use transform="matrix(0.0065107421875,0,0,0.0065107421875,22.6378505859375,0)" xlink:href="#aI"/><use transform="matrix(0.0065107421875,0,0,0.0065107421875,30.118693359374998,0)" xlink:href="#af"/><use transform="matrix(0.0065107421875,0,0,0.0065107421875,34.4743798828125,0)" xlink:href="#ah"/></g><path d="M19 279c92 0 127-48 127-150v-1211h185V125c0 208-94 312-283 312-41 0-78-6-113-18V271c21 5 49 8 84 8zm216-1543c-68 0-107-42-108-105 0-61 42-107 108-107 68 0 110 44 110 107s-42 105-110 105" id="bA"/><g id="O"><use transform="matrix(0.0065107421875,0,0,0.0065107421875,0,0)" xlink:href="#aq"/><use transform="matrix(0.0065107421875,0,0,0.0065107421875,8.41187890625,0)" xlink:href="#V"/><use transform="matrix(0.0065107421875,0,0,0.0065107421875,12.793608398437499,0)" xlink:href="#T"/><use transform="matrix(0.0065107421875,0,0,0.0065107421875,20.3981552734375,0)" xlink:href="#bA"/><use transform="matrix(0.0065107421875,0,0,0.0065107421875,23.581908203125,0)" xlink:href="#X"/><use transform="matrix(0.0065107421875,0,0,0.0065107421875,30.6460634765625,0)" xlink:href="#W"/><use transform="matrix(0.0065107421875,0,0,0.0065107421875,37.6255791015625,0)" xlink:href="#af"/></g><path d="M258 11c-71 0-114-43-114-108 0-67 42-112 114-112s116 45 116 112c-1 65-45 108-116 108" id="bB"/><g id="P"><use transform="matrix(0.0065107421875,0,0,0.0065107421875,0,0)" xlink:href="#bB"/><use transform="matrix(0.0065107421875,0,0,0.0065107421875,3.5092900390625,0)" xlink:href="#Z"/><use transform="matrix(0.0065107421875,0,0,0.0065107421875,11.029197265625001,0)" xlink:href="#V"/><use transform="matrix(0.0065107421875,0,0,0.0065107421875,15.410926757812499,0)" xlink:href="#T"/><use transform="matrix(0.0065107421875,0,0,0.0065107421875,23.0154736328125,0)" xlink:href="#ac"/><use transform="matrix(0.0065107421875,0,0,0.0065107421875,30.3726123046875,0)" xlink:href="#X"/><use transform="matrix(0.0065107421875,0,0,0.0065107421875,37.436767578125,0)" xlink:href="#bB"/><use transform="matrix(0.0065107421875,0,0,0.0065107421875,40.9460576171875,0)" xlink:href="#ag"/><use transform="matrix(0.0065107421875,0,0,0.0065107421875,47.254966796874996,0)" xlink:href="#ae"/><use transform="matrix(0.0065107421875,0,0,0.0065107421875,58.941749023437495,0)" xlink:href="#ak"/></g><g id="Q"><use transform="matrix(0.0065107421875,0,0,0.0065107421875,0,0)" xlink:href="#aX"/><use transform="matrix(0.0065107421875,0,0,0.0065107421875,7.9105517578125,0)" xlink:href="#bb"/><use transform="matrix(0.0065107421875,0,0,0.0065107421875,15.5150986328125,0)" xlink:href="#bf"/><use transform="matrix(0.0065107421875,0,0,0.0065107421875,22.8657265625,0)" xlink:href="#aR"/><use transform="matrix(0.0065107421875,0,0,0.0065107421875,27.253966796874998,0)" xlink:href="#bg"/><use transform="matrix(0.0065107421875,0,0,0.0065107421875,34.233482421875,0)" xlink:href="#aS"/></g><path fill="#999" d="M688-137c238 0 323-102 359-325h193c-32 297-228 482-552 482-361 0-569-299-569-680 0-197 8-360 73-497 88-186 257-317 513-319 316-2 509 195 535 488h-193c-31-212-118-330-342-330-272 0-397 224-393 523v141c-3 282 115 517 376 517" id="bC"/><path fill="#999" d="M520 20C244 20 95-247 95-550c0-298 151-550 427-552 127 0 227 43 301 130v-564h185V0H838l-9-116C755-25 652 20 520 20zm48-965c-210 0-288 177-288 416 0 218 87 392 286 392 117 0 203-53 257-158v-497c-55-102-140-153-255-153" id="bD"/><g id="R"><use transform="matrix(0.0065107421875,0,0,0.0065107421875,0,0)" xlink:href="#bC"/><use transform="matrix(0.0065107421875,0,0,0.0065107421875,8.678819335937499,0)" xlink:href="#bb"/><use transform="matrix(0.0065107421875,0,0,0.0065107421875,16.283366210937498,0)" xlink:href="#bD"/><use transform="matrix(0.0065107421875,0,0,0.0065107421875,23.803273437499996,0)" xlink:href="#aS"/></g></defs></g></svg>